<?xml version="1.0" standalone="no"?>
<!DOCTYPE svg PUBLIC "-//W3C//DTD SVG 1.1//EN" "http://www.w3.org/Graphics/SVG/1.1/DTD/svg11.dtd" >
<svg>
<metadata>
Created by FontForge 20120731 at Fri Feb  7 14:07:51 2014
 By World Wide Web Server
Copyright 1989, 1990, 1993, 1994, 1996, 1998, 1999, 2000 Adobe Systems Incorporated. All rights reserved. Tekton is either a registered trademark or a trademark of Adobe Systems Incorporated in the United States and/or other countries.
</metadata>
<defs>
<font id="TektonPro-BoldCond" horiz-adv-x="295" >
  <font-face 
    font-family="Tekton Pro"
    font-weight="700"
    font-stretch="condensed"
    units-per-em="1000"
    panose-1="2 15 6 6 2 2 8 2 9 4"
    ascent="680"
    descent="-320"
    x-height="438"
    cap-height="645"
    bbox="-92 -309 960 896"
    underline-thickness="50"
    underline-position="-50"
    stemh="75"
    stemv="83"
    unicode-range="U+0020-FB04"
  />
<missing-glyph horiz-adv-x="500" 
d="M0 0v700h500v-700h-500zM250 395l170 255h-340zM280 350l170 -255v510zM80 50h340l-170 255zM50 605v-510l170 255z" />
    <glyph glyph-name="f_f" unicode="ff" horiz-adv-x="457" 
d="M80 308l-34 -6c-5 -4 -10 -6 -16 -6c-13 0 -30 9 -30 46c0 15 9 40 27 40c7 0 14 -2 19 -4l34 6v12c0 174 18 255 117 255c42 0 75 -26 75 -50c0 -30 -16 -58 -38 -58c-15 0 -27 11 -26 19c-3 7 -12 14 -17 14c-18 0 -28 -33 -28 -166v-15l109 17c0 175 18 256 117 256
c42 0 98 -49 98 -77c0 -22 -13 -46 -37 -46c-21 0 -35 18 -35 31c-5 10 -18 17 -32 17c-18 0 -28 -33 -28 -166l71 12c6 2 11 11 23 11c21 0 36 -18 36 -38c0 -25 -9 -49 -28 -49c-7 0 -16 2 -20 4l-82 -14v-296c4 -8 9 -19 9 -27c0 -24 -20 -35 -49 -35
c-34 0 -48 14 -48 39c0 7 3 13 5 18v285l-109 -17v-263c4 -8 9 -19 9 -27c0 -24 -20 -35 -49 -35c-34 0 -48 14 -48 39c0 7 3 13 5 18v256z" />
    <glyph glyph-name="f_i" unicode="fi" horiz-adv-x="404" 
d="M269 369l-109 -22v-287c6 -6 10 -17 10 -28c0 -25 -17 -37 -52 -37c-29 0 -48 13 -48 34c0 10 6 16 7 24v279l-27 -6c-4 -3 -10 -7 -18 -7c-12 0 -27 9 -27 46c0 19 10 36 30 36c7 0 13 -1 19 -3l23 5c0 182 29 265 121 265c108 0 153 -82 153 -115
c0 -13 -12 -47 -51 -47c-18 0 -45 9 -45 40c0 4 3 9 7 12c-8 18 -26 36 -60 36c-28 0 -42 -41 -42 -175l106 21c11 1 28 15 49 15c22 0 45 -20 45 -41c0 -13 -6 -26 -8 -31v-315c4 -6 12 -15 12 -25c0 -33 -36 -48 -60 -48s-47 14 -47 47c0 11 8 24 12 31v296z" />
    <glyph glyph-name="f_l" unicode="fl" horiz-adv-x="405" 
d="M269 369l-109 -22v-289c5 -6 11 -17 11 -27c0 -28 -26 -36 -57 -36c-21 0 -44 13 -44 38c0 6 4 13 7 20v279l-27 -5c-4 -3 -12 -6 -20 -6c-13 0 -25 10 -25 43c0 25 13 38 28 38c9 0 15 -2 21 -3l23 5c0 186 33 264 128 264c23 0 51 -7 79 -25c8 5 21 4 28 3
c25 1 54 -14 54 -43c0 -17 -5 -33 -14 -45v-495c8 -6 14 -17 14 -27c0 -14 -19 -41 -55 -41c-35 0 -50 18 -50 45c0 11 5 17 8 25v304zM160 419l109 22v116c-2 5 -4 10 -7 13c-12 15 -28 23 -53 23c-31 0 -49 -35 -49 -174z" />
    <glyph glyph-name="f_f_i" unicode="ffi" horiz-adv-x="599" 
d="M80 295l-34 -7c-5 -2 -10 -7 -19 -7c-11 0 -27 10 -27 47c0 18 11 36 30 36c7 0 13 -2 20 -4l30 6v29c0 175 18 256 117 256c42 0 75 -26 75 -50c0 -30 -16 -58 -38 -58c-15 0 -27 11 -26 19c-3 7 -12 14 -17 14c-18 0 -28 -33 -28 -166v-29l109 22c0 182 29 265 121 265
c108 0 153 -82 153 -115c0 -13 -12 -47 -51 -47c-18 0 -45 9 -45 40c0 4 3 9 7 12c-8 18 -26 36 -60 36c-28 0 -42 -41 -42 -176l106 21c11 2 28 16 49 16c23 0 45 -20 45 -41c0 -13 -5 -27 -8 -31v-315c4 -7 12 -15 12 -25c0 -33 -36 -48 -60 -48s-47 14 -47 47
c0 11 8 24 12 31v296l-109 -22v-287c6 -6 10 -17 10 -28c0 -25 -17 -37 -52 -37c-29 0 -48 13 -48 34c0 10 6 16 7 24v279l-109 -22v-254c4 -7 9 -18 9 -26c0 -24 -20 -35 -49 -35c-34 0 -48 14 -48 39c0 7 3 13 5 18v243z" />
    <glyph glyph-name="f_f_l" unicode="ffl" horiz-adv-x="600" 
d="M80 295l-34 -7c-5 -2 -10 -7 -19 -7c-11 0 -27 10 -27 47c0 18 11 36 30 36c7 0 13 -2 20 -4l30 6v29c0 175 18 256 117 256c42 0 75 -26 75 -50c0 -30 -16 -58 -38 -58c-15 0 -27 11 -26 19c-3 7 -12 14 -17 14c-18 0 -28 -33 -28 -166v-28l109 22c0 186 33 264 128 264
c23 0 51 -7 79 -25c8 5 21 4 28 3c25 1 54 -14 54 -43c0 -17 -5 -33 -14 -45v-495c8 -6 14 -17 14 -27c0 -14 -19 -41 -55 -41c-35 0 -50 18 -50 45c0 11 5 17 8 25v304l-109 -22v-289c5 -6 11 -17 11 -27c0 -28 -26 -36 -57 -36c-21 0 -44 13 -44 38c0 6 4 13 7 20v279
l-109 -22v-253c4 -8 9 -19 9 -27c0 -24 -20 -35 -49 -35c-34 0 -48 14 -48 39c0 7 3 13 5 18v243zM464 441v116c-2 5 -4 10 -7 13c-12 15 -28 23 -53 23c-31 0 -49 -35 -49 -174z" />
    <glyph glyph-name="f_j" unicode="fj" horiz-adv-x="397" 
d="M352 383v-482c0 -107 -64 -150 -129 -150c-77 0 -113 74 -113 96c0 25 14 54 47 54c17 0 43 -11 37 -48c4 -12 17 -27 30 -27c31 0 45 27 45 94v449l-109 -22v-287c6 -6 10 -17 10 -28c0 -25 -17 -37 -52 -37c-29 0 -48 13 -48 34c0 10 6 16 7 24v279l-27 -6
c-4 -2 -10 -7 -18 -7c-12 0 -27 10 -27 47c0 18 10 36 30 36c7 0 13 -2 19 -4l23 5c0 182 29 265 121 265c108 0 153 -82 153 -115c0 -13 -12 -47 -51 -47c-18 0 -45 9 -45 40c0 4 3 9 7 12c-8 18 -26 36 -60 36c-28 0 -42 -41 -42 -176l106 21c11 2 28 16 49 16
c23 0 45 -20 45 -41c0 -13 -5 -27 -8 -31z" />
    <glyph glyph-name="f_f_j" unicode="ffj" horiz-adv-x="592" 
d="M80 295l-34 -7c-5 -2 -10 -7 -19 -7c-11 0 -27 10 -27 47c0 18 11 36 30 36c7 0 13 -2 20 -4l30 6v29c0 175 18 256 117 256c42 0 75 -26 75 -50c0 -30 -16 -58 -38 -58c-15 0 -27 11 -26 19c-3 7 -12 14 -17 14c-18 0 -28 -33 -28 -166v-29l109 22c0 182 29 265 121 265
c108 0 153 -82 153 -115c0 -13 -12 -47 -51 -47c-18 0 -45 9 -45 40c0 4 3 9 7 12c-8 18 -26 36 -60 36c-28 0 -42 -41 -42 -176l106 21c11 2 28 16 49 16c23 0 45 -20 45 -41c0 -13 -5 -27 -8 -31v-476c0 -107 -64 -150 -129 -150c-77 0 -113 74 -113 96c0 25 14 54 47 54
c17 0 43 -11 37 -48c3 -12 17 -27 29 -27c32 0 46 27 46 94v443l-109 -22v-287c6 -6 10 -17 10 -28c0 -25 -17 -37 -52 -37c-29 0 -48 13 -48 34c0 10 6 16 7 24v279l-109 -22v-254c4 -7 9 -18 9 -26c0 -24 -20 -35 -49 -35c-34 0 -48 14 -48 39c0 7 3 13 5 18v243z" />
    <glyph glyph-name="t_t" unicode="tt" horiz-adv-x="609" 
d="M424 381v-282c0 -12 1 -24 11 -24s65 47 91 93c-1 23 13 38 34 38c38 0 46 -18 46 -43c0 -37 -132 -176 -203 -176c-39 0 -62 35 -62 73v305l-158 -29v-237c0 -12 1 -24 11 -24c8 0 21 9 25 18c-1 23 13 39 34 39c38 0 46 -19 46 -44c0 -34 -78 -101 -137 -101
c-39 0 -62 35 -62 73v259l-40 -7c-5 -5 -11 -7 -20 -9c-25 2 -38 18 -38 46c0 23 16 40 38 40c7 0 14 -3 17 -6l43 8v123c-4 4 -6 8 -6 22c0 24 19 34 57 34c17 0 42 -3 42 -28c0 -7 -3 -16 -10 -24v-111l158 29v78c-4 4 -6 8 -6 22c0 24 19 34 57 34c17 0 42 -3 42 -28
c0 -7 -3 -16 -10 -24v-66l83 17c5 5 10 8 17 8c24 0 34 -22 34 -37c0 -28 -10 -47 -31 -47c-7 0 -13 0 -16 5z" />
    <glyph glyph-name=".notdef" horiz-adv-x="500" 
d="M0 0v700h500v-700h-500zM250 395l170 255h-340zM280 350l170 -255v510zM80 50h340l-170 255zM50 605v-510l170 255z" />
    <glyph glyph-name="space" unicode=" " horiz-adv-x="140" 
 />
    <glyph glyph-name="exclam" unicode="!" horiz-adv-x="208" 
d="M147 595v-350c7 -6 10 -23 10 -42c0 -23 -34 -44 -68 -44c-29 0 -40 28 -40 46c0 16 6 29 12 36v351c-7 11 -13 18 -13 34c0 34 13 49 72 49c27 0 39 -11 39 -42c0 -20 -7 -31 -12 -38zM91 -5c-20 0 -37 22 -37 43c0 35 28 71 61 71c25 0 37 -15 37 -54
c0 -38 -12 -60 -61 -60z" />
    <glyph glyph-name="quotedbl" unicode="&#x22;" horiz-adv-x="304" 
d="M113 595v-91c4 -10 6 -25 6 -39c0 -23 -14 -44 -50 -44c-20 0 -36 3 -36 31c0 17 10 32 19 41v98c-6 8 -15 18 -15 29c0 29 15 52 51 52c27 0 38 -26 38 -40c0 -15 -4 -29 -13 -37zM259 595v-91c4 -10 6 -25 6 -39c0 -23 -14 -44 -50 -44c-20 0 -36 3 -36 31
c0 17 10 32 19 41v98c-6 8 -15 18 -15 29c0 29 15 52 51 52c27 0 38 -26 38 -40c0 -15 -4 -29 -13 -37z" />
    <glyph glyph-name="numbersign" unicode="#" horiz-adv-x="623" 
d="M409 488l29 114c-11 28 3 58 47 58c37 0 48 -24 48 -41c0 -14 -10 -29 -21 -32l-25 -99h55c9 3 17 4 25 4c19 0 36 -17 36 -41c1 -37 -10 -50 -33 -50c-10 0 -21 4 -26 11h-75l-40 -156h63c8 3 17 5 24 5c21 0 37 -18 37 -41c1 -36 -10 -51 -33 -51c-11 0 -22 4 -26 11
h-84l-32 -128c3 -7 7 -18 7 -30c0 -19 -24 -36 -52 -36c-29 0 -52 13 -52 46c0 20 11 30 23 35l29 113h-102l-33 -128c4 -7 7 -18 7 -30c0 -19 -24 -36 -52 -36c-29 0 -52 13 -52 42c0 21 15 37 23 39l30 113h-62c-6 -5 -24 -10 -33 -10c-22 0 -35 25 -36 44
c0 33 15 54 37 54c18 0 24 -4 31 -12h81l41 156h-70c-6 -5 -24 -11 -34 -11c-22 0 -35 26 -35 45c-1 32 14 54 36 54c18 0 25 -4 32 -12h88l29 114c-11 28 3 58 47 58c37 0 48 -24 48 -41c0 -14 -10 -29 -21 -32l-25 -99h101zM391 412h-101l-40 -156h100z" />
    <glyph glyph-name="dollar" unicode="$" horiz-adv-x="518" 
d="M240 40v-74c4 -8 11 -17 11 -28c0 -24 -21 -46 -41 -46c-22 0 -45 13 -45 40c0 10 10 22 11 27v74c-86 6 -145 75 -145 127c0 21 21 36 40 36c17 0 29 -12 30 -27c2 -37 35 -61 75 -67v209c-14 -7 -37 -14 -61 -14s-80 24 -80 109c0 120 92 188 141 205v46
c-2 8 -7 14 -7 23c0 17 12 32 37 32c26 0 41 -14 41 -28c0 -11 -4 -17 -7 -22v-39c90 -4 132 -52 132 -75c0 -36 -19 -48 -38 -48c-30 0 -32 12 -38 25c-6 12 -16 26 -56 26v-135c15 7 31 9 47 9c32 0 101 -16 101 -147c0 -133 -78 -216 -148 -238zM176 389v149
c-27 -12 -63 -52 -63 -122c0 -32 11 -41 22 -41c12 0 29 5 41 14zM240 339v-225c38 21 68 90 68 150s-14 85 -37 85c-13 0 -23 -2 -31 -10z" />
    <glyph glyph-name="percent" unicode="%" horiz-adv-x="486" 
d="M423 611c0 -12 -10 -27 -24 -32l-256 -540c0 -33 -24 -48 -49 -48c-28 0 -44 9 -44 38c0 14 16 22 22 34l260 549c0 28 20 45 37 45c21 1 54 -15 54 -46zM152 656c45 0 87 -27 87 -94c0 -80 -73 -149 -125 -149c-44 0 -91 30 -91 98c0 83 73 145 129 145zM144 593
c-19 0 -44 -34 -44 -77c0 -29 10 -40 21 -40c16 0 41 38 41 81c0 20 -7 36 -18 36zM384 250h2c34 0 77 -34 77 -114c0 -93 -63 -155 -136 -155c-39 0 -84 34 -84 108c0 118 83 161 141 161zM364 187c-23 0 -44 -31 -44 -95c0 -37 9 -48 21 -48c20 0 45 29 45 91
c0 33 -5 52 -22 52z" />
    <glyph glyph-name="ampersand" unicode="&#x26;" horiz-adv-x="490" 
d="M247 401l101 -172c20 43 23 59 22 77c0 11 9 24 24 24c33 0 57 -24 57 -43c0 -9 -6 -26 -15 -25c-6 -20 -25 -71 -47 -102c6 -12 44 -82 51 -82c10 0 22 22 41 22c18 0 22 -15 22 -25c0 -31 -56 -81 -91 -81c-13 0 -22 7 -24 23l-48 82c-67 -86 -126 -118 -192 -118
c-54 0 -133 43 -133 192c0 115 63 202 137 246c-28 46 -56 96 -56 162c0 24 24 78 112 78c78 0 134 -27 134 -83c0 -66 -38 -129 -95 -175zM216 602c-23 0 -43 -10 -43 -36s10 -67 37 -105c36 25 58 86 58 106c0 29 -26 35 -52 35zM302 165l-114 195
c-44 -34 -95 -81 -95 -181c0 -75 33 -122 73 -122c39 0 86 34 136 108z" />
    <glyph glyph-name="quoteright" unicode="&#x2019;" horiz-adv-x="157" 
d="M87 678c30 0 46 -23 46 -72c0 -87 -43 -151 -82 -151c-10 0 -22 6 -22 18c0 20 11 25 19 26c20 2 48 35 48 82c-8 -10 -17 -17 -30 -17c-23 0 -38 16 -38 52c0 30 22 62 59 62z" />
    <glyph glyph-name="parenleft" unicode="(" horiz-adv-x="269" 
d="M181 683c12 0 62 -3 62 -68c0 -22 -19 -34 -33 -32c-65 -65 -74 -215 -74 -358c0 -117 11 -280 69 -355c17 6 32 -15 32 -42c0 -44 -32 -58 -43 -58c-18 0 -47 17 -57 37c-70 137 -87 287 -87 422c0 173 30 320 96 418c1 21 19 36 35 36z" />
    <glyph glyph-name="parenright" unicode=")" horiz-adv-x="269" 
d="M89 683c14 0 32 -15 33 -36c66 -98 96 -245 96 -418c0 -135 -17 -285 -87 -422c-10 -20 -39 -37 -57 -37c-11 0 -43 14 -43 58c0 27 15 48 32 42c58 75 69 238 69 355c0 143 -9 293 -74 358c-14 -2 -33 10 -33 32c0 65 50 68 64 68z" />
    <glyph glyph-name="asterisk" unicode="*" horiz-adv-x="365" 
d="M141 377c-14 0 -28 11 -28 25c0 12 1 21 12 35c6 7 26 39 31 51l-74 -27c-38 -13 -49 8 -49 22c0 17 6 34 41 34c22 0 56 10 84 18c-13 12 -30 25 -47 38s-29 24 -29 36s10 32 34 32c10 0 22 -3 25 -10c7 -14 34 -48 48 -64l19 61c-3 19 11 33 31 33s35 -14 35 -26
s-7 -22 -16 -35c-10 -13 -21 -28 -29 -49l77 33c16 6 29 -8 29 -30c0 -21 -15 -33 -32 -33c-10 0 -47 -4 -69 -9c21 -25 55 -52 64 -58c13 -9 19 -13 19 -24c0 -24 -10 -35 -27 -35c-23 0 -43 16 -50 34l-39 49l-22 -67c-2 -27 -15 -34 -38 -34z" />
    <glyph glyph-name="plus" unicode="+" horiz-adv-x="554" 
d="M227 266v108c-7 11 -11 23 -11 35c0 18 17 34 45 34c38 0 57 -20 57 -41c0 -11 -4 -20 -8 -27v-109h114c9 3 20 11 29 11c27 0 40 -21 40 -52s-15 -50 -40 -50c-12 0 -22 4 -29 8h-114v-116c5 -6 11 -16 11 -27c0 -31 -26 -45 -45 -45c-34 0 -60 14 -60 39
c0 21 5 32 11 40v109h-112c-9 -3 -21 -9 -32 -9c-28 0 -38 20 -38 43c0 38 16 56 42 56c12 0 21 -4 28 -7h112z" />
    <glyph glyph-name="comma" unicode="," horiz-adv-x="192" 
d="M40 -105c-19 0 -24 7 -24 21c0 18 11 25 34 27c32 1 50 25 51 59c-8 -9 -15 -10 -25 -10c-24 0 -37 27 -37 50c0 38 16 68 51 68c38 0 53 -28 53 -82c0 -96 -60 -133 -103 -133z" />
    <glyph glyph-name="hyphen" unicode="-" horiz-adv-x="275" 
d="M176 233l-72 -12c-10 -11 -19 -15 -32 -15c-18 0 -35 23 -35 51c0 32 18 51 37 51c11 0 18 -4 23 -9l75 9c7 8 15 12 26 12c24 0 40 -21 40 -50c0 -23 -17 -49 -36 -49c-15 0 -22 5 -26 12z" />
    <glyph glyph-name="period" unicode="." horiz-adv-x="201" 
d="M89 -8c-19 0 -43 18 -43 56c0 28 20 63 56 63c25 0 43 -16 43 -56c0 -31 -16 -63 -56 -63z" />
    <glyph glyph-name="slash" unicode="/" horiz-adv-x="266" 
d="M256 619c0 -13 -8 -29 -19 -32l-125 -537c3 -7 7 -18 7 -31c0 -19 -25 -36 -53 -36c-29 0 -59 13 -59 49c0 21 12 28 30 33l126 538c-2 28 3 49 50 49c35 0 43 -15 43 -33z" />
    <glyph glyph-name="zero" unicode="0" horiz-adv-x="518" 
d="M305 653c62 0 183 -57 183 -232c0 -342 -207 -436 -287 -436c-94 0 -174 77 -174 230c0 332 172 438 278 438zM303 571c-86 0 -186 -88 -186 -351c0 -111 39 -153 83 -153c71 0 200 84 200 347c0 101 -35 157 -97 157z" />
    <glyph glyph-name="one" unicode="1" horiz-adv-x="518" 
d="M270 539l-116 -79c-3 -15 -17 -26 -36 -26c-21 0 -39 21 -39 45c0 27 22 43 39 47l165 109c17 11 29 19 47 19c23 0 38 -15 38 -35c0 -15 -7 -26 -14 -34v-526c4 -5 9 -12 9 -26c0 -19 -11 -38 -61 -38c-30 0 -46 2 -46 32c0 16 7 26 14 34v478z" />
    <glyph glyph-name="two" unicode="2" horiz-adv-x="518" 
d="M451 54c0 -36 -7 -54 -26 -54h-282c-10 -7 -22 -13 -49 -13s-36 16 -36 23c0 55 32 105 55 145c65 110 116 148 166 191c47 41 65 98 65 155c0 48 -26 77 -62 77c-71 0 -97 -35 -117 -84c-3 -5 -1 -17 -1 -23c0 -14 -26 -36 -54 -36c-35 0 -51 24 -51 47
c0 16 13 38 27 38c36 90 94 133 202 133c80 0 144 -59 144 -151c0 -126 -55 -176 -104 -218c-59 -50 -121 -110 -154 -209h193c0 40 4 59 47 59c25 0 37 -18 37 -80z" />
    <glyph glyph-name="three" unicode="3" horiz-adv-x="518" 
d="M302 572h-155v-29c5 -6 6 -14 6 -27s-26 -33 -48 -33c-29 0 -45 16 -45 30c0 17 5 31 12 34v70c0 15 8 31 35 31h266c33 0 46 -14 46 -32c0 -21 -9 -37 -25 -55l-109 -130c15 4 27 6 56 6c64 0 132 -59 132 -167c0 -200 -121 -285 -296 -285c-62 0 -132 51 -132 149
c0 31 23 58 53 58c35 0 44 -22 44 -39c0 -25 -13 -23 -18 -30c14 -38 34 -60 73 -60c114 0 188 68 188 194c0 47 -21 107 -73 107c-104 0 -127 -51 -159 -51c-25 0 -40 24 -40 51c0 41 39 25 75 67z" />
    <glyph glyph-name="four" unicode="4" horiz-adv-x="518" 
d="M300 201l-211 -35c-8 -7 -25 -13 -40 -13c-30 0 -39 22 -38 48c0 16 14 31 25 39l251 371c0 18 21 35 53 35s51 -19 51 -42c0 -13 -2 -25 -7 -31v-280l48 8c7 8 18 11 26 12c22 0 40 -8 40 -47c0 -38 -18 -54 -38 -54c-7 0 -19 3 -26 11l-50 -7v-153c6 -6 13 -16 13 -25
c0 -28 -23 -43 -67 -43c-27 0 -38 18 -38 37c0 10 2 19 8 24v145zM300 279v229l-167 -257z" />
    <glyph glyph-name="five" unicode="5" horiz-adv-x="518" 
d="M387 566c-10 0 -18 4 -25 8l-199 -18c0 -10 -6 -129 -13 -169c68 63 124 65 162 65c66 0 162 -35 162 -172c0 -212 -165 -295 -250 -295c-78 0 -119 28 -152 71c-22 8 -26 23 -26 40c0 22 5 54 48 54c31 0 39 -21 39 -45c0 -14 29 -44 77 -44c110 0 177 94 177 203
c0 68 -30 113 -92 113c-112 1 -152 -104 -201 -104c-20 0 -36 15 -36 35c0 17 13 42 15 73c8 80 10 209 10 226c0 21 19 21 34 22l231 21c16 10 29 13 39 13c32 0 47 -20 47 -50c0 -32 -18 -47 -47 -47z" />
    <glyph glyph-name="six" unicode="6" horiz-adv-x="518" 
d="M252 -16c-72 0 -115 30 -172 101c-23 0 -45 38 -29 70c-12 31 -18 75 -18 107c0 187 117 403 275 403c65 0 136 -39 136 -97c0 -27 -22 -44 -51 -44c-35 0 -43 28 -38 42c-7 14 -27 23 -54 23c-106 0 -183 -181 -183 -303c0 -12 1 -34 3 -47c44 88 132 183 222 183
c101 0 141 -84 141 -152c0 -189 -137 -286 -232 -286zM246 59c63 0 148 63 148 211c0 26 -16 76 -58 76c-73 0 -149 -107 -191 -188c12 -52 57 -99 101 -99z" />
    <glyph glyph-name="seven" unicode="7" horiz-adv-x="518" 
d="M142 554v-35c4 -5 6 -10 6 -16c0 -16 -20 -37 -50 -36c-26 1 -39 22 -39 35c0 8 4 15 9 22v67c0 25 6 35 43 37l274 17c21 1 23 8 26 15c2 7 7 14 32 14c29 0 49 -16 49 -33c0 -18 -5 -40 -23 -52c-21 -45 -61 -143 -119 -281c-55 -133 -88 -216 -103 -264
c0 -40 -16 -61 -56 -61c-26 0 -40 21 -40 49c0 20 16 52 27 78l192 462c-9 -2 -15 -3 -32 -4z" />
    <glyph glyph-name="eight" unicode="8" horiz-adv-x="518" 
d="M157 -11c-52 0 -132 51 -132 150c0 98 75 191 121 224v2c-29 15 -51 41 -51 101c0 136 91 199 181 199c75 0 122 -53 122 -108c0 -45 -17 -96 -42 -121l1 -2c36 2 134 -39 134 -136c0 -160 -209 -309 -334 -309zM313 531c0 32 -16 62 -54 62c-50 0 -82 -44 -82 -118
c0 -41 21 -66 39 -65c16 10 37 20 57 26c21 22 40 63 40 95zM319 357c-94 0 -208 -104 -208 -220c0 -39 25 -71 51 -71c85 0 240 112 240 228c0 29 -29 63 -83 63z" />
    <glyph glyph-name="nine" unicode="9" horiz-adv-x="518" 
d="M299 658c62 0 111 -38 144 -99c21 -9 32 -41 32 -64c0 -9 -2 -15 -5 -20c5 -34 10 -65 10 -105c0 -230 -132 -389 -273 -389c-72 0 -115 43 -148 114c-11 1 -22 16 -22 34c0 37 31 52 51 52c44 0 57 -33 48 -55c10 -36 41 -69 68 -69c116 0 190 156 190 272
c0 11 0 29 -2 42h-1c-26 -51 -108 -102 -181 -102c-93 0 -148 111 -148 154c0 152 95 235 237 235zM289 583c-72 0 -140 -48 -140 -156c0 -32 44 -83 73 -83c78 0 156 72 156 148c0 41 -30 91 -89 91z" />
    <glyph glyph-name="colon" unicode=":" horiz-adv-x="195" 
d="M96 405c33 0 46 -33 46 -57c0 -34 -24 -65 -58 -65c-30 0 -42 38 -42 56c0 30 17 66 54 66zM83 -8c-28 0 -41 17 -41 51c0 44 31 69 61 69c12 0 39 -10 39 -45c0 -44 -31 -75 -59 -75z" />
    <glyph glyph-name="semicolon" unicode=";" horiz-adv-x="193" 
d="M89 283c-19 0 -43 18 -43 56c0 28 20 63 54 63c27 0 45 -15 45 -56c0 -31 -17 -63 -56 -63zM40 -105c-19 0 -24 7 -24 21c0 18 11 25 34 27c32 1 50 25 51 59c-8 -9 -15 -10 -25 -10c-24 0 -37 27 -37 50c0 38 16 68 51 68c38 0 53 -28 53 -82c0 -96 -60 -133 -103 -133z
" />
    <glyph glyph-name="less" unicode="&#x3c;" horiz-adv-x="554" 
d="M178 224l223 -135c29 -2 43 -7 43 -27c0 -24 -31 -67 -57 -67c-18 0 -29 9 -33 26l-236 152c-40 26 -47 40 -47 66c0 14 13 25 29 34l250 130c-3 17 19 39 38 39c34 0 62 -41 62 -52c0 -29 -9 -43 -43 -47z" />
    <glyph glyph-name="equal" unicode="=" horiz-adv-x="554" 
d="M115 370h308c10 3 21 9 30 9c27 0 38 -19 38 -50s-14 -48 -38 -48c-12 0 -22 2 -30 6h-308c-9 -3 -21 -7 -32 -7c-28 0 -36 18 -36 41c0 38 14 54 40 54c11 0 21 -2 28 -5zM115 185h308c10 3 21 9 30 9c27 0 38 -19 38 -50s-14 -48 -38 -48c-12 0 -22 2 -30 6h-308
c-9 -3 -21 -7 -32 -7c-28 0 -36 18 -36 41c0 38 14 54 40 54c11 0 21 -2 28 -5z" />
    <glyph glyph-name="greater" unicode="&#x3e;" horiz-adv-x="554" 
d="M137 89l223 135l-229 119c-34 4 -43 18 -43 47c0 11 28 52 62 52c19 0 41 -22 38 -39l250 -130c16 -9 29 -20 29 -34c0 -26 -7 -40 -47 -66l-236 -152c-4 -17 -15 -26 -33 -26c-26 0 -57 43 -57 67c0 20 14 25 43 27z" />
    <glyph glyph-name="question" unicode="?" horiz-adv-x="379" 
d="M161 138c-57 0 -83 22 -83 80c0 55 22 100 103 182c80 81 93 113 93 154c0 21 -17 46 -47 46c-53 0 -82 -50 -100 -82c4 -26 -18 -46 -34 -46c-25 0 -51 17 -51 45c0 17 6 32 15 35c15 27 68 123 191 123c74 0 115 -64 115 -109c0 -53 -9 -93 -119 -211
c-85 -91 -95 -108 -95 -131c0 -14 8 -18 17 -18c21 0 27 18 27 27c0 10 11 22 28 22c20 0 44 -5 44 -35c0 -35 -28 -82 -104 -82zM147 -12c-17 0 -40 17 -40 41c0 51 12 71 56 71c26 0 37 -24 37 -53c0 -27 -14 -59 -53 -59z" />
    <glyph glyph-name="at" unicode="@" horiz-adv-x="650" 
d="M203 -68c49 0 83 11 112 32c3 15 13 22 28 22c19 0 47 -15 47 -37c0 -23 -24 -41 -51 -39c-38 -24 -82 -38 -139 -38c-99 0 -181 62 -181 235c0 198 169 447 384 447c172 0 213 -118 213 -272c0 -224 -97 -292 -159 -292c-58 0 -83 35 -83 77c0 16 3 41 5 59h-2
c-26 -44 -94 -123 -159 -123c-37 0 -69 28 -69 93c0 153 128 324 235 324c10 0 18 -1 25 -4c3 15 14 21 28 21c25 0 37 -15 37 -28c0 -6 -3 -13 -4 -19l-29 -296c-2 -22 -1 -48 26 -48c23 0 82 60 82 221c0 137 -23 229 -145 229c-184 0 -318 -228 -318 -387
c0 -128 48 -177 117 -177zM251 78c29 0 145 128 145 230v16c0 21 -9 28 -20 28c-58 0 -148 -134 -148 -228c0 -36 9 -46 23 -46z" />
    <glyph glyph-name="A" unicode="A" horiz-adv-x="496" 
d="M338 231l-189 -16c-32 -92 -40 -111 -43 -130c-4 -16 -3 -35 -3 -49c0 -24 -13 -41 -55 -41c-29 0 -44 21 -44 43c0 24 16 58 45 133l134 342c12 34 20 60 24 83c-1 35 17 69 50 69c37 0 50 -24 50 -38c0 -20 -8 -25 -8 -41c0 -35 58 -182 83 -246
c58 -152 92 -246 92 -285s-25 -60 -56 -60c-24 0 -46 16 -46 36c0 18 7 29 7 39c0 16 -5 47 -41 161zM178 292l135 11l-63 184z" />
    <glyph glyph-name="B" unicode="B" horiz-adv-x="497" 
d="M60 69v495c-5 8 -7 18 -7 26c0 34 30 47 59 47c21 0 36 -12 34 -28c49 22 114 41 164 41c51 0 99 -31 99 -82c0 -59 -32 -109 -93 -143v-2c8 1 15 2 23 2c85 0 132 -66 132 -129c0 -214 -279 -306 -375 -306c-38 0 -54 16 -54 42c0 19 8 33 18 37zM146 532v-122
c84 4 177 70 177 128c0 21 -8 37 -49 37c-36 0 -98 -23 -128 -43zM146 310v-233c79 12 236 82 236 206c0 36 -31 79 -93 79c-42 0 -78 -9 -111 -23c-21 -9 -32 -18 -32 -29z" />
    <glyph glyph-name="C" unicode="C" horiz-adv-x="443" 
d="M276 656c102 0 146 -57 146 -93c0 -38 -21 -53 -46 -53c-28 0 -39 12 -43 38c-2 16 -26 29 -58 29c-93 0 -157 -224 -157 -328c0 -131 48 -188 86 -188c42 0 98 34 118 72c2 26 5 59 48 59c31 0 43 -25 43 -41s-2 -34 -24 -64c-26 -36 -101 -105 -196 -105
c-93 0 -164 86 -164 272c0 131 87 402 247 402z" />
    <glyph glyph-name="D" unicode="D" horiz-adv-x="485" 
d="M40 26c0 21 4 31 12 39v519c-2 6 -5 14 -5 28c0 15 12 41 52 41c35 0 44 -23 39 -42c45 28 85 41 150 41c90 0 171 -114 171 -226c0 -104 -23 -214 -82 -292c-72 -95 -197 -148 -279 -148c-42 0 -58 14 -58 40zM138 530v-458c69 10 132 45 173 112c42 69 58 141 58 234
c0 77 -51 158 -107 158c-41 0 -84 -16 -124 -46z" />
    <glyph glyph-name="E" unicode="E" horiz-adv-x="442" 
d="M147 281v-201l190 15c8 9 19 14 30 14c32 0 53 -24 53 -45c0 -40 -28 -48 -78 -48l-196 -15c-7 -9 -25 -16 -53 -16c-24 0 -45 17 -45 48c0 16 6 32 13 42v193c-12 12 -18 28 -18 43c0 18 10 36 18 44v165c-14 7 -21 20 -21 35c0 19 6 29 15 35c-4 5 -6 12 -6 17
c0 20 24 35 53 35c28 0 44 -13 45 -34l157 17c9 6 23 15 33 15c38 0 55 -20 55 -44c0 -32 -20 -55 -54 -55c-12 0 -19 3 -31 6l-160 -18v-169l122 18c9 7 21 14 32 14c32 0 52 -25 52 -48c0 -34 -20 -49 -56 -49c-7 0 -13 3 -19 6z" />
    <glyph glyph-name="F" unicode="F" horiz-adv-x="403" 
d="M146 285v-210c5 -7 13 -21 13 -39c0 -29 -29 -44 -63 -44c-35 1 -52 13 -52 43c0 21 6 36 16 48v190c-12 11 -17 28 -17 43s8 38 17 47v152c-8 3 -20 26 -20 42c0 18 4 31 19 33c-3 35 29 50 58 50c19 0 37 -13 29 -32l153 28c17 3 24 12 38 12c25 0 52 -14 51 -42
c0 -42 -14 -58 -51 -58c-13 0 -23 3 -35 8l-156 -29v-160l140 25c7 7 19 14 42 14c17 0 35 -30 35 -47c0 -45 -15 -55 -44 -55c-12 0 -23 1 -35 6z" />
    <glyph glyph-name="G" unicode="G" horiz-adv-x="536" 
d="M342 665c48 0 82 -16 103 -42c20 -24 32 -55 32 -69c0 -21 -14 -43 -45 -43c-29 0 -41 16 -47 46c-1 13 -19 32 -50 32c-30 0 -56 -15 -102 -58c-56 -53 -117 -134 -117 -285c0 -129 43 -189 96 -189c45 0 109 28 143 76c43 62 64 123 64 165c-21 -8 -93 -26 -118 -26
c-17 0 -33 11 -33 38c0 22 15 45 41 45c64 0 135 27 158 27c27 0 40 -21 40 -45c0 -81 -68 -353 -304 -355c-109 0 -174 102 -174 264c0 152 73 269 153 340c59 52 115 79 160 79z" />
    <glyph glyph-name="H" unicode="H" horiz-adv-x="500" 
d="M145 298v-229c4 -12 7 -23 7 -33c0 -25 -21 -41 -45 -41c-43 0 -58 15 -58 39c0 7 4 29 10 30v228c-9 7 -16 21 -16 31c0 22 1 39 16 46v206c-4 10 -7 21 -7 28c0 26 27 42 60 42c13 0 41 -17 41 -41c0 -13 -1 -24 -8 -31v-191l209 13v176c-7 10 -8 26 -8 35
c0 26 27 39 51 39c20 0 50 -21 50 -37c0 -11 -2 -20 -7 -29v-515c4 -8 7 -21 7 -31c0 -22 -29 -38 -52 -38c-29 0 -51 19 -51 46c0 12 6 27 10 33v238z" />
    <glyph glyph-name="I" unicode="I" horiz-adv-x="205" 
d="M145 554v-479c7 -9 13 -20 13 -33c0 -22 -22 -47 -55 -47c-35 0 -58 18 -58 48c0 13 6 25 14 36v481c-9 5 -11 17 -11 28c0 34 32 57 62 57c39 0 50 -30 50 -53c0 -13 -4 -26 -15 -38z" />
    <glyph glyph-name="J" unicode="J" horiz-adv-x="422" 
d="M358 551v-411c0 -49 -22 -102 -60 -140c-36 -35 -87 -55 -145 -55c-85 0 -144 62 -144 154c0 34 16 74 48 74c34 0 57 -26 57 -49c0 -18 -8 -30 -16 -37c-3 -39 15 -60 55 -60c28 0 62 16 79 35c26 28 40 68 40 95v389c-10 7 -15 22 -15 38c0 45 29 56 60 56
c25 0 50 -23 50 -59c0 -14 -4 -25 -9 -30z" />
    <glyph glyph-name="K" unicode="K" horiz-adv-x="464" 
d="M146 348v-279c7 -5 11 -14 11 -26c2 -39 -30 -48 -54 -48c-28 0 -57 15 -55 50c1 13 5 21 12 27v501c-6 6 -7 16 -7 24c0 36 26 48 48 48c24 0 52 -12 52 -41c0 -14 -4 -24 -7 -27v-153h2c8 14 22 33 46 58l113 120c11 28 24 41 48 41c12 0 49 -12 49 -43
c-1 -17 -17 -43 -38 -47l-156 -161l219 -318c17 -3 32 -19 32 -32c0 -21 -28 -51 -59 -51c-35 0 -46 18 -46 34l-165 246c-21 31 -35 55 -43 77h-2z" />
    <glyph glyph-name="L" unicode="L" horiz-adv-x="365" 
d="M146 566v-496l124 19c8 7 25 14 33 14c18 0 43 -11 43 -44c0 -34 -17 -51 -39 -51c-7 0 -19 2 -28 5l-142 -23c-10 -2 -28 -5 -40 -5c-29 0 -51 13 -51 42c0 18 6 29 14 35v505c-3 7 -7 17 -7 25c0 40 25 53 53 53c24 0 49 -9 49 -52c0 -9 -6 -19 -9 -27z" />
    <glyph glyph-name="M" unicode="M" horiz-adv-x="637" 
d="M49 38c0 11 2 26 8 31v522c0 41 16 50 50 52c31 -2 42 -14 42 -35c0 -88 134 -295 158 -440h3c31 144 156 312 161 400c0 13 -2 35 -2 47c0 19 17 32 44 32c44 0 64 -18 64 -47c0 -10 -4 -23 -7 -29v-504c7 -7 9 -18 9 -27c0 -28 -26 -45 -53 -45c-35 0 -50 14 -50 37
c0 13 4 25 11 32c0 111 -1 228 2 341h-1c-58 -100 -141 -305 -141 -371c0 -23 -14 -34 -41 -34c-41 0 -50 27 -50 54c0 75 -61 234 -120 357h-1c3 -110 2 -226 2 -339c6 -7 11 -15 11 -34c0 -24 -18 -43 -52 -43c-32 0 -47 19 -47 43z" />
    <glyph glyph-name="N" unicode="N" horiz-adv-x="489" 
d="M60 67v501c-5 8 -8 20 -8 29c0 25 16 48 49 48c41 0 52 -11 52 -36c0 -22 12 -63 29 -102c21 -50 67 -126 98 -175c28 -45 58 -99 71 -130h1c-3 127 -3 254 -3 385c-2 6 -10 15 -10 25c0 33 22 44 43 44c25 0 54 -12 54 -36c0 -16 -4 -23 -7 -31v-536c5 -7 10 -15 10 -24
c0 -23 -10 -34 -51 -34c-29 0 -39 25 -49 57c-16 55 -70 155 -98 200c-36 57 -85 136 -102 185l-2 1c1 -122 3 -247 3 -371c4 -6 9 -17 9 -27c0 -31 -11 -45 -44 -45c-32 0 -58 11 -58 45c0 9 8 22 13 27z" />
    <glyph glyph-name="O" unicode="O" horiz-adv-x="489" 
d="M282 674c90 0 174 -84 174 -310c0 -220 -119 -383 -265 -383c-126 0 -166 151 -166 262c0 201 121 431 257 431zM270 598c-68 0 -156 -182 -156 -343c0 -91 25 -198 95 -198c75 0 158 130 158 304c0 157 -36 237 -97 237z" />
    <glyph glyph-name="P" unicode="P" horiz-adv-x="443" 
d="M52 35c0 12 2 20 12 31v378c-16 1 -28 14 -28 42c0 24 12 40 28 49v39c-4 5 -6 18 -6 26c0 22 29 40 48 40c31 0 49 -17 42 -48v-9c56 31 86 61 170 61c74 0 113 -44 113 -101c0 -89 -79 -217 -281 -258v-222c4 -7 11 -16 11 -26c0 -37 -9 -42 -62 -42
c-31 0 -47 18 -47 40zM150 498v-132c149 27 193 102 192 156c0 16 -18 40 -54 40c-46 0 -76 -16 -138 -64z" />
    <glyph glyph-name="Q" unicode="Q" horiz-adv-x="522" 
d="M321 668c109 0 155 -107 155 -265c0 -114 -20 -211 -60 -283c26 -33 54 -62 80 -81c15 -2 36 -11 36 -33c0 -33 -27 -50 -51 -50c-20 0 -31 2 -40 22c-24 16 -51 44 -79 77c-47 -46 -107 -70 -179 -70c-58 0 -155 46 -155 245c0 263 161 438 293 438zM309 594
c-84 0 -191 -141 -191 -365c0 -92 22 -169 80 -169c49 0 86 21 112 51c-29 32 -62 64 -96 86c-18 19 2 69 40 69c20 0 28 -9 36 -16c20 -18 38 -39 63 -69c25 62 35 140 35 232c0 90 -27 181 -79 181z" />
    <glyph glyph-name="R" unicode="R" horiz-adv-x="507" 
d="M51 47c0 8 9 23 13 31v400c-3 -2 -5 -2 -8 -2c-8 0 -20 10 -20 36c0 33 12 47 28 52v18c-3 7 -6 18 -6 28c0 25 26 43 53 43c23 0 47 -20 37 -50v-10c65 33 127 50 194 50c69 0 115 -39 115 -104c0 -81 -74 -176 -253 -213l255 -243c35 13 60 -20 60 -38
c0 -37 -31 -57 -59 -57c-16 0 -36 10 -44 28l-268 264v-206c3 -7 10 -20 10 -33c0 -37 -36 -46 -68 -46c-29 0 -39 28 -39 52zM148 521v-147c124 35 220 81 220 155c0 25 -20 39 -47 39c-46 0 -109 -12 -173 -47z" />
    <glyph glyph-name="S" unicode="S" horiz-adv-x="498" 
d="M285 648c66 0 128 -61 128 -99c0 -23 -7 -41 -39 -41c-37 0 -52 16 -51 36c-8 17 -29 29 -58 29c-71 0 -144 -81 -144 -156c0 -38 13 -52 35 -52s50 8 92 21c41 14 69 22 109 22c66 0 114 -44 114 -131c0 -57 -11 -105 -35 -143c-57 -92 -175 -149 -264 -149
c-103 0 -139 96 -139 127c0 27 20 55 49 55c31 0 34 -39 43 -63c10 -27 28 -44 55 -44c61 0 142 47 180 109c18 28 22 66 22 104c0 44 -17 58 -45 58c-31 0 -55 -8 -96 -22s-72 -21 -106 -21c-57 0 -103 31 -103 118c0 110 111 242 253 242z" />
    <glyph glyph-name="T" unicode="T" horiz-adv-x="382" 
d="M236 555v-489c3 -5 9 -15 9 -25c0 -26 -16 -46 -60 -46c-28 0 -41 14 -41 40c0 14 2 26 6 34v473l-80 -20c-8 -6 -18 -11 -31 -11c-25 0 -42 17 -42 41c0 28 18 48 37 48c16 0 21 -3 26 -5l96 23c11 14 48 21 66 13l103 22c12 5 19 7 30 7c20 0 38 -13 38 -45
c0 -24 -16 -46 -38 -46c-13 0 -21 3 -29 7z" />
    <glyph glyph-name="U" unicode="U" horiz-adv-x="500" 
d="M200 -17c-114 0 -143 79 -144 137v458c-17 32 6 62 40 62c38 0 42 -37 42 -54v-474c7 -24 29 -48 62 -48c103 0 150 77 150 104v414c-6 6 -9 13 -9 23c0 26 24 44 55 44c19 0 40 -11 40 -38c0 -7 0 -14 -4 -20v-434c0 -18 -17 -68 -43 -94c-54 -52 -117 -80 -189 -80z
" />
    <glyph glyph-name="V" unicode="V" horiz-adv-x="441" 
d="M191 181h2c30 118 112 314 148 392c11 46 26 58 51 58c26 0 44 -11 44 -49c0 -14 -7 -32 -16 -49c-49 -85 -87 -168 -105 -211c-48 -120 -79 -230 -79 -262c0 -51 -19 -69 -64 -67c-22 -2 -51 18 -48 38c0 19 4 34 4 51c0 53 -24 162 -52 273c-27 108 -44 184 -44 240
c0 28 17 45 47 45c37 0 41 -33 41 -71c0 -25 8 -75 39 -214c18 -79 26 -124 32 -174z" />
    <glyph glyph-name="W" unicode="W" horiz-adv-x="643" 
d="M155 -8c-21 0 -37 18 -37 85c0 77 -20 171 -39 255c-19 88 -41 175 -41 260c0 38 24 53 47 53c27 0 42 -17 42 -41c0 -12 -5 -28 -5 -43c0 -63 12 -127 25 -194c12 -57 27 -130 32 -199c12 57 32 129 53 196c27 90 37 171 36 217c0 39 13 52 37 53c41 2 47 -17 47 -67
c0 -56 22 -139 46 -221c17 -62 36 -124 47 -175c11 88 31 169 47 228c14 56 28 142 32 190c-5 6 -8 11 -8 24c0 19 8 45 49 45c30 0 50 -20 50 -36c0 -14 -1 -27 -3 -39c-10 -65 -28 -134 -48 -207c-25 -93 -53 -199 -65 -313c-5 -55 -14 -77 -51 -77c-39 0 -42 20 -49 79
c-3 30 -26 111 -51 200c-14 48 -27 97 -39 146c-15 -60 -31 -113 -46 -168c-23 -75 -46 -160 -46 -208c0 -24 -21 -43 -62 -43z" />
    <glyph glyph-name="X" unicode="X" horiz-adv-x="413" 
d="M65 -5c-21 0 -43 16 -43 40c0 17 9 34 22 39c29 62 89 192 126 266c-27 74 -60 153 -105 216c-16 22 -24 37 -24 46c0 28 17 43 31 43c17 0 34 -5 45 -15c33 -30 63 -118 96 -209c27 59 63 144 81 182c5 30 22 38 50 38c23 0 44 -18 44 -44c0 -25 -15 -40 -24 -51
c-28 -52 -72 -125 -117 -209c24 -63 80 -193 114 -265c7 -6 10 -18 10 -30c0 -33 -26 -47 -51 -47c-33 0 -41 26 -38 51c-23 59 -57 151 -77 208c-36 -78 -70 -182 -86 -221c-10 -23 -35 -38 -54 -38z" />
    <glyph glyph-name="Y" unicode="Y" horiz-adv-x="467" 
d="M190 80v243c-38 94 -113 145 -162 242c-16 8 -28 25 -28 44c0 29 35 46 58 47s44 -19 41 -45c20 -60 104 -145 135 -211h2c34 61 88 108 129 177c6 11 14 22 18 34c7 25 16 45 46 45c23 0 45 -12 45 -39c0 -15 -11 -34 -24 -55c-13 -20 -25 -36 -35 -50
c-46 -67 -110 -119 -139 -190v-253c4 -4 12 -14 12 -27c0 -23 -17 -47 -59 -47c-36 0 -50 8 -50 46c0 12 3 32 11 39z" />
    <glyph glyph-name="Z" unicode="Z" horiz-adv-x="457" 
d="M332 577l-180 -13c-10 -31 -30 -45 -53 -45c-30 0 -40 23 -40 40c0 50 25 94 64 94c13 0 22 -4 28 -11l214 12c16 1 25 4 36 4c21 0 41 -12 41 -30s-7 -39 -29 -72l-298 -487l217 9c0 33 24 53 48 53c16 0 48 -9 48 -55c0 -54 -26 -77 -47 -77s-45 1 -125 1
c-38 0 -53 -2 -105 -4c-52 -3 -69 -5 -84 -5c-37 0 -53 19 -53 49c0 11 4 27 17 44z" />
    <glyph glyph-name="bracketleft" unicode="[" horiz-adv-x="271" 
d="M142 -140l83 11c5 5 12 11 22 11c20 0 33 -24 33 -47c0 -27 -17 -36 -44 -39l-94 -11c-14 -5 -28 -9 -43 -9c-23 0 -44 13 -43 52v786c0 39 27 52 44 52c15 0 27 -3 39 -9l60 11c11 8 21 11 32 11c28 0 39 -21 39 -40c0 -38 -20 -51 -34 -51c-10 0 -18 1 -23 7l-74 -13
v-719z" />
    <glyph glyph-name="backslash" unicode="\" horiz-adv-x="266" 
d="M155 50l-125 537c-12 3 -19 19 -19 33c0 17 8 32 43 32c47 0 52 -21 50 -49l126 -538c18 -5 30 -12 30 -33c0 -36 -30 -49 -59 -49c-28 0 -53 17 -53 36c0 13 4 24 7 31z" />
    <glyph glyph-name="bracketright" unicode="]" horiz-adv-x="271" 
d="M129 587l-83 -11c-5 -5 -12 -11 -22 -11c-20 0 -33 24 -33 47c0 28 17 37 44 39l94 12c14 5 28 9 43 9c23 0 44 -12 43 -52v-786c0 -39 -27 -52 -44 -52c-15 0 -27 4 -39 9l-60 -10c-11 -8 -21 -12 -32 -12c-28 0 -39 21 -39 40c0 38 20 51 34 51c10 0 18 -1 23 -7l74 13
v719z" />
    <glyph glyph-name="asciicircum" unicode="^" horiz-adv-x="554" 
d="M378 422l-92 114l-112 -119c0 -21 -11 -53 -37 -53c-33 0 -66 23 -66 48c0 22 20 33 37 54l140 158c10 22 25 29 38 29c30 0 52 -31 58 -49l106 -141c14 -15 25 -31 25 -51s-13 -48 -57 -48c-20 0 -43 18 -40 58z" />
    <glyph glyph-name="underscore" unicode="_" horiz-adv-x="500" 
d="M500 -150h-500v75h500v-75z" />
    <glyph glyph-name="quoteleft" unicode="&#x2018;" horiz-adv-x="157" 
d="M73 455c-30 0 -46 23 -46 71c0 88 43 152 82 152c10 0 22 -6 22 -18c0 -20 -11 -25 -19 -26c-20 -2 -48 -35 -48 -82c8 10 17 17 30 17c23 0 38 -16 38 -52c0 -30 -22 -62 -59 -62z" />
    <glyph glyph-name="a" unicode="a" horiz-adv-x="386" 
d="M248 287v57c0 24 -5 37 -24 37c-32 0 -63 -18 -85 -38c2 -8 -11 -28 -38 -28c-26 0 -42 26 -42 46c0 18 23 43 44 39c38 29 91 50 161 50c33 0 65 -29 65 -83v-318c4 -3 7 -13 7 -21c0 -31 -34 -34 -58 -34c-32 0 -39 15 -39 28c0 7 3 15 7 21v44h-1
c-52 -74 -103 -106 -163 -106c-44 0 -72 33 -72 77c0 83 91 196 238 229zM246 194v32c-83 -20 -156 -98 -156 -144c0 -17 11 -22 23 -22c53 0 133 82 133 134z" />
    <glyph glyph-name="b" unicode="b" horiz-adv-x="390" 
d="M137 595v-236l2 -2c41 43 100 78 157 78c44 0 75 -31 75 -105c0 -139 -167 -344 -281 -344c-35 0 -51 8 -51 39c0 12 7 26 15 31v531c-10 12 -13 25 -13 37c0 23 40 33 62 33c21 0 42 -6 42 -35c0 -9 -3 -18 -8 -27zM137 278v-203c76 42 150 145 150 258
c0 25 -26 27 -34 27c-19 0 -71 -24 -116 -82z" />
    <glyph glyph-name="c" unicode="c" horiz-adv-x="372" 
d="M230 443c61 0 113 -35 113 -72c0 -31 -15 -49 -53 -49c-20 0 -25 13 -29 24s-10 24 -30 24c-27 0 -53 -23 -79 -60c-28 -38 -43 -91 -43 -156c0 -68 20 -98 61 -98c19 0 35 8 49 21c15 13 36 36 46 63c3 26 9 47 39 47c32 0 42 -25 42 -40c0 -9 -23 -68 -66 -113
c-35 -36 -81 -53 -126 -53c-84 0 -128 67 -128 158c0 111 24 157 68 222c24 35 86 82 136 82z" />
    <glyph glyph-name="d" unicode="d" horiz-adv-x="420" 
d="M284 398v184c-10 4 -14 18 -14 35c0 22 22 39 55 39c30 0 45 -20 45 -43l-3 -34v-524c5 -2 13 -11 13 -22c0 -29 -15 -39 -56 -39c-33 0 -45 13 -45 36c0 10 0 19 5 22v71c-39 -71 -118 -142 -183 -142c-55 0 -93 45 -93 121c0 156 125 312 230 312c19 0 33 -5 46 -16z
M233 341c-61 0 -140 -142 -140 -223c0 -30 7 -55 39 -55c31 0 69 39 100 86c28 42 48 69 48 124c0 36 -9 68 -47 68z" />
    <glyph glyph-name="e" unicode="e" horiz-adv-x="371" 
d="M234 442c83 0 113 -77 113 -120c0 -48 -29 -84 -198 -122l-34 -8c-5 -19 -7 -39 -7 -61c0 -51 16 -71 48 -71c46 0 92 39 100 67c-3 24 15 42 44 42c35 0 41 -23 41 -40c0 -27 -78 -144 -197 -144c-64 0 -117 35 -117 139c0 184 103 318 207 318zM229 367
c-48 0 -84 -53 -100 -107c128 27 145 40 145 55c0 27 -15 52 -45 52z" />
    <glyph glyph-name="f" unicode="f" horiz-adv-x="265" 
d="M80 52v285l-34 -6c-5 -4 -10 -6 -16 -6c-13 0 -30 9 -30 47c0 14 9 39 26 39c8 0 15 -3 21 -4l33 6c0 174 18 255 117 255c42 0 98 -49 98 -77c0 -22 -13 -46 -37 -46c-21 0 -35 18 -35 31c-5 10 -18 17 -32 17c-18 0 -28 -33 -28 -166l71 12c6 2 11 11 23 11
c21 0 36 -18 36 -38c0 -25 -9 -49 -28 -49c-7 0 -16 2 -20 4l-82 -14v-296c4 -8 9 -19 9 -27c0 -24 -20 -35 -49 -35c-34 0 -48 14 -48 39c0 7 3 13 5 18z" />
    <glyph glyph-name="g" unicode="g" horiz-adv-x="384" 
d="M332 383v-397c0 -133 -85 -199 -162 -199c-61 0 -115 31 -115 64c0 31 16 51 38 51c18 0 30 -12 33 -28c13 -11 31 -15 48 -15c43 0 75 34 75 134c0 45 2 91 2 137c-34 -90 -85 -149 -141 -149c-61 0 -91 55 -91 116c0 155 90 338 260 338c32 0 53 -14 53 -52zM121 59
c30 0 86 63 112 181c8 36 14 78 16 123v1c-88 0 -149 -135 -149 -256c0 -28 7 -49 21 -49z" />
    <glyph glyph-name="h" unicode="h" horiz-adv-x="380" 
d="M246 60v237c0 30 -3 40 -15 40c-17 0 -48 -12 -93 -78v-197c4 -8 8 -16 8 -28c0 -24 -32 -39 -62 -39c-29 0 -36 9 -36 32c0 14 2 26 7 31v524c0 9 -8 19 -8 29c0 29 25 47 55 47c16 0 43 -22 43 -44c0 -11 -3 -20 -7 -29v-233h2c53 56 98 83 135 83c41 0 54 -27 54 -88
v-290c1 -5 8 -12 8 -21c0 -24 -29 -41 -51 -41c-31 0 -49 13 -49 32c0 11 2 25 9 33z" />
    <glyph glyph-name="i" unicode="i" horiz-adv-x="189" 
d="M111 626c23 0 39 -16 39 -45c0 -56 -27 -91 -57 -91s-40 19 -40 49c0 47 20 87 58 87zM146 391c0 -19 -7 -28 -10 -33v-291c4 -2 11 -14 11 -24c0 -31 -36 -48 -64 -48c-25 0 -41 20 -41 46c0 16 7 26 11 30v283c-6 6 -9 17 -9 26c0 27 2 57 57 57c22 0 45 -27 45 -46z
" />
    <glyph glyph-name="j" unicode="j" horiz-adv-x="203" 
d="M128 628c33 0 33 -32 33 -62s-7 -80 -57 -80c-26 0 -41 33 -41 74c0 35 28 68 65 68zM150 342v-441c0 -107 -64 -150 -129 -150c-77 0 -113 74 -113 96c0 25 14 54 47 54c17 0 43 -11 37 -48c4 -12 17 -27 30 -27c31 0 45 27 45 94v423c-5 6 -14 23 -14 37
c0 39 22 58 66 58c27 0 46 -19 46 -56c0 -16 -8 -28 -15 -40z" />
    <glyph glyph-name="k" unicode="k" horiz-adv-x="367" 
d="M135 590v-316l2 -2c22 38 38 61 54 82l59 82c-1 19 15 36 35 36c38 0 50 -25 50 -46c0 -18 -15 -33 -28 -33l-109 -153l115 -172c16 1 33 -12 33 -30c0 -27 -22 -47 -61 -47c-14 0 -27 12 -30 32l-75 112c-12 19 -27 39 -43 75l-2 -2v-133c3 -9 11 -21 11 -32
c0 -35 -18 -48 -55 -48c-21 0 -49 8 -49 51c0 6 1 21 10 27v513c-6 3 -11 19 -11 27c0 18 3 44 53 44c37 0 49 -15 49 -43c0 -6 -2 -19 -8 -24z" />
    <glyph glyph-name="l" unicode="l" horiz-adv-x="189" 
d="M53 67v506c-4 9 -9 22 -9 34c0 40 9 49 54 49c24 0 53 -15 53 -45c0 -16 -6 -31 -15 -44v-505c9 -7 14 -17 14 -27c0 -17 -25 -40 -55 -40c-27 0 -50 18 -50 45c0 10 4 18 8 27z" />
    <glyph glyph-name="m" unicode="m" horiz-adv-x="589" 
d="M136 265v-201c4 -7 8 -14 8 -26c0 -28 -11 -43 -48 -43c-35 0 -52 12 -52 48c0 12 6 20 9 27v308c-3 6 -10 16 -10 36c0 25 16 41 59 41c30 0 40 -18 40 -40c0 -11 -1 -20 -6 -31v-36c42 43 110 107 147 107c33 0 48 -26 48 -67v-41c68 63 131 108 164 108
c22 0 41 -15 41 -47v-348c10 -7 11 -11 11 -24c0 -28 -34 -41 -58 -41c-30 0 -45 5 -45 40c0 13 4 20 9 23v278c0 12 -4 21 -12 21c-17 0 -48 -26 -110 -86v-212c0 -54 -16 -64 -56 -64c-29 0 -43 12 -43 38c0 7 6 22 16 31v270c0 14 -4 18 -13 18c-14 0 -52 -35 -99 -87z
" />
    <glyph glyph-name="n" unicode="n" horiz-adv-x="380" 
d="M140 279v-227c5 -6 7 -12 7 -23c0 -25 -33 -34 -56 -34c-22 0 -45 9 -45 32c0 13 3 18 11 27v167c-7 4 -14 18 -14 32c0 17 5 35 14 56v77c-5 10 -7 19 -7 31c0 18 27 38 53 38c34 0 47 -10 47 -30c0 -14 -6 -26 -10 -31v-34c85 83 108 95 135 95c25 0 56 -28 56 -57
v-340c2 -5 6 -10 6 -23c0 -29 -17 -40 -52 -40c-33 0 -45 13 -45 36c0 11 3 16 8 24v288c0 6 -10 15 -16 15c-7 0 -24 -9 -92 -79z" />
    <glyph glyph-name="o" unicode="o" horiz-adv-x="389" 
d="M243 447c95 0 118 -117 118 -189c0 -84 -41 -158 -60 -182c-60 -76 -99 -95 -167 -95c-41 0 -107 45 -107 159c0 177 98 307 216 307zM223 372c-55 0 -112 -105 -112 -217c0 -58 17 -99 44 -99c30 0 55 18 80 52c26 37 42 88 42 146c0 67 -13 118 -54 118z" />
    <glyph glyph-name="p" unicode="p" horiz-adv-x="401" 
d="M136 376v-51h1c43 73 87 110 154 110c47 0 88 -45 88 -129c0 -199 -109 -318 -199 -318c-17 0 -33 6 -44 19v-230c5 -7 9 -16 9 -28c0 -28 -18 -40 -60 -40c-20 0 -41 4 -41 34c0 16 4 28 9 36v590c-6 7 -9 18 -9 28c0 31 22 44 44 44c38 0 55 -13 55 -40
c0 -10 -6 -20 -7 -25zM136 197v-105c9 -22 21 -32 40 -32c55 0 119 112 119 234c0 36 -9 65 -35 65c-16 0 -39 -16 -73 -65c-18 -26 -38 -60 -51 -97z" />
    <glyph glyph-name="q" unicode="q" horiz-adv-x="401" 
d="M267 -236v381h-1c-28 -80 -82 -153 -149 -153c-12 0 -96 3 -96 138c0 192 104 306 206 306c80 0 122 -25 122 -50v-576c15 14 31 32 44 51c2 12 13 20 27 20c16 0 29 -10 29 -35c0 -33 -104 -138 -132 -138c-34 0 -50 18 -50 56zM221 361c-40 0 -116 -71 -116 -204
c0 -78 25 -90 34 -90c43 0 108 106 130 281c-10 9 -25 13 -48 13z" />
    <glyph glyph-name="r" unicode="r" horiz-adv-x="308" 
d="M53 57v324l-7 25c0 17 23 33 53 33c25 0 43 -13 43 -30c0 -7 1 -14 -6 -22v-29h1c43 46 82 79 114 79c26 0 55 -26 55 -120c0 -25 -11 -43 -45 -43c-25 0 -41 9 -41 26c0 8 2 18 5 26c0 10 -3 21 -10 21c-8 0 -45 -33 -79 -86v-195c6 -5 12 -16 12 -27
c0 -30 -14 -44 -66 -44c-28 0 -42 12 -42 39c0 9 7 18 13 23z" />
    <glyph glyph-name="s" unicode="s" horiz-adv-x="399" 
d="M255 455c39 0 83 -17 83 -53c0 -26 -16 -37 -35 -37c-14 0 -15 4 -19 10c-3 5 -9 9 -28 9c-85 0 -136 -56 -136 -98c0 -18 9 -28 21 -28c19 0 43 14 66 22c25 9 52 22 79 22c52 0 90 -39 90 -102c0 -157 -166 -211 -220 -211c-52 0 -111 33 -111 78c0 29 15 56 47 56
c24 0 33 -17 33 -27c0 -7 -2 -12 -4 -16c6 -10 21 -19 40 -19c37 0 132 42 132 123c0 26 -10 43 -29 43c-23 0 -41 -13 -66 -22c-26 -10 -48 -22 -88 -22c-47 0 -73 46 -73 93c0 96 116 179 218 179z" />
    <glyph glyph-name="t" unicode="t" horiz-adv-x="368" 
d="M100 436v78c-4 4 -6 8 -6 22c0 24 19 34 57 34c17 0 42 -3 42 -28c0 -7 -3 -16 -10 -24v-66l83 17c5 5 10 8 17 8c24 0 34 -22 34 -37c0 -28 -10 -47 -31 -47c-7 0 -13 0 -16 5l-87 -17v-283c0 -11 1 -23 11 -23s65 46 91 92c-1 23 13 38 34 38c38 0 46 -18 46 -43
c0 -36 -132 -175 -203 -175c-39 0 -62 35 -62 73v303l-40 -7c-5 -5 -11 -7 -20 -9c-25 2 -38 18 -38 46c0 23 16 40 38 40c7 0 14 -3 17 -5z" />
    <glyph glyph-name="u" unicode="u" horiz-adv-x="380" 
d="M136 377v-280c0 -10 10 -25 20 -25c20 0 62 39 88 80v231c-3 6 -6 12 -6 20c0 23 12 32 42 32s53 -3 47 -52v-327c4 -6 8 -15 8 -25c0 -22 -15 -36 -60 -36c-23 0 -36 11 -36 28c0 8 4 16 7 22v19c-33 -42 -81 -82 -126 -81c-33 1 -67 34 -67 73v321c0 5 -5 12 -5 21
c0 31 23 40 53 40c20 0 42 -10 42 -38c0 -10 -3 -17 -7 -23z" />
    <glyph glyph-name="v" unicode="v" horiz-adv-x="330" 
d="M131 -9c-18 0 -47 10 -48 59c0 20 -7 59 -23 120c-21 85 -36 152 -36 202c-4 4 -7 13 -7 21c0 21 20 43 52 43c33 0 45 -27 45 -35c0 -12 -5 -25 -9 -30c1 -44 8 -90 18 -141l19 -102c16 54 37 109 49 138c14 36 28 70 46 123c12 38 26 54 54 54c22 0 38 -10 38 -39
c0 -35 -28 -82 -68 -162c-43 -86 -61 -134 -82 -206c-10 -34 -23 -45 -48 -45z" />
    <glyph glyph-name="w" unicode="w" horiz-adv-x="497" 
d="M113 414c0 -14 -4 -19 -8 -27l36 -240h2l75 209c-7 15 -10 25 -10 41c0 21 16 36 47 36c27 0 42 -19 42 -80l51 -204h2c4 35 20 79 30 107c14 38 25 85 18 120c-3 6 -7 16 -7 25c0 24 28 40 57 40c19 0 37 -16 37 -35c0 -12 -4 -21 -11 -28c-3 -60 -10 -104 -27 -149
c-26 -67 -49 -132 -57 -201c5 -23 -1 -35 -38 -35c-32 0 -46 15 -46 35l-53 229l-78 -213c0 -39 -18 -51 -47 -51c-30 0 -41 18 -41 57l-52 321c-6 6 -9 18 -9 28c0 35 22 48 40 48c30 0 47 -9 47 -33z" />
    <glyph glyph-name="x" unicode="x" horiz-adv-x="340" 
d="M171 155l-78 -135c0 -15 0 -31 -35 -31c-15 0 -47 15 -47 47c0 21 9 30 20 30c30 50 59 99 89 148c-21 22 -64 81 -94 148c-7 3 -14 12 -14 28c0 22 28 46 55 46c28 0 34 -22 34 -39c14 -48 42 -84 64 -113c24 41 48 83 70 123c0 16 6 36 34 36c22 0 50 -21 50 -45
c0 -14 -7 -24 -17 -31c-29 -48 -58 -96 -87 -145c60 -77 116 -161 116 -200c0 -22 -17 -38 -40 -38c-15 0 -27 6 -37 30c-17 43 -49 100 -83 141z" />
    <glyph glyph-name="y" unicode="y" horiz-adv-x="369" 
d="M163 28l-141 331c-12 10 -18 18 -18 36c0 25 33 40 50 40c34 0 46 -27 44 -49l101 -251l78 260c0 18 10 43 41 43c28 0 51 -15 51 -39c0 -13 -6 -24 -19 -31l-144 -438c-36 -114 -74 -131 -120 -131c-43 0 -84 29 -97 91c-3 16 -12 12 -12 32c0 22 16 38 41 38
c30 0 47 -8 47 -35c0 -9 -4 -15 -5 -22c0 -14 10 -31 26 -31c20 0 39 35 77 156z" />
    <glyph glyph-name="z" unicode="z" horiz-adv-x="358" 
d="M32 62l197 291h-126c-1 -39 -18 -54 -36 -54c-15 0 -37 5 -37 41c0 64 20 85 55 85h175c12 10 22 14 42 14s39 -15 39 -34c0 -14 -3 -29 -13 -44l-200 -289h132c5 25 18 47 42 47c17 0 34 -8 34 -56c0 -53 -25 -71 -47 -71c-11 0 -23 4 -29 8h-173c-10 -6 -21 -8 -33 -8
c-27 0 -44 9 -44 31c0 15 7 35 22 39z" />
    <glyph glyph-name="braceleft" unicode="{" horiz-adv-x="291" 
d="M205 -230c-75 0 -113 47 -112 122c0 40 9 87 9 131c0 133 -10 172 -72 172c-20 0 -29 13 -29 38s8 43 34 43c68 0 79 41 79 222c0 122 54 185 134 185c37 0 44 -15 44 -35c0 -31 -12 -42 -45 -42c-35 0 -50 -45 -50 -105v-99c0 -74 -20 -164 -77 -170
c57 -13 65 -75 65 -212c0 -46 -10 -87 -10 -121c0 -36 10 -54 30 -54c30 0 37 12 57 12c18 0 30 -18 30 -46c0 -27 -12 -41 -87 -41z" />
    <glyph glyph-name="bar" unicode="|" horiz-adv-x="258" 
d="M88 -182v853c-7 13 -10 21 -10 41c0 24 18 38 60 38c29 0 46 -10 46 -37c0 -18 -3 -36 -13 -42v-853c11 -8 15 -22 15 -34c0 -22 -21 -34 -49 -34c-31 0 -55 10 -55 44c0 9 3 16 6 24z" />
    <glyph glyph-name="braceright" unicode="}" horiz-adv-x="291" 
d="M82 683c75 0 113 -47 112 -122c0 -40 -9 -87 -9 -130c0 -134 10 -173 72 -173c20 0 29 -13 29 -38s-8 -43 -34 -43c-68 0 -79 -41 -79 -222c0 -122 -54 -185 -134 -185c-37 0 -44 16 -44 35c0 32 12 42 45 42c35 0 50 45 50 105v99c0 74 20 164 77 170
c-57 13 -65 75 -65 212c0 46 10 87 10 121c0 36 -10 54 -30 54c-30 0 -37 -12 -57 -12c-18 0 -30 18 -30 46c0 27 12 41 87 41z" />
    <glyph glyph-name="asciitilde" unicode="~" horiz-adv-x="554" 
d="M356 128c-49 0 -72 20 -114 72c-20 23 -28 35 -48 35c-24 0 -44 -27 -59 -58c-9 -20 -24 -47 -40 -47c-25 0 -57 9 -57 40c0 23 11 41 28 51c45 74 83 100 141 100c43 0 66 -26 96 -66c25 -32 35 -42 52 -42c35 0 45 14 48 49c5 50 14 70 42 70c23 0 47 -17 47 -42
c0 -100 -71 -162 -136 -162z" />
    <glyph glyph-name="exclamdown" unicode="&#xa1;" horiz-adv-x="208" 
d="M116 441c20 0 37 -22 37 -43c0 -35 -28 -71 -61 -71c-25 0 -37 15 -37 54c0 38 12 60 61 60zM60 -160v350c-7 7 -10 24 -10 43c0 23 34 44 68 44c29 0 40 -28 40 -46c0 -16 -6 -30 -12 -36v-351c7 -11 13 -18 13 -34c0 -34 -13 -49 -72 -49c-27 0 -39 11 -39 42
c0 20 7 31 12 37z" />
    <glyph glyph-name="cent" unicode="&#xa2;" horiz-adv-x="518" 
d="M249 482v-279c24 11 46 33 57 64c-7 25 2 40 30 40c27 0 43 -11 43 -32c0 -54 -58 -120 -130 -152v-126c4 -4 12 -14 12 -25c0 -17 -14 -29 -44 -29c-23 0 -39 4 -39 26c0 9 6 23 9 29v112c-6 -2 -17 -3 -23 -3c-69 0 -121 80 -121 165c0 141 50 220 144 263v82
c-4 5 -11 12 -11 22c0 15 21 31 54 31c18 0 32 -12 32 -36c0 -7 -7 -13 -13 -16v-67c9 3 19 5 35 5c53 0 87 -52 87 -78c0 -31 -29 -45 -47 -45c-15 0 -23 5 -24 19c0 14 -9 36 -22 36c-8 0 -20 -1 -29 -6zM123 286c0 -57 19 -104 46 -104c5 0 14 2 18 3v273
c-44 -36 -64 -87 -64 -172z" />
    <glyph glyph-name="sterling" unicode="&#xa3;" horiz-adv-x="518" 
d="M333 303l-118 -10c-7 -87 -26 -160 -57 -195c75 5 128 -42 190 -42c29 0 49 31 61 71c-5 4 -5 9 -5 16c0 18 6 40 32 40c29 0 55 -23 55 -45c0 -9 -3 -21 -13 -24c-31 -102 -76 -133 -131 -133c-73 0 -109 47 -196 47c-21 0 -39 -4 -60 -16c-22 -11 -34 -19 -52 -19
s-32 20 -32 48c0 30 14 33 32 41c21 8 43 21 60 54c14 28 27 77 32 150c-14 -1 -46 -5 -60 -5c-20 0 -33 22 -33 44c0 15 17 30 35 31l62 5c14 238 80 286 164 286c42 0 71 -17 101 -46c12 3 30 -12 30 -27c0 -44 -37 -53 -57 -53c-16 0 -27 13 -27 27c-14 15 -26 23 -50 23
c-39 0 -67 -43 -77 -203l116 10c8 4 17 6 27 6c17 0 28 -19 28 -39c0 -41 -22 -52 -35 -52c-9 0 -17 4 -22 10z" />
    <glyph glyph-name="fraction" unicode="&#x2044;" horiz-adv-x="200" 
d="M-70 24c0 34 24 34 29 45l221 540c2 29 16 48 38 48c24 0 57 -18 57 -41c0 -20 -16 -35 -26 -39l-223 -542c-1 -34 -31 -47 -51 -47c-38 0 -45 18 -45 36z" />
    <glyph glyph-name="yen" unicode="&#xa5;" horiz-adv-x="518" 
d="M193 72v35l-60 -5c-8 -6 -22 -13 -36 -13c-20 0 -33 13 -33 46c0 23 18 40 33 40c11 0 27 -3 33 -5l63 5v64l-61 -4c-8 -7 -25 -14 -34 -14c-20 0 -34 14 -34 49c0 23 18 37 33 37c13 0 23 -2 33 -5l63 5v16c-38 94 -113 145 -162 242c-16 8 -28 25 -28 44
c0 29 35 46 58 47s44 -19 41 -45c20 -60 104 -145 135 -211h2c34 61 88 108 129 177c6 11 14 22 18 34c7 25 16 45 46 45c23 0 45 -12 45 -39c0 -15 -11 -34 -24 -55c-13 -20 -25 -36 -35 -50c-46 -67 -110 -119 -139 -190v-11l82 5c10 8 23 11 32 11c15 0 30 -10 30 -36
c0 -27 -16 -48 -38 -48c-6 0 -17 1 -23 5l-83 -5v-63l82 6c10 8 24 10 33 10c15 0 29 -12 29 -36c0 -28 -10 -48 -38 -48c-6 0 -17 1 -22 6l-84 -6v-43c4 -4 12 -14 12 -26c0 -24 -17 -48 -59 -48c-36 0 -50 8 -50 46c0 12 3 25 11 31z" />
    <glyph glyph-name="florin" unicode="&#x192;" horiz-adv-x="518" 
d="M226 385l73 5c3 8 14 12 24 12c21 0 34 -19 34 -36c0 -29 -15 -55 -41 -55c-8 0 -14 4 -19 7l-82 -5c-58 -392 -87 -473 -191 -472c-82 1 -79 45 -92 84c-7 4 -14 15 -14 31c0 25 13 45 43 45c26 1 43 -13 42 -28c0 -7 0 -14 -5 -19c1 -23 6 -38 29 -38
c36 0 49 51 102 392l-52 -4c-5 -4 -15 -7 -21 -7c-18 0 -29 21 -29 45c0 18 17 36 36 36c6 0 13 -1 18 -3l58 3c41 268 112 292 168 292c68 0 87 -68 87 -87c0 -22 -14 -44 -35 -44c-27 0 -37 10 -34 26c2 18 -6 30 -27 30c-23 0 -49 -50 -72 -210z" />
    <glyph glyph-name="section" unicode="&#xa7;" horiz-adv-x="469" 
d="M278 647c78 0 132 -52 132 -81c0 -20 -26 -48 -53 -48c-26 0 -33 14 -32 27c-10 14 -26 26 -57 26c-60 0 -125 -47 -125 -114c0 -29 12 -45 39 -45c38 0 89 15 136 15c71 0 117 -37 117 -127c0 -34 -12 -69 -28 -93c9 -15 15 -35 15 -57c0 -131 -122 -221 -246 -221
c-108 0 -147 78 -147 122c0 24 17 47 42 47c21 0 36 -13 38 -38c0 -23 28 -55 66 -55c90 0 158 57 158 136c0 31 -15 51 -48 51c-31 0 -90 -23 -142 -23c-67 0 -107 55 -107 105c0 39 11 74 35 108c-9 14 -17 34 -17 58c0 145 130 207 224 207zM297 352
c-37 0 -89 -17 -119 -17c-14 0 -28 2 -38 5c-9 -12 -16 -35 -16 -55c0 -28 23 -39 44 -39c37 0 93 21 125 21c21 0 33 -3 46 -10c4 12 8 28 8 43c0 35 -18 52 -50 52z" />
    <glyph glyph-name="currency" unicode="&#xa4;" horiz-adv-x="554" 
d="M262 75c-50 0 -90 20 -106 37l-30 -28c-2 -14 -11 -29 -37 -29c-23 0 -45 16 -45 48c0 14 10 36 31 38l28 26c-11 17 -32 60 -32 134c0 91 25 124 37 140l-36 42c-13 4 -26 19 -26 37c0 35 23 46 43 46c30 0 44 -18 44 -37l26 -31c35 28 84 45 138 45c40 0 74 -17 98 -41
l31 34c3 15 11 30 37 30c24 0 45 -16 45 -48c0 -16 -11 -36 -30 -38l-32 -34c18 -28 39 -79 39 -129c0 -53 -16 -105 -40 -140l32 -33c14 -3 30 -21 30 -39c0 -36 -24 -47 -44 -47c-29 0 -44 18 -44 37l-26 26c-28 -22 -73 -46 -131 -46zM264 156c78 0 140 79 140 159
c0 61 -46 147 -112 147c-79 0 -140 -69 -140 -165c0 -71 39 -141 112 -141z" />
    <glyph glyph-name="quotesingle" unicode="'" horiz-adv-x="157" 
d="M113 595v-91c4 -10 6 -25 6 -39c0 -23 -14 -44 -50 -44c-20 0 -36 3 -36 31c0 17 10 32 19 41v98c-6 8 -15 18 -15 29c0 29 15 52 51 52c27 0 38 -26 38 -40c0 -15 -4 -29 -13 -37z" />
    <glyph glyph-name="quotedblleft" unicode="&#x201c;" horiz-adv-x="304" 
d="M73 455c-30 0 -46 23 -46 71c0 88 43 152 82 152c10 0 22 -6 22 -18c0 -20 -11 -25 -19 -26c-20 -2 -48 -35 -48 -82c8 10 17 17 30 17c23 0 38 -16 38 -52c0 -30 -22 -62 -59 -62zM220 455c-30 0 -46 23 -46 71c0 88 43 152 82 152c10 0 22 -6 22 -18
c0 -20 -11 -25 -19 -26c-20 -2 -48 -35 -48 -82c8 10 17 17 30 17c23 0 38 -16 38 -52c0 -30 -22 -62 -59 -62z" />
    <glyph glyph-name="guillemotleft" unicode="&#xab;" horiz-adv-x="395" 
d="M96 105l-63 133c-11 10 -17 29 -17 43s9 35 20 44l95 138c3 15 18 29 45 29c21 0 49 -16 49 -40c0 -18 -14 -36 -28 -39l-93 -134l61 -126c12 0 25 -15 25 -38c0 -25 -25 -43 -45 -43c-21 0 -41 8 -49 33zM260 105l-63 133c-10 10 -17 29 -17 43s9 35 20 44l96 138
c2 15 17 29 45 29c20 0 48 -16 48 -40c0 -18 -13 -36 -27 -39l-94 -134l61 -126c12 0 25 -15 25 -38c0 -25 -25 -43 -44 -43c-22 0 -42 8 -50 33z" />
    <glyph glyph-name="guilsinglleft" unicode="&#x2039;" horiz-adv-x="228" 
d="M93 104l-63 133c-11 10 -17 30 -17 44s9 34 20 44l96 138c2 15 17 29 45 29c20 0 48 -16 48 -40c0 -18 -13 -37 -27 -40l-94 -134l61 -126c12 0 25 -15 25 -38c0 -25 -25 -43 -45 -43c-21 0 -41 8 -49 33z" />
    <glyph glyph-name="guilsinglright" unicode="&#x203a;" horiz-adv-x="228" 
d="M127 283l-67 128c-18 5 -25 18 -25 38c0 25 25 43 43 43c21 0 41 -8 50 -33l70 -134c10 -10 17 -29 17 -44c0 -14 -8 -34 -19 -44l-86 -132c1 -20 -19 -34 -47 -34c-21 0 -49 16 -49 40c0 18 14 37 27 40z" />
    <glyph glyph-name="fi" unicode="&#xfb01;" horiz-adv-x="404" 
d="M269 369l-109 -22v-287c6 -6 10 -17 10 -28c0 -25 -17 -37 -52 -37c-29 0 -48 13 -48 34c0 10 6 16 7 24v279l-27 -6c-4 -2 -10 -7 -18 -7c-12 0 -27 10 -27 47c0 18 10 36 30 36c7 0 13 -2 19 -4l23 5c0 182 29 265 121 265c108 0 153 -82 153 -115
c0 -13 -12 -47 -51 -47c-18 0 -45 9 -45 40c0 4 3 9 7 12c-8 18 -26 36 -60 36c-28 0 -42 -41 -42 -176l106 21c11 2 28 16 49 16c23 0 45 -20 45 -41c0 -13 -5 -27 -8 -31v-315c4 -7 12 -15 12 -25c0 -33 -36 -48 -60 -48s-47 14 -47 47c0 11 8 24 12 31v296z" />
    <glyph glyph-name="fl" unicode="&#xfb02;" horiz-adv-x="405" 
d="M269 369l-109 -21v-290c5 -6 11 -17 11 -27c0 -27 -26 -36 -57 -36c-21 0 -44 13 -44 38c0 6 4 14 7 20v280l-27 -6c-4 -2 -12 -5 -20 -5c-13 0 -25 10 -25 43c0 25 13 38 28 38c9 0 15 -2 21 -4l23 5c0 186 33 264 128 264c23 0 51 -7 79 -25c8 5 21 4 28 3
c25 1 54 -14 54 -43c0 -17 -5 -33 -14 -45v-495c8 -6 14 -17 14 -27c0 -14 -19 -41 -55 -41c-35 0 -50 18 -50 45c0 11 5 17 8 25v304zM160 419l109 22v116c-2 5 -4 10 -7 13c-12 15 -28 23 -53 23c-31 0 -49 -35 -49 -174z" />
    <glyph glyph-name="endash" unicode="&#x2013;" horiz-adv-x="500" 
d="M100 319h294c7 8 15 12 26 12c24 0 40 -20 40 -50c0 -22 -17 -48 -36 -48c-15 0 -22 5 -26 11h-291c-10 -11 -19 -15 -32 -15c-18 0 -35 23 -35 51c0 31 18 51 37 51c11 0 18 -4 23 -12z" />
    <glyph glyph-name="dagger" unicode="&#x2020;" horiz-adv-x="380" 
d="M232 583v-113h47c9 7 22 15 33 14c27 0 41 -28 41 -51c0 -33 -26 -49 -51 -49c-8 0 -13 6 -21 11h-49v-336c6 -6 14 -16 14 -32c0 -36 -29 -41 -50 -41c-35 0 -57 16 -57 45c0 15 6 29 10 37v327h-46c-11 -5 -22 -14 -35 -15c-24 0 -39 23 -39 48c0 32 18 52 39 52
c9 0 19 -5 30 -10h51v108c-7 9 -12 23 -12 40c0 23 24 36 53 36c30 0 48 -25 48 -42c0 -13 -1 -21 -6 -29z" />
    <glyph glyph-name="daggerdbl" unicode="&#x2021;" horiz-adv-x="380" 
d="M232 580v-99h54c12 6 22 13 32 13c24 0 34 -20 34 -46c0 -33 -19 -51 -42 -51c-10 0 -19 5 -24 9h-54v-167h53c13 7 24 12 36 12c23 0 31 -21 31 -48c0 -33 -21 -48 -41 -48c-9 0 -17 4 -25 9h-54v-107c6 -4 14 -15 14 -29c0 -34 -26 -42 -50 -42c-37 0 -54 18 -54 45
c0 14 3 26 7 32v101h-49c-7 -6 -17 -15 -29 -15c-29 0 -41 25 -41 43c0 34 16 57 41 57c10 0 19 -5 26 -10h52v167h-50c-9 -5 -20 -14 -32 -14c-27 0 -37 28 -37 46c0 29 17 52 37 52c15 0 23 -4 31 -9h51v97c-8 10 -14 23 -14 37c0 29 29 39 58 39c31 0 46 -22 46 -44
c0 -9 -3 -21 -7 -30z" />
    <glyph glyph-name="periodcentered" unicode="&#xb7;" horiz-adv-x="201" 
d="M79 155c-19 0 -43 18 -43 56c0 28 20 63 56 63c25 0 43 -16 43 -56c0 -31 -16 -63 -56 -63z" />
    <glyph glyph-name="paragraph" unicode="&#xb6;" horiz-adv-x="460" 
d="M198 42v304c-25 -5 -38 -10 -71 -10c-76 0 -113 43 -113 94c0 121 190 216 322 215c11 7 20 10 30 10c40 0 51 -12 51 -39c0 -13 -3 -23 -10 -27v-538c4 -5 12 -17 12 -27c0 -29 -27 -36 -60 -36c-23 0 -31 7 -31 32c0 7 2 15 4 22v540c-15 0 -36 -3 -59 -8v-531
c6 -5 12 -11 12 -23c0 -19 -35 -36 -56 -36c-27 0 -42 12 -42 29c0 16 4 23 11 29zM198 418v133c-72 -31 -100 -74 -100 -112c0 -20 18 -32 47 -32c20 0 30 3 53 11z" />
    <glyph glyph-name="bullet" unicode="&#x2022;" horiz-adv-x="282" 
d="M114 187c-54 0 -81 70 -81 107c0 139 82 151 124 151s84 -10 84 -121c0 -112 -92 -137 -127 -137z" />
    <glyph glyph-name="quotesinglbase" unicode="&#x201a;" horiz-adv-x="157" 
d="M131 34c0 -87 -43 -150 -82 -150c-10 0 -22 6 -22 18c0 20 11 25 19 26c20 2 48 34 48 81c-8 -10 -17 -17 -30 -17c-23 0 -38 16 -38 52c0 30 22 62 58 62c31 0 47 -23 47 -72z" />
    <glyph glyph-name="quotedblbase" unicode="&#x201e;" horiz-adv-x="304" 
d="M131 34c0 -87 -43 -150 -82 -150c-10 0 -22 6 -22 18c0 20 11 25 19 26c20 2 48 34 48 81c-8 -10 -17 -17 -30 -17c-23 0 -38 16 -38 52c0 30 22 62 58 62c31 0 47 -23 47 -72zM278 34c0 -87 -43 -150 -82 -150c-10 0 -22 6 -22 18c0 20 11 25 19 26c20 2 48 34 48 81
c-8 -10 -17 -17 -30 -17c-23 0 -38 16 -38 52c0 30 22 62 58 62c31 0 47 -23 47 -72z" />
    <glyph glyph-name="quotedblright" unicode="&#x201d;" horiz-adv-x="304" 
d="M87 678c30 0 46 -23 46 -72c0 -87 -43 -151 -82 -151c-10 0 -22 6 -22 18c0 20 11 25 19 26c20 2 48 35 48 82c-8 -10 -17 -17 -30 -17c-23 0 -38 16 -38 52c0 30 22 62 59 62zM234 678c30 0 46 -23 46 -72c0 -87 -43 -151 -82 -151c-10 0 -22 6 -22 18c0 20 11 25 19 26
c20 2 48 35 48 82c-8 -10 -17 -17 -30 -17c-23 0 -38 16 -38 52c0 30 22 62 59 62z" />
    <glyph glyph-name="guillemotright" unicode="&#xbb;" horiz-adv-x="395" 
d="M128 283l-68 128c-17 5 -25 18 -25 38c0 25 25 43 43 43c21 0 42 -8 51 -33l69 -134c11 -10 18 -29 18 -44c0 -14 -8 -34 -20 -44l-86 -132c1 -20 -19 -34 -47 -34c-21 0 -49 16 -49 40c0 18 14 37 27 40zM292 283l-68 128c-17 5 -25 18 -25 38c0 25 25 43 44 43
c20 0 41 -8 50 -33l70 -134c10 -10 17 -29 17 -44c0 -14 -8 -34 -19 -44l-87 -132c1 -20 -18 -34 -47 -34c-21 0 -49 16 -49 40c0 18 14 37 28 40z" />
    <glyph glyph-name="ellipsis" unicode="&#x2026;" horiz-adv-x="1000" 
d="M161 -8c-19 0 -43 18 -43 56c0 28 20 63 56 63c25 0 43 -16 43 -56c0 -31 -16 -63 -56 -63zM494 -8c-19 0 -43 18 -43 56c0 28 20 63 56 63c25 0 43 -16 43 -56c0 -31 -16 -63 -56 -63zM827 -8c-19 0 -43 18 -43 56c0 28 20 63 56 63c25 0 43 -16 43 -56
c0 -31 -16 -63 -56 -63z" />
    <glyph glyph-name="perthousand" unicode="&#x2030;" horiz-adv-x="742" 
d="M423 611c0 -12 -10 -27 -24 -31l-257 -542c0 -32 -24 -47 -49 -47c-27 0 -43 9 -43 38c0 14 15 22 22 34l260 549c0 28 20 45 37 45c21 1 54 -15 54 -46zM113 413c-43 0 -90 30 -90 98c0 83 73 145 128 145c46 0 88 -27 88 -94c0 -80 -73 -149 -126 -149zM122 476
c15 0 40 38 40 81c0 20 -7 36 -17 36c-20 0 -45 -34 -45 -77c0 -29 10 -40 22 -40zM386 250c34 0 77 -34 77 -114c0 -93 -63 -155 -136 -155c-39 0 -84 34 -84 108c0 118 83 161 143 161zM642 250c34 0 77 -34 77 -114c0 -93 -63 -155 -136 -155c-39 0 -84 34 -84 108
c0 118 83 161 143 161zM364 187c-23 0 -44 -31 -44 -95c0 -37 9 -48 21 -48c20 0 45 29 45 91c0 33 -5 52 -22 52zM620 187c-23 0 -44 -31 -44 -95c0 -37 9 -48 21 -48c20 0 45 29 45 91c0 33 -5 52 -22 52z" />
    <glyph glyph-name="questiondown" unicode="&#xbf;" horiz-adv-x="379" 
d="M215 441c17 0 40 -17 40 -41c0 -51 -12 -71 -56 -71c-26 0 -37 24 -37 53c0 27 14 59 53 59zM201 292c57 0 83 -22 83 -79c0 -56 -22 -101 -103 -183c-80 -81 -93 -113 -93 -153c0 -22 17 -47 47 -47c53 0 82 50 100 82c-4 27 18 46 34 46c25 0 51 -17 51 -44
c0 -18 -6 -33 -15 -36c-15 -27 -68 -123 -191 -123c-74 0 -115 65 -115 109c0 53 9 93 119 211c85 91 95 108 95 131c0 14 -8 18 -17 18c-21 0 -27 -18 -27 -27c0 -10 -11 -22 -28 -22c-20 0 -44 5 -44 35c0 35 28 82 104 82z" />
    <glyph glyph-name="grave" unicode="`" 
d="M130 630l43 -70c8 -3 20 -16 20 -30c0 -26 -22 -35 -42 -35c-21 0 -34 19 -33 36l-42 68c-11 6 -20 17 -20 32c0 16 6 37 42 37c21 0 31 -18 32 -38z" />
    <glyph glyph-name="acute" unicode="&#xb4;" 
d="M249 604l-57 -76c-1 -18 -16 -33 -39 -33c-22 0 -36 14 -37 34c1 13 9 27 22 30l59 79c-9 25 15 33 34 33c22 0 38 -13 38 -34c0 -15 -7 -26 -20 -33z" />
    <glyph glyph-name="circumflex" unicode="&#x2c6;" 
d="M188 630l51 -91c7 -6 13 -16 13 -29c0 -18 -16 -35 -38 -35s-27 20 -26 33l-35 69l-43 -70c2 -20 -15 -32 -29 -32c-24 0 -37 22 -37 35c0 16 8 22 17 32l64 96c7 10 16 21 30 21c19 0 29 -20 33 -29z" />
    <glyph glyph-name="tilde" unicode="&#x2dc;" 
d="M194 497c-30 0 -53 23 -62 34c-10 11 -19 21 -28 21c-12 0 -23 -9 -29 -28c-7 -13 -16 -21 -33 -21c-27 0 -36 17 -36 33c0 8 10 15 14 22c24 41 48 56 88 56c22 0 37 -14 51 -29c14 -14 27 -28 41 -28c15 0 20 18 20 32c0 21 18 28 33 28c21 0 36 -14 36 -26
c0 -6 -3 -12 -5 -17c-14 -45 -37 -77 -90 -77z" />
    <glyph glyph-name="macron" unicode="&#xaf;" 
d="M207 548l-109 -16c-6 -3 -18 -4 -23 -4c-16 0 -31 18 -31 37c0 29 18 40 31 40c7 0 15 -3 20 -5l100 15c8 4 18 7 24 7c17 0 33 -14 33 -38c0 -32 -31 -40 -45 -36z" />
    <glyph glyph-name="breve" unicode="&#x2d8;" 
d="M138 472c-58 0 -97 63 -97 103c0 26 14 32 35 32c16 0 33 -6 33 -29c0 -21 13 -43 31 -43c21 0 38 11 46 36c-3 5 -4 11 -4 17c0 15 22 23 39 23c19 0 33 -11 33 -28c0 -9 -2 -18 -7 -24c-20 -53 -49 -87 -109 -87z" />
    <glyph glyph-name="dotaccent" unicode="&#x2d9;" 
d="M142 490c-30 0 -40 19 -40 49c0 47 20 87 57 87c24 0 40 -16 40 -45c0 -56 -27 -91 -57 -91z" />
    <glyph glyph-name="dieresis" unicode="&#xa8;" 
d="M67 501c-26 0 -38 37 -38 56c0 26 9 56 49 56c17 0 45 -4 45 -41c0 -46 -6 -71 -56 -71zM215 503c-33 0 -42 24 -42 52c0 27 9 58 43 58c17 0 51 -14 51 -48c0 -31 -11 -62 -52 -62z" />
    <glyph glyph-name="ring" unicode="&#x2da;" 
d="M146 472c-35 0 -63 34 -63 83c0 46 62 79 87 79c37 0 71 -26 71 -81c0 -53 -58 -81 -95 -81zM154 519c15 0 38 11 38 32s-6 36 -20 36c-18 0 -40 -13 -40 -37c0 -21 9 -31 22 -31z" />
    <glyph glyph-name="cedilla" unicode="&#xb8;" 
d="M190 12c0 -7 -6 -20 -16 -22l-21 -42c39 1 64 -27 64 -74c0 -55 -36 -104 -105 -104c-14 0 -26 5 -34 13c-5 -3 -8 -6 -15 -6c-10 0 -22 16 -22 34c0 20 17 38 30 38c7 0 17 -7 17 -15c7 -4 15 -8 25 -8c28 0 51 17 51 46c0 20 -7 28 -21 28c-5 0 -7 -3 -12 -6
c-3 -4 -12 -6 -23 -6c-15 0 -24 12 -24 24c0 7 6 21 12 26l47 83c0 12 11 20 22 20c12 0 25 -14 25 -29z" />
    <glyph glyph-name="hungarumlaut" unicode="&#x2dd;" 
d="M295 594l-69 -91c3 -15 -14 -44 -43 -44c-17 0 -33 9 -33 38c0 12 4 19 12 23l71 94c-9 18 7 45 38 45c16 0 40 -11 40 -40c0 -10 -5 -17 -16 -25zM164 594l-69 -91c3 -15 -14 -44 -42 -44c-17 0 -33 9 -34 38c1 12 5 19 14 23l69 94c-8 18 8 45 39 45
c16 0 40 -11 40 -40c0 -10 -5 -17 -17 -25z" />
    <glyph glyph-name="ogonek" unicode="&#x2db;" 
d="M137 -186c-49 0 -89 25 -89 84c0 80 62 135 99 139c0 8 20 15 33 15c16 0 32 -9 32 -25c0 -19 -12 -31 -31 -31c-16 0 -42 -16 -57 -38c-13 -18 -17 -37 -17 -57c0 -21 17 -33 35 -33c22 0 34 9 37 20c-2 2 -3 5 -3 10c0 10 10 18 30 18c19 0 32 -14 32 -34
c0 -29 -34 -68 -101 -68z" />
    <glyph glyph-name="caron" unicode="&#x2c7;" 
d="M245 553l-61 -63c-8 -9 -20 -13 -36 -13c-11 0 -24 8 -29 17l-36 61c-8 5 -18 15 -18 28c0 21 12 36 36 36c16 0 26 -15 32 -29l27 -44l41 46c3 14 17 27 32 27c19 0 36 -11 36 -32c0 -16 -14 -28 -24 -34z" />
    <glyph glyph-name="emdash" unicode="&#x2014;" horiz-adv-x="1000" 
d="M898 244h-791c-10 -11 -19 -15 -32 -15c-18 0 -35 23 -35 51c0 31 18 51 37 51c11 0 18 -4 23 -12h794c7 8 15 12 26 12c24 0 40 -20 40 -50c0 -22 -17 -48 -36 -48c-15 0 -23 5 -26 11z" />
    <glyph glyph-name="AE" unicode="&#xc6;" horiz-adv-x="653" 
d="M400 270v-202c37 0 144 6 176 20c5 2 17 4 27 4c13 0 26 -13 26 -40c0 -32 -18 -48 -45 -48l-230 -12c-9 -1 -19 -3 -27 -3c-16 0 -31 11 -31 42c0 21 9 37 21 39v194l-132 -11c-61 -131 -72 -172 -72 -207c0 -32 -28 -51 -60 -51c-21 0 -52 16 -52 49c0 22 15 42 32 49
c13 32 37 97 108 240c49 96 100 186 163 276c1 17 12 47 47 47c34 0 55 -12 55 -27c0 -8 -3 -15 -6 -19l121 10c19 2 33 16 51 16c22 0 40 -19 40 -48c0 -34 -20 -53 -41 -53c-14 0 -30 6 -39 10l-132 -10v-194l102 10c17 4 41 14 56 14c21 0 36 -13 36 -34
c0 -39 -22 -47 -56 -49zM317 334v174c-33 -52 -68 -121 -97 -184z" />
    <glyph glyph-name="ordfeminine" unicode="&#xaa;" horiz-adv-x="325" 
d="M217 523v42c0 18 -5 27 -21 27c-26 0 -52 -7 -79 -26c2 -11 -14 -20 -30 -20c-17 0 -34 12 -34 39c0 15 16 31 31 28c44 28 85 42 138 42c38 0 62 -26 62 -65v-209c3 -5 8 -10 8 -20c0 -16 -25 -23 -53 -23c-20 0 -31 5 -31 17c0 10 6 13 9 19v30
c-20 -39 -77 -73 -127 -73c-43 0 -68 31 -68 68c0 76 78 135 146 135c21 0 40 -4 49 -11zM111 397c38 1 103 38 103 75c0 13 -21 14 -43 14c-36 -1 -78 -35 -78 -70c0 -13 6 -19 18 -19z" />
    <glyph glyph-name="Lslash" unicode="&#x141;" horiz-adv-x="369" 
d="M252 359l-79 -53v-236l124 19c8 7 25 14 33 14c18 0 43 -11 43 -44c0 -34 -17 -51 -39 -51c-7 0 -19 2 -28 5l-142 -23c-10 -2 -28 -5 -40 -5c-29 0 -51 13 -51 42c0 18 6 29 14 35v192l-24 -19c-2 -10 -15 -17 -32 -17c-22 0 -37 16 -37 35c0 34 16 52 29 52
c11 0 15 0 20 -1l44 29v234c-3 7 -7 17 -7 25c0 40 25 53 53 53c24 0 49 -9 49 -52c0 -9 -6 -19 -9 -27v-181l51 36c1 10 18 22 34 22c23 0 43 -18 43 -43s-27 -52 -49 -41z" />
    <glyph glyph-name="Oslash" unicode="&#xd8;" horiz-adv-x="509" 
d="M86 55l-24 -34c6 -14 -18 -37 -42 -37s-40 19 -40 44c0 19 11 43 27 43c4 0 9 -1 14 -3l35 51c-11 41 -16 85 -16 124c0 201 121 431 256 431c44 0 86 -20 118 -66l28 40c3 17 17 33 33 33c21 0 49 -13 49 -42c0 -32 -19 -38 -40 -37l-39 -55c16 -46 26 -106 26 -183
c0 -220 -119 -383 -265 -383c-55 0 -94 31 -120 74zM132 215l228 316c-18 46 -43 67 -74 67c-69 0 -157 -182 -157 -343c0 -12 1 -24 3 -40zM375 460l-230 -322c16 -48 40 -81 79 -81c75 0 158 130 158 304c0 36 -2 68 -7 99z" />
    <glyph glyph-name="OE" unicode="&#x152;" horiz-adv-x="789" 
d="M484 532v-166l170 21c9 1 17 12 25 12c31 0 41 -21 41 -40c0 -23 -3 -40 -52 -45l-184 -23v-214l233 31c28 4 53 -9 53 -44c0 -29 -23 -42 -43 -42c-7 0 -15 5 -22 8l-218 -29c-8 -2 -16 -18 -54 -18c-27 0 -45 16 -45 36c0 16 5 34 10 36l1 52
c-58 -84 -115 -126 -219 -126c-93 0 -155 112 -155 271c0 241 142 420 279 420c37 0 70 -16 96 -49l1 2c2 21 22 35 43 35c39 0 52 -31 43 -52l218 34c27 4 49 -9 49 -38c0 -22 -16 -46 -39 -46c-10 0 -27 7 -37 5zM218 57c77 0 153 79 180 193v258c-15 52 -63 89 -104 89
c-96 0 -180 -154 -180 -338c0 -125 29 -202 104 -202z" />
    <glyph glyph-name="ordmasculine" unicode="&#xba;" horiz-adv-x="325" 
d="M294 522c0 -84 -71 -191 -165 -191c-63 0 -97 53 -97 109c0 110 70 215 168 215c71 0 94 -82 94 -133zM219 523c0 43 -7 69 -30 69c-42 0 -82 -62 -82 -145c0 -36 14 -53 34 -53c37 0 78 62 78 129z" />
    <glyph glyph-name="ae" unicode="&#xe6;" horiz-adv-x="621" 
d="M11 63c0 55 26 112 80 152c32 23 75 41 130 49l47 7v60c0 20 -11 39 -31 39c-33 0 -66 -13 -101 -45c1 -8 -17 -26 -47 -26c-22 0 -34 29 -34 43c0 19 18 45 40 44c46 38 99 59 160 59c45 0 89 -37 89 -80v-26c38 67 88 103 136 103c90 0 117 -99 117 -129
c0 -24 -15 -61 -53 -66l-193 -30c-9 -30 -13 -55 -13 -85c0 -42 26 -73 64 -73c43 0 90 36 116 80c-6 23 5 39 34 39c30 0 46 -16 45 -33c0 -14 -69 -161 -209 -161c-60 0 -105 41 -120 98c-34 -56 -108 -101 -164 -101s-93 31 -93 82zM383 286l143 23c1 19 -18 61 -47 61
c-35 0 -63 -29 -96 -84zM269 205l-41 -6c-44 -6 -73 -19 -94 -35c-30 -24 -41 -54 -41 -82c0 -14 9 -26 27 -26c43 0 149 79 149 149z" />
    <glyph glyph-name="dotlessi" unicode="&#x131;" horiz-adv-x="189" 
d="M146 391c0 -19 -7 -28 -10 -33v-291c4 -2 11 -14 11 -24c0 -31 -36 -48 -64 -48c-25 0 -41 20 -41 46c0 16 7 26 11 30v283c-6 6 -9 17 -9 26c0 27 2 57 57 57c22 0 45 -27 45 -46z" />
    <glyph glyph-name="lslash" unicode="&#x142;" horiz-adv-x="255" 
d="M86 67v205l-23 -21c-2 -15 -18 -23 -35 -23c-19 0 -38 16 -38 35c0 28 18 47 45 44l51 45v221c-4 9 -9 22 -9 34c0 40 9 49 54 49c24 0 53 -15 53 -45c0 -16 -6 -31 -15 -44v-153l28 25c3 12 15 19 33 19s40 -12 40 -43c0 -26 -31 -38 -46 -33l-55 -49v-271
c9 -7 14 -17 14 -27c0 -17 -25 -40 -55 -40c-27 0 -50 18 -50 45c0 10 4 18 8 27z" />
    <glyph glyph-name="oslash" unicode="&#xf8;" horiz-adv-x="402" 
d="M319 418l17 23c2 11 13 22 28 22c19 0 39 -12 39 -36c0 -27 -12 -31 -36 -33l-17 -22c15 -40 20 -79 20 -113c0 -85 -41 -159 -60 -183c-60 -76 -100 -95 -166 -95c-16 0 -35 8 -53 24l-19 -26c-2 -15 -19 -23 -36 -23c-16 0 -34 14 -34 30c0 25 14 32 34 32l20 28
c-13 28 -20 60 -20 94c0 177 97 307 215 307c29 0 50 -11 68 -29zM121 127l151 219c-8 16 -24 26 -39 26c-54 0 -116 -105 -116 -209c0 -7 2 -25 4 -36zM286 290l-150 -215c8 -12 20 -19 28 -19c30 0 58 19 82 53c26 37 43 90 43 131c0 11 -1 36 -3 50z" />
    <glyph glyph-name="oe" unicode="&#x153;" horiz-adv-x="620" 
d="M240 442c65 0 107 -57 106 -114c26 58 86 114 137 114c86 0 113 -91 113 -122c0 -19 -15 -56 -51 -65l-180 -52c-7 -24 -12 -51 -12 -73c0 -38 17 -70 52 -70c37 0 83 35 113 87c-6 20 8 37 31 37c39 0 46 -28 46 -37c0 -8 -12 -28 -19 -38c-62 -95 -125 -124 -184 -124
c-48 0 -96 38 -102 84c-27 -56 -91 -86 -149 -86c-77 0 -114 62 -114 154c0 165 86 305 213 305zM231 367c-60 0 -120 -91 -120 -221c0 -60 14 -88 51 -88c82 0 124 121 124 202c0 69 -17 107 -55 107zM388 272l137 40c-1 29 -19 55 -46 55c-29 0 -67 -44 -91 -95z" />
    <glyph glyph-name="germandbls" unicode="&#xdf;" horiz-adv-x="497" 
d="M95 338l-38 -8c-5 -3 -14 -8 -22 -9c-14 0 -30 8 -30 45c0 20 15 41 31 41c7 0 13 -1 19 -3l40 8v80c0 98 68 183 157 183c77 0 145 -44 145 -129c0 -45 -12 -76 -34 -107c-15 -20 -26 -40 -26 -65c0 -24 25 -53 55 -79c48 -42 81 -83 81 -145c0 -126 -72 -167 -156 -167
c-66 0 -110 48 -110 90c0 22 11 54 49 54c17 0 31 -10 31 -25c0 -6 -4 -12 -6 -15c6 -16 20 -29 40 -29c47 0 68 33 68 88c0 32 -27 74 -71 114c-39 34 -65 68 -65 106s11 62 30 87c21 28 30 48 30 89c0 35 -21 58 -61 58c-52 0 -74 -62 -74 -109v-438c5 -6 8 -15 8 -24
c0 -27 -23 -34 -55 -34c-29 0 -41 12 -41 32c0 9 4 15 5 22v289z" />
    <glyph glyph-name="onesuperior" unicode="&#xb9;" horiz-adv-x="209" 
d="M171 711v-267c1 -9 4 -21 4 -31c0 -22 -23 -38 -65 -38c-17 0 -37 7 -37 24c0 19 16 35 22 45v199c-6 0 -19 -26 -35 -26c-15 0 -31 10 -31 28c0 16 11 34 36 55c43 33 58 63 78 63c16 0 37 -9 37 -26c0 -8 -7 -19 -9 -26z" />
    <glyph glyph-name="logicalnot" unicode="&#xac;" horiz-adv-x="554" 
d="M401 287h-289c-8 -3 -19 -6 -30 -6c-27 0 -35 18 -35 40c0 38 14 54 39 54c11 0 20 -2 27 -5h313c39 0 66 -10 66 -41c0 -15 -3 -29 -8 -38v-104c5 -6 8 -16 8 -26c0 -29 -24 -42 -43 -42c-33 0 -58 13 -58 36c0 21 4 31 10 39v93z" />
    <glyph glyph-name="mu" unicode="&#xb5;" horiz-adv-x="380" 
d="M236 161v219c-2 8 -5 16 -5 24c0 22 20 34 42 34c26 0 52 -12 52 -30l-6 -28v-328c4 -8 6 -13 6 -23c0 -16 -14 -34 -58 -34c-24 0 -36 15 -36 25s2 15 7 20v36c-19 -32 -63 -85 -91 -85c-8 0 -14 4 -19 8v-188c9 -6 15 -13 15 -31c0 -24 -29 -34 -52 -34
c-31 0 -52 9 -52 28c0 16 1 28 6 37v569c-2 6 -5 13 -5 22c0 22 25 36 53 36c21 0 45 -14 45 -30s-6 -23 -10 -26v-285c0 -19 10 -31 22 -31c17 0 56 41 86 95z" />
    <glyph glyph-name="trademark" unicode="&#x2122;" horiz-adv-x="666" 
d="M626 640c0 -3 -2 -11 -3 -14v-260c4 -6 8 -10 8 -19c0 -26 -28 -37 -53 -37c-20 0 -29 8 -29 29c0 6 5 11 7 15c1 55 1 109 1 163h-2c-22 -46 -50 -112 -61 -158c-6 -24 -19 -32 -35 -32c-13 0 -20 8 -24 21c-9 50 -38 119 -52 158h-2c1 -45 1 -90 1 -136
c1 -2 3 -14 3 -22c0 -25 -10 -38 -40 -38c-26 0 -37 17 -37 36c0 8 6 16 7 21v269c-4 21 11 39 39 39c19 0 29 -16 32 -30c22 -78 65 -161 78 -215c16 55 71 141 90 216c5 17 15 29 37 29c15 0 35 -12 35 -35zM180 602v-229c2 -8 6 -20 6 -30c0 -25 -9 -33 -39 -33
c-22 0 -45 15 -45 33c0 8 2 16 6 23v228l-53 -7c-5 -4 -15 -10 -23 -10c-18 0 -27 15 -27 29c0 31 19 43 42 43l167 19c10 3 18 6 26 6c27 0 37 -14 37 -30c0 -30 -17 -37 -40 -34z" />
    <glyph glyph-name="Eth" unicode="&#xd0;" horiz-adv-x="501" 
d="M56 26c0 21 4 31 12 39v218l-19 -2c-6 -2 -13 -6 -19 -6c-18 0 -32 12 -32 30c0 31 19 48 39 50l31 3v226c-2 6 -5 14 -5 28c0 15 12 41 52 41c35 0 44 -23 39 -42c45 28 85 41 150 41c90 0 171 -106 171 -208c0 -114 -23 -232 -82 -310c-72 -95 -197 -148 -279 -148
c-42 0 -58 14 -58 40zM154 530v-164l84 10c5 1 19 8 35 8c24 0 34 -17 34 -39c0 -28 -11 -50 -39 -50c-11 0 -21 3 -33 6l-81 -9v-220c69 10 132 45 173 112c42 69 58 149 58 252c0 67 -51 140 -107 140c-41 0 -84 -16 -124 -46z" />
    <glyph glyph-name="onehalf" unicode="&#xbd;" horiz-adv-x="598" 
d="M86 24c0 34 24 34 29 45l221 540c2 29 16 48 38 48c25 0 57 -18 57 -40c0 -21 -15 -35 -25 -40l-224 -542c-1 -34 -31 -47 -51 -47c-38 0 -45 18 -45 36zM162 596v-267c1 -9 4 -21 4 -30c0 -23 -23 -39 -65 -39c-17 0 -37 7 -37 24c0 19 16 35 22 45v199
c-6 0 -19 -26 -35 -26c-15 0 -31 10 -31 28c0 16 11 34 36 55c43 33 58 63 78 63c16 0 37 -9 37 -26c0 -8 -7 -19 -9 -26zM385 54l85 4c10 1 16 1 16 4c0 21 13 39 35 39c27 0 41 -14 41 -45c0 -32 -11 -54 -36 -55l-165 -10c-37 -2 -53 9 -53 37c0 89 48 131 106 164
c46 25 63 54 63 92c0 19 -9 31 -26 31c-36 0 -40 -20 -43 -40c-3 -19 -7 -39 -48 -39c-25 0 -37 18 -37 29c0 39 32 113 139 113c50 0 94 -23 94 -84c0 -76 -40 -117 -92 -148c-49 -30 -79 -57 -79 -92z" />
    <glyph glyph-name="plusminus" unicode="&#xb1;" horiz-adv-x="554" 
d="M310 412v-67h114c9 3 20 11 29 11c27 0 40 -21 40 -52c0 -32 -16 -50 -40 -50c-12 0 -22 4 -29 8h-114v-76c5 -6 11 -16 11 -27c0 -31 -26 -45 -45 -45c-34 0 -60 14 -60 39c0 21 5 32 11 40v69h-112c-9 -3 -21 -8 -32 -9c-28 0 -38 20 -38 42c0 39 16 57 42 57
c12 0 21 -4 28 -7h112v67c-7 11 -11 23 -11 35c0 18 17 34 45 34c38 0 57 -20 57 -41c0 -11 -4 -20 -8 -28zM424 0h-309c-9 -3 -21 -9 -32 -9c-28 0 -38 21 -38 43c0 39 16 56 42 56c12 0 21 -4 28 -7h309c9 3 20 11 29 11c27 0 40 -22 40 -51c0 -32 -16 -51 -40 -51
c-12 0 -22 5 -29 8z" />
    <glyph glyph-name="Thorn" unicode="&#xde;" horiz-adv-x="432" 
d="M140 592v-102c44 26 100 48 161 48c79 0 118 -57 118 -125c0 -125 -188 -227 -279 -234v-117c5 -9 13 -18 13 -33c0 -31 -31 -34 -60 -34c-21 0 -53 13 -53 34c0 13 8 24 14 34v524c-2 6 -7 18 -7 30c0 18 25 38 61 38c24 0 45 -19 45 -34c0 -11 -6 -22 -13 -29zM140 400
v-143c88 8 190 80 190 147c0 17 -13 51 -49 51c-49 0 -116 -32 -141 -55z" />
    <glyph glyph-name="onequarter" unicode="&#xbc;" horiz-adv-x="599" 
d="M86 24c0 34 24 34 29 45l222 540c1 29 15 48 38 48c24 0 57 -18 57 -41c0 -20 -16 -35 -26 -39l-224 -542c-1 -34 -32 -47 -52 -47c-37 0 -44 18 -44 36zM162 596v-267c1 -10 4 -21 4 -31c0 -22 -23 -38 -65 -38c-17 0 -37 7 -37 24c0 19 16 35 22 45v199
c-6 0 -19 -26 -35 -26c-15 0 -31 10 -31 28c0 16 11 34 36 55c43 33 58 63 78 63c16 0 37 -9 37 -26c0 -8 -7 -19 -9 -26zM509 327v-147l25 5c6 5 18 11 24 11c14 0 32 -9 32 -38c0 -23 -12 -36 -30 -36c-10 0 -18 2 -24 8l-27 -5v-66c9 -4 15 -14 15 -24
c0 -28 -26 -40 -62 -40c-27 0 -39 19 -39 32c0 11 2 20 8 25v62l-106 -17c-8 -3 -18 -7 -27 -7c-24 0 -32 19 -32 40c0 13 17 29 25 36l137 198c2 14 20 23 48 23c22 0 41 -13 41 -32c0 -10 -3 -20 -8 -28zM432 169v115l-86 -129z" />
    <glyph glyph-name="divide" unicode="&#xf7;" horiz-adv-x="554" 
d="M273 323c-35 0 -55 21 -55 52c0 29 22 54 55 54c21 0 46 -24 46 -60c0 -21 -13 -46 -46 -46zM423 183h-308c-10 -3 -21 -7 -32 -7c-28 0 -36 18 -36 41c0 38 13 54 40 54c11 0 21 -2 27 -5h309c10 3 20 9 30 9c27 0 38 -19 38 -50s-14 -48 -39 -48c-12 0 -21 2 -29 6z
M271 20c-32 0 -54 21 -54 48c0 29 19 58 63 58c24 0 37 -23 37 -45c0 -36 -25 -61 -46 -61z" />
    <glyph glyph-name="brokenbar" unicode="&#xa6;" horiz-adv-x="258" 
d="M171 566v-203c11 -8 15 -22 15 -34c0 -21 -21 -34 -49 -34c-31 0 -55 10 -55 44c0 10 3 16 6 24v203c-7 13 -10 21 -10 41c0 24 18 38 60 38c29 0 46 -10 46 -37c0 -19 -4 -36 -13 -42zM88 -77v202c-7 14 -10 22 -10 42c0 24 18 38 60 38c29 0 46 -10 46 -37
c0 -18 -4 -36 -13 -43v-202c11 -8 15 -22 15 -34c0 -21 -21 -34 -49 -34c-31 0 -55 10 -55 44c0 10 3 16 6 24z" />
    <glyph glyph-name="degree" unicode="&#xb0;" horiz-adv-x="264" 
d="M147 665c55 0 88 -49 88 -113c0 -66 -39 -130 -115 -130c-53 0 -86 62 -86 108c0 94 52 135 113 135zM143 600c-31 0 -47 -24 -47 -60s11 -53 34 -53c30 0 42 29 42 71c0 26 -11 42 -29 42z" />
    <glyph glyph-name="thorn" unicode="&#xfe;" horiz-adv-x="401" 
d="M53 -239v811c-2 13 -7 33 -7 42c0 26 27 39 43 39c42 0 57 -16 57 -29c0 -8 -10 -36 -10 -46v-253h1c43 73 87 110 154 110c47 0 88 -45 88 -129c0 -199 -109 -318 -199 -318c-17 0 -33 6 -44 19v-246c5 -6 9 -18 9 -27c0 -31 -18 -43 -60 -43c-20 0 -41 5 -41 32
c0 18 4 29 9 38zM136 197v-105c9 -22 21 -32 40 -32c55 0 119 112 119 234c0 36 -9 65 -35 65c-16 0 -39 -16 -73 -65c-18 -26 -38 -60 -51 -97z" />
    <glyph glyph-name="threequarters" unicode="&#xbe;" horiz-adv-x="708" 
d="M195 24c0 33 24 33 29 45l222 540c2 29 16 48 38 48c25 0 57 -18 57 -41c0 -20 -16 -35 -26 -39l-223 -543c-1 -33 -32 -46 -52 -46c-37 0 -45 18 -45 36zM202 579l-85 -14c0 -32 -19 -43 -35 -43c-24 0 -34 21 -34 54c0 36 15 48 35 48c39 0 139 23 164 23
c22 0 34 -14 34 -34c0 -22 -23 -62 -50 -98c40 1 72 -28 72 -94c0 -108 -78 -172 -168 -172c-79 0 -118 70 -118 90c0 17 19 36 46 36c13 0 28 -9 32 -26c7 -24 24 -37 46 -37c48 0 83 42 83 97c0 26 -4 47 -29 47c-43 0 -25 -36 -61 -36c-16 0 -29 10 -29 26
c0 22 16 33 34 40c17 8 42 53 63 93zM618 327v-147l25 5c6 4 18 9 24 9c14 0 28 -7 28 -36c0 -24 -8 -35 -26 -35c-10 0 -18 1 -24 6l-27 -5v-65c9 -4 15 -14 15 -24c0 -28 -26 -40 -62 -40c-27 0 -39 19 -39 32c0 11 2 19 8 25v61l-106 -16c-8 -3 -18 -7 -27 -7
c-24 0 -32 18 -32 40c0 12 18 29 25 36l137 198c2 14 20 23 48 23c22 0 41 -13 41 -32c0 -10 -3 -20 -8 -28zM541 169v114l-86 -128z" />
    <glyph glyph-name="twosuperior" unicode="&#xb2;" horiz-adv-x="302" 
d="M104 439l86 4c9 0 16 1 16 5c0 20 13 38 35 38c27 0 41 -14 41 -45c0 -32 -11 -53 -36 -55l-166 -10c-37 -2 -53 9 -53 36c0 90 48 132 106 165c46 25 63 55 63 92c0 19 -9 31 -26 31c-36 0 -40 -20 -43 -40c-3 -19 -7 -39 -48 -39c-25 0 -37 18 -37 29
c0 39 32 113 139 113c50 0 94 -23 94 -84c0 -76 -40 -117 -92 -148c-49 -30 -79 -57 -79 -92z" />
    <glyph glyph-name="registered" unicode="&#xae;" horiz-adv-x="642" 
d="M272 -30c-99 0 -232 84 -232 274c0 200 146 412 310 412c74 0 252 -66 252 -291c0 -282 -198 -395 -330 -395zM276 33c94 0 259 90 259 328c0 174 -122 232 -187 232c-123 0 -241 -183 -241 -349c0 -153 105 -211 169 -211zM282 219v-66c0 -45 -31 -50 -55 -50
c-14 0 -20 2 -20 22c0 9 2 18 4 28v286c0 27 17 37 30 37c19 0 30 -5 39 -12c33 23 69 38 94 38c38 0 72 -17 72 -73c0 -69 -49 -125 -134 -163c41 -54 56 -69 69 -69c17 0 23 12 24 27c2 10 9 21 25 21c18 0 34 -12 34 -31c0 -39 -55 -80 -91 -80c-31 0 -50 16 -91 85z
M282 405v-93c60 25 97 64 97 102c0 17 -9 25 -19 25c-20 0 -50 -15 -78 -34z" />
    <glyph glyph-name="minus" unicode="&#x2212;" horiz-adv-x="554" 
d="M115 266h308c10 3 21 9 30 9c27 0 38 -19 38 -50s-14 -48 -38 -48c-12 0 -22 2 -30 6h-308c-9 -3 -21 -7 -32 -7c-28 0 -36 18 -36 41c0 38 14 54 40 54c11 0 21 -2 28 -5z" />
    <glyph glyph-name="eth" unicode="&#xf0;" horiz-adv-x="396" 
d="M245 506l-45 -23c-5 -12 -20 -22 -41 -22c-16 0 -28 17 -28 34c0 25 19 42 40 39l30 15c-15 16 -35 25 -50 25c-4 0 -11 -4 -23 -4c-15 0 -34 9 -34 38c0 28 23 48 42 48c14 0 24 -2 30 -12c31 -3 66 -22 101 -54l38 20c6 11 17 16 32 16c20 0 33 -8 33 -29
c0 -27 -11 -36 -35 -38l-31 -16c52 -78 65 -173 65 -247c0 -198 -111 -315 -221 -315c-98 0 -121 99 -121 160c0 151 79 298 194 298c29 0 55 -14 65 -31c-5 38 -29 78 -41 98zM229 368c-62 0 -118 -109 -118 -221c0 -50 15 -91 46 -91c69 0 127 94 127 199
c0 72 -15 113 -55 113z" />
    <glyph glyph-name="multiply" unicode="&#xd7;" horiz-adv-x="554" 
d="M271 274l116 116c4 24 22 42 44 42c23 0 51 -22 51 -57c0 -24 -22 -41 -36 -43l-116 -117l110 -111c21 -8 41 -21 41 -45c0 -29 -25 -53 -53 -53c-24 0 -40 21 -47 39l-110 112l-114 -113c1 -23 -25 -41 -50 -41c-31 0 -49 30 -49 57c0 28 35 46 45 47l109 108l-114 114
c-19 6 -41 24 -41 44c0 27 21 53 53 53c27 0 40 -25 47 -38z" />
    <glyph glyph-name="threesuperior" unicode="&#xb3;" horiz-adv-x="330" 
d="M211 695l-85 -15c0 -32 -19 -43 -35 -43c-24 0 -34 21 -34 54c0 36 15 48 35 48c39 0 139 23 164 23c22 0 34 -13 34 -34s-23 -61 -50 -98c40 1 72 -28 72 -94c0 -108 -78 -172 -168 -172c-79 0 -118 70 -118 90c0 16 19 35 46 35c13 0 28 -9 32 -26c7 -24 24 -36 46 -36
c48 0 83 42 83 97c0 25 -4 47 -29 47c-43 0 -25 -36 -61 -36c-16 0 -29 10 -29 26c0 22 16 33 34 40c17 8 42 53 63 94z" />
    <glyph glyph-name="copyright" unicode="&#xa9;" horiz-adv-x="642" 
d="M272 -30c-93 0 -226 84 -226 274c0 200 147 412 304 412c68 0 246 -66 246 -291c0 -282 -198 -395 -324 -395zM276 33c88 0 253 90 253 328c0 174 -121 232 -181 232c-117 0 -235 -183 -235 -349c0 -154 105 -211 163 -211zM264 118c-54 0 -103 32 -103 126
c0 138 120 247 246 247c19 0 37 -12 37 -72c3 -2 10 -8 10 -21c0 -11 -11 -29 -44 -29c-20 0 -35 6 -35 22c0 8 4 12 4 19c0 9 -1 14 -5 14c-44 0 -134 -77 -134 -184c0 -40 14 -55 36 -55c54 0 106 49 118 91c5 13 14 16 24 16c20 0 39 -22 39 -43
c0 -26 -94 -131 -193 -131z" />
    <glyph glyph-name="Aacute" unicode="&#xc1;" horiz-adv-x="496" 
d="M338 231l-189 -16c-32 -92 -40 -111 -43 -130c-4 -16 -3 -35 -3 -49c0 -24 -13 -41 -55 -41c-29 0 -44 21 -44 43c0 24 16 58 45 133l134 342c12 34 20 60 24 83c-1 35 17 69 50 69c37 0 50 -24 50 -38c0 -20 -8 -25 -8 -41c0 -35 58 -182 83 -246
c58 -152 92 -246 92 -285s-25 -60 -56 -60c-24 0 -46 16 -46 36c0 18 7 29 7 39c0 16 -5 47 -41 161zM178 292l135 11l-63 184zM349 806l-57 -77c-2 -17 -17 -32 -39 -32c-23 0 -37 14 -38 34c1 13 9 27 22 30l59 79c-9 25 16 33 35 33c23 0 38 -13 38 -34
c0 -15 -7 -26 -20 -33z" />
    <glyph glyph-name="Acircumflex" unicode="&#xc2;" horiz-adv-x="496" 
d="M338 231l-189 -16c-32 -92 -40 -111 -43 -130c-4 -16 -3 -35 -3 -49c0 -24 -13 -41 -55 -41c-29 0 -44 21 -44 43c0 24 16 58 45 133l134 342c12 34 20 60 24 83c-1 35 17 69 50 69c37 0 50 -24 50 -38c0 -20 -8 -25 -8 -41c0 -35 58 -182 83 -246
c58 -152 92 -246 92 -285s-25 -60 -56 -60c-24 0 -46 16 -46 36c0 18 7 29 7 39c0 16 -5 47 -41 161zM178 292l135 11l-63 184zM293 832l52 -92c7 -6 13 -15 13 -29c0 -18 -16 -34 -39 -34c-22 0 -27 19 -25 33l-36 68l-44 -69c2 -21 -14 -32 -28 -32c-24 0 -37 22 -37 34
c0 16 8 22 17 33l64 95c7 10 16 21 30 21c20 0 29 -20 33 -28z" />
    <glyph glyph-name="Adieresis" unicode="&#xc4;" horiz-adv-x="496" 
d="M338 231l-189 -16c-32 -92 -40 -111 -43 -130c-4 -16 -3 -35 -3 -49c0 -24 -13 -41 -55 -41c-29 0 -44 21 -44 43c0 24 16 58 45 133l134 342c12 34 20 60 24 83c-1 35 17 69 50 69c37 0 50 -24 50 -38c0 -20 -8 -25 -8 -41c0 -35 58 -182 83 -246
c58 -152 92 -246 92 -285s-25 -60 -56 -60c-24 0 -46 16 -46 36c0 18 7 29 7 39c0 16 -5 47 -41 161zM178 292l135 11l-63 184zM173 698c-26 0 -38 37 -38 56c0 26 9 56 49 56c17 0 45 -4 45 -41c0 -46 -6 -71 -56 -71zM321 700c-33 0 -42 24 -42 52c0 27 9 58 43 58
c17 0 51 -14 51 -48c0 -31 -11 -62 -52 -62z" />
    <glyph glyph-name="Agrave" unicode="&#xc0;" horiz-adv-x="496" 
d="M338 231l-189 -16c-32 -92 -40 -111 -43 -130c-4 -16 -3 -35 -3 -49c0 -24 -13 -41 -55 -41c-29 0 -44 21 -44 43c0 24 16 58 45 133l134 342c12 34 20 60 24 83c-1 35 17 69 50 69c37 0 50 -24 50 -38c0 -20 -8 -25 -8 -41c0 -35 58 -182 83 -246
c58 -152 92 -246 92 -285s-25 -60 -56 -60c-24 0 -46 16 -46 36c0 18 7 29 7 39c0 16 -5 47 -41 161zM178 292l135 11l-63 184zM230 832l43 -70c8 -3 20 -16 20 -30c0 -26 -22 -35 -42 -35c-21 0 -34 19 -33 36l-42 68c-11 6 -20 17 -20 32c0 16 6 37 42 37
c21 0 31 -18 32 -38z" />
    <glyph glyph-name="Aring" unicode="&#xc5;" horiz-adv-x="496" 
d="M338 231l-189 -16c-32 -92 -40 -111 -43 -130c-4 -16 -3 -35 -3 -49c0 -24 -13 -41 -55 -41c-29 0 -44 21 -44 43c0 24 16 58 45 133l134 342c12 34 20 60 24 83c-1 35 17 69 50 69c37 0 50 -24 50 -38c0 -20 -8 -25 -8 -41c0 -35 58 -182 83 -246
c58 -152 92 -246 92 -285s-25 -60 -56 -60c-24 0 -46 16 -46 36c0 18 7 29 7 39c0 16 -5 47 -41 161zM178 292l135 11l-63 184zM248 678h-2c-35 0 -63 34 -63 83c0 46 63 79 87 79c38 0 72 -26 72 -81c0 -53 -58 -81 -94 -81zM254 725c15 0 39 11 39 32s-6 36 -20 36
c-18 0 -41 -13 -41 -37c0 -21 9 -31 22 -31z" />
    <glyph glyph-name="Atilde" unicode="&#xc3;" horiz-adv-x="496" 
d="M338 231l-189 -16c-32 -92 -40 -111 -43 -130c-4 -16 -3 -35 -3 -49c0 -24 -13 -41 -55 -41c-29 0 -44 21 -44 43c0 24 16 58 45 133l134 342c12 34 20 60 24 83c-1 35 17 69 50 69c37 0 50 -24 50 -38c0 -20 -8 -25 -8 -41c0 -35 58 -182 83 -246
c58 -152 92 -246 92 -285s-25 -60 -56 -60c-24 0 -46 16 -46 36c0 18 7 29 7 39c0 16 -5 47 -41 161zM178 292l135 11l-63 184zM304 699c-31 0 -54 23 -63 33c-10 11 -19 21 -28 21c-12 0 -23 -9 -30 -28c-6 -13 -15 -21 -32 -21c-27 0 -36 17 -36 33c0 8 10 15 14 22
c24 41 48 56 88 56c22 0 38 -14 51 -28c14 -14 27 -28 41 -28c15 0 21 18 21 32c0 21 17 28 33 28c21 0 36 -14 36 -26c0 -6 -3 -12 -5 -17c-13 -45 -37 -77 -90 -77z" />
    <glyph glyph-name="Ccedilla" unicode="&#xc7;" horiz-adv-x="443" 
d="M239 -12l-20 -40c39 1 64 -27 64 -74c0 -55 -36 -104 -106 -104c-13 0 -26 5 -34 13c-5 -3 -8 -6 -15 -6c-9 0 -22 16 -22 34c0 20 17 38 30 38c8 0 17 -7 17 -15c7 -4 15 -8 25 -8c29 0 52 17 52 46c0 20 -7 28 -21 28c-5 0 -7 -3 -12 -6c-3 -4 -12 -6 -23 -6
c-15 0 -24 12 -24 24c0 7 5 21 12 26l26 45c-91 3 -159 89 -159 271c0 131 87 402 247 402c102 0 146 -57 146 -93c0 -38 -20 -53 -46 -53c-28 0 -39 12 -43 38c-2 16 -25 29 -57 29c-93 0 -158 -224 -158 -328c0 -131 48 -187 87 -187c42 0 97 33 118 71c1 26 5 60 47 60
c32 0 44 -25 44 -42c0 -15 -2 -34 -24 -64c-22 -29 -76 -81 -151 -99z" />
    <glyph glyph-name="Eacute" unicode="&#xc9;" horiz-adv-x="442" 
d="M147 281v-201l190 15c8 9 19 14 30 14c32 0 53 -24 53 -45c0 -40 -28 -48 -78 -48l-196 -15c-7 -9 -25 -16 -53 -16c-24 0 -45 17 -45 48c0 16 6 32 13 42v193c-12 12 -18 28 -18 43c0 18 10 36 18 44v165c-14 7 -21 20 -21 35c0 19 6 29 15 35c-4 5 -6 12 -6 17
c0 20 24 35 53 35c28 0 44 -13 45 -34l157 17c9 6 23 15 33 15c38 0 55 -20 55 -44c0 -32 -20 -55 -54 -55c-12 0 -19 3 -31 6l-160 -18v-169l122 18c9 7 21 14 32 14c32 0 52 -25 52 -48c0 -34 -20 -49 -56 -49c-7 0 -13 3 -19 6zM324 788l-57 -76c-2 -17 -17 -33 -39 -33
c-23 0 -37 14 -38 34c1 13 10 28 22 30l59 79c-9 25 15 33 35 33c22 0 38 -13 38 -34c0 -14 -7 -26 -20 -33z" />
    <glyph glyph-name="Ecircumflex" unicode="&#xca;" horiz-adv-x="442" 
d="M147 281v-201l190 15c8 9 19 14 30 14c32 0 53 -24 53 -45c0 -40 -28 -48 -78 -48l-196 -15c-7 -9 -25 -16 -53 -16c-24 0 -45 17 -45 48c0 16 6 32 13 42v193c-12 12 -18 28 -18 43c0 18 10 36 18 44v165c-14 7 -21 20 -21 35c0 19 6 29 15 35c-4 5 -6 12 -6 17
c0 20 24 35 53 35c28 0 44 -13 45 -34l157 17c9 6 23 15 33 15c38 0 55 -20 55 -44c0 -32 -20 -55 -54 -55c-12 0 -19 3 -31 6l-160 -18v-169l122 18c9 7 21 14 32 14c32 0 52 -25 52 -48c0 -34 -20 -49 -56 -49c-7 0 -13 3 -19 6zM263 833l52 -91c6 -7 12 -16 12 -30
c0 -18 -15 -34 -38 -34c-22 0 -27 19 -25 33l-36 68l-43 -69c2 -21 -15 -32 -29 -32c-24 0 -37 22 -37 34c0 16 8 22 17 33l64 95c7 10 16 21 30 21c20 0 29 -20 33 -28z" />
    <glyph glyph-name="Edieresis" unicode="&#xcb;" horiz-adv-x="442" 
d="M147 281v-201l190 15c8 9 19 14 30 14c32 0 53 -24 53 -45c0 -40 -28 -48 -78 -48l-196 -15c-7 -9 -25 -16 -53 -16c-24 0 -45 17 -45 48c0 16 6 32 13 42v193c-12 12 -18 28 -18 43c0 18 10 36 18 44v165c-14 7 -21 20 -21 35c0 19 6 29 15 35c-4 5 -6 12 -6 17
c0 20 24 35 53 35c28 0 44 -13 45 -34l157 17c9 6 23 15 33 15c38 0 55 -20 55 -44c0 -32 -20 -55 -54 -55c-12 0 -19 3 -31 6l-160 -18v-169l122 18c9 7 21 14 32 14c32 0 52 -25 52 -48c0 -34 -20 -49 -56 -49c-7 0 -13 3 -19 6zM141 690c-26 0 -38 37 -38 56
c0 26 9 56 49 56c17 0 45 -4 45 -41c0 -46 -6 -71 -56 -71zM289 693c-33 0 -42 24 -42 52c0 27 9 58 43 58c17 0 51 -14 51 -48c0 -31 -11 -62 -52 -62z" />
    <glyph glyph-name="Egrave" unicode="&#xc8;" horiz-adv-x="442" 
d="M147 281v-201l190 15c8 9 19 14 30 14c32 0 53 -24 53 -45c0 -40 -28 -48 -78 -48l-196 -15c-7 -9 -25 -16 -53 -16c-24 0 -45 17 -45 48c0 16 6 32 13 42v193c-12 12 -18 28 -18 43c0 18 10 36 18 44v165c-14 7 -21 20 -21 35c0 19 6 29 15 35c-4 5 -6 12 -6 17
c0 20 24 35 53 35c28 0 44 -13 45 -34l157 17c9 6 23 15 33 15c38 0 55 -20 55 -44c0 -32 -20 -55 -54 -55c-12 0 -19 3 -31 6l-160 -18v-169l122 18c9 7 21 14 32 14c32 0 52 -25 52 -48c0 -34 -20 -49 -56 -49c-7 0 -13 3 -19 6zM202 813l43 -70c9 -3 20 -15 20 -30
c0 -26 -22 -35 -42 -35c-21 0 -33 19 -32 36l-43 69c-11 5 -20 16 -20 32c0 15 6 36 43 36c20 0 30 -17 31 -38z" />
    <glyph glyph-name="Iacute" unicode="&#xcd;" horiz-adv-x="205" 
d="M145 554v-479c7 -9 13 -20 13 -33c0 -22 -22 -47 -55 -47c-35 0 -58 18 -58 48c0 13 6 25 14 36v481c-9 5 -11 17 -11 28c0 34 32 57 62 57c39 0 50 -30 50 -53c0 -13 -4 -26 -15 -38zM203 806l-57 -77c-1 -17 -16 -32 -39 -32s-37 14 -37 34c0 13 9 27 22 30l59 79
c-9 25 15 33 34 33c22 0 38 -13 38 -34c0 -15 -7 -26 -20 -33z" />
    <glyph glyph-name="Icircumflex" unicode="&#xce;" horiz-adv-x="205" 
d="M145 554v-479c7 -9 13 -20 13 -33c0 -22 -22 -47 -55 -47c-35 0 -58 18 -58 48c0 13 6 25 14 36v481c-9 5 -11 17 -11 28c0 34 32 57 62 57c39 0 50 -30 50 -53c0 -13 -4 -26 -15 -38zM143 833l51 -91c6 -7 12 -16 12 -30c0 -18 -15 -34 -38 -34c-22 0 -27 19 -25 33
l-35 68l-44 -69c2 -21 -15 -32 -28 -32c-25 0 -38 22 -38 34c0 16 9 22 17 33l64 95c8 10 16 21 31 21c19 0 28 -20 33 -28z" />
    <glyph glyph-name="Idieresis" unicode="&#xcf;" horiz-adv-x="205" 
d="M145 554v-479c7 -9 13 -20 13 -33c0 -22 -22 -47 -55 -47c-35 0 -58 18 -58 48c0 13 6 25 14 36v481c-9 5 -11 17 -11 28c0 34 32 57 62 57c39 0 50 -30 50 -53c0 -13 -4 -26 -15 -38zM22 690c-26 0 -38 37 -38 56c0 26 9 56 49 56c17 0 45 -4 45 -41
c0 -46 -6 -71 -56 -71zM170 693c-33 0 -42 24 -42 52c0 27 9 58 43 58c17 0 51 -14 51 -48c0 -31 -11 -62 -52 -62z" />
    <glyph glyph-name="Igrave" unicode="&#xcc;" horiz-adv-x="205" 
d="M145 554v-479c7 -9 13 -20 13 -33c0 -22 -22 -47 -55 -47c-35 0 -58 18 -58 48c0 13 6 25 14 36v481c-9 5 -11 17 -11 28c0 34 32 57 62 57c39 0 50 -30 50 -53c0 -13 -4 -26 -15 -38zM84 832l43 -70c9 -3 20 -16 20 -30c0 -26 -22 -35 -42 -35c-21 0 -33 19 -32 36
l-43 68c-11 6 -20 17 -20 32c0 16 7 37 43 37c20 0 31 -18 31 -38z" />
    <glyph glyph-name="Ntilde" unicode="&#xd1;" horiz-adv-x="489" 
d="M60 67v501c-5 8 -8 20 -8 29c0 25 16 48 49 48c41 0 52 -11 52 -36c0 -22 12 -63 29 -102c21 -50 67 -126 98 -175c28 -45 58 -99 71 -130h1c-3 127 -3 254 -3 385c-2 6 -10 15 -10 25c0 33 22 44 43 44c25 0 54 -12 54 -36c0 -16 -4 -23 -7 -31v-536c5 -7 10 -15 10 -24
c0 -23 -10 -34 -51 -34c-29 0 -39 25 -49 57c-16 55 -70 155 -98 200c-36 57 -85 136 -102 185l-2 1c1 -122 3 -247 3 -371c4 -6 9 -17 9 -27c0 -31 -11 -45 -44 -45c-32 0 -58 11 -58 45c0 9 8 22 13 27zM295 699c-30 0 -53 23 -62 33c-10 11 -19 21 -28 21
c-13 0 -23 -9 -30 -28c-6 -13 -16 -21 -32 -21c-27 0 -37 17 -37 33c0 8 11 15 15 22c23 41 47 56 88 56c22 0 37 -14 51 -28s27 -28 41 -28c15 0 21 18 20 32c1 21 18 28 33 28c21 0 36 -14 36 -26c0 -6 -2 -12 -4 -17c-14 -45 -38 -77 -91 -77z" />
    <glyph glyph-name="Oacute" unicode="&#xd3;" horiz-adv-x="489" 
d="M282 674c90 0 174 -84 174 -310c0 -220 -119 -383 -265 -383c-126 0 -166 151 -166 262c0 201 121 431 257 431zM270 598c-68 0 -156 -182 -156 -343c0 -91 25 -198 95 -198c75 0 158 130 158 304c0 157 -36 237 -97 237zM375 824l-57 -77c-1 -17 -16 -33 -39 -33
s-37 14 -37 34c0 13 9 28 22 30l59 79c-9 25 15 33 34 33c23 0 38 -13 38 -34c0 -14 -7 -26 -20 -32z" />
    <glyph glyph-name="Ocircumflex" unicode="&#xd4;" horiz-adv-x="489" 
d="M282 674c90 0 174 -84 174 -310c0 -220 -119 -383 -265 -383c-126 0 -166 151 -166 262c0 201 121 431 257 431zM270 598c-68 0 -156 -182 -156 -343c0 -91 25 -198 95 -198c75 0 158 130 158 304c0 157 -36 237 -97 237zM319 851l51 -91c7 -6 12 -16 12 -29
c0 -18 -15 -35 -38 -35c-22 0 -27 20 -25 33l-35 68l-44 -69c2 -20 -15 -32 -29 -32c-24 0 -37 22 -37 35c0 16 8 22 17 32l64 95c7 11 16 22 31 22c19 0 28 -20 33 -29z" />
    <glyph glyph-name="Odieresis" unicode="&#xd6;" horiz-adv-x="489" 
d="M282 674c90 0 174 -84 174 -310c0 -220 -119 -383 -265 -383c-126 0 -166 151 -166 262c0 201 121 431 257 431zM270 598c-68 0 -156 -182 -156 -343c0 -91 25 -198 95 -198c75 0 158 130 158 304c0 157 -36 237 -97 237zM198 703c-26 0 -38 37 -38 56c0 26 9 56 49 56
c17 0 45 -4 45 -41c0 -46 -6 -71 -56 -71zM346 705c-33 0 -42 24 -42 52c0 27 9 58 43 58c17 0 51 -14 51 -48c0 -31 -11 -62 -52 -62z" />
    <glyph glyph-name="Ograve" unicode="&#xd2;" horiz-adv-x="489" 
d="M282 674c90 0 174 -84 174 -310c0 -220 -119 -383 -265 -383c-126 0 -166 151 -166 262c0 201 121 431 257 431zM270 598c-68 0 -156 -182 -156 -343c0 -91 25 -198 95 -198c75 0 158 130 158 304c0 157 -36 237 -97 237zM242 849l43 -70c9 -3 20 -15 20 -30
c0 -26 -22 -35 -42 -35c-21 0 -33 19 -32 36l-43 69c-11 5 -20 16 -20 32c0 15 7 36 43 36c20 0 31 -17 31 -38z" />
    <glyph glyph-name="Otilde" unicode="&#xd5;" horiz-adv-x="489" 
d="M282 674c90 0 174 -84 174 -310c0 -220 -119 -383 -265 -383c-126 0 -166 151 -166 262c0 201 121 431 257 431zM270 598c-68 0 -156 -182 -156 -343c0 -91 25 -198 95 -198c75 0 158 130 158 304c0 157 -36 237 -97 237zM321 709c-30 0 -53 23 -62 33
c-11 11 -19 21 -29 21c-12 0 -23 -9 -29 -28c-7 -13 -16 -21 -32 -21c-27 0 -37 17 -37 33c0 8 10 15 14 22c24 41 48 56 88 56c23 0 38 -14 52 -28s26 -28 41 -28c14 0 20 18 20 32c0 21 17 28 33 28c21 0 36 -14 36 -26c0 -6 -3 -12 -5 -17c-14 -45 -37 -77 -90 -77z" />
    <glyph glyph-name="Scaron" unicode="&#x160;" horiz-adv-x="498" 
d="M285 648c66 0 128 -61 128 -99c0 -23 -7 -41 -39 -41c-37 0 -52 16 -51 36c-8 17 -29 29 -58 29c-71 0 -144 -81 -144 -156c0 -38 13 -52 35 -52s50 8 92 21c41 14 69 22 109 22c66 0 114 -44 114 -131c0 -57 -11 -105 -35 -143c-57 -92 -175 -149 -264 -149
c-103 0 -139 96 -139 127c0 27 20 55 49 55c31 0 34 -39 43 -63c10 -27 28 -44 55 -44c61 0 142 47 180 109c18 28 22 66 22 104c0 44 -17 58 -45 58c-31 0 -55 -8 -96 -22s-72 -21 -106 -21c-57 0 -103 31 -103 118c0 110 111 242 253 242zM346 755l-61 -63
c-8 -9 -20 -13 -36 -13c-12 0 -24 8 -29 17l-37 61c-8 5 -17 15 -17 28c0 21 12 36 35 36c16 0 27 -16 33 -29l26 -44l42 46c2 14 16 27 31 27c19 0 37 -11 37 -32c0 -16 -15 -28 -24 -34z" />
    <glyph glyph-name="Uacute" unicode="&#xda;" horiz-adv-x="500" 
d="M200 -17c-114 0 -143 79 -144 137v458c-17 32 6 62 40 62c38 0 42 -37 42 -54v-474c7 -24 29 -48 62 -48c103 0 150 77 150 104v414c-6 6 -9 13 -9 23c0 26 24 44 55 44c19 0 40 -11 40 -38c0 -7 0 -14 -4 -20v-434c0 -18 -17 -68 -43 -94c-54 -52 -117 -80 -189 -80z
M337 804l-57 -77c-1 -17 -16 -33 -39 -33s-37 14 -38 35c1 12 10 27 22 30l60 78c-9 25 15 34 34 34c23 0 38 -13 38 -35c0 -14 -7 -26 -20 -32z" />
    <glyph glyph-name="Ucircumflex" unicode="&#xdb;" horiz-adv-x="500" 
d="M200 -17c-114 0 -143 79 -144 137v458c-17 32 6 62 40 62c38 0 42 -37 42 -54v-474c7 -24 29 -48 62 -48c103 0 150 77 150 104v414c-6 6 -9 13 -9 23c0 26 24 44 55 44c19 0 40 -11 40 -38c0 -7 0 -14 -4 -20v-434c0 -18 -17 -68 -43 -94c-54 -52 -117 -80 -189 -80z
M279 833l52 -91c6 -7 12 -16 12 -30c0 -18 -16 -34 -38 -34s-28 19 -26 33l-35 68l-44 -69c2 -21 -15 -32 -29 -32c-24 0 -37 22 -37 34c0 16 8 22 17 33l64 95c8 10 16 21 31 21c19 0 29 -20 33 -28z" />
    <glyph glyph-name="Udieresis" unicode="&#xdc;" horiz-adv-x="500" 
d="M200 -17c-114 0 -143 79 -144 137v458c-17 32 6 62 40 62c38 0 42 -37 42 -54v-474c7 -24 29 -48 62 -48c103 0 150 77 150 104v414c-6 6 -9 13 -9 23c0 26 24 44 55 44c19 0 40 -11 40 -38c0 -7 0 -14 -4 -20v-434c0 -18 -17 -68 -43 -94c-54 -52 -117 -80 -189 -80z
M162 690c-26 0 -38 37 -38 56c0 26 9 56 49 56c17 0 45 -4 45 -41c0 -46 -6 -71 -56 -71zM310 693c-33 0 -42 24 -42 52c0 27 9 58 43 58c17 0 51 -14 51 -48c0 -31 -11 -62 -52 -62z" />
    <glyph glyph-name="Ugrave" unicode="&#xd9;" horiz-adv-x="500" 
d="M200 -17c-114 0 -143 79 -144 137v458c-17 32 6 62 40 62c38 0 42 -37 42 -54v-474c7 -24 29 -48 62 -48c103 0 150 77 150 104v414c-6 6 -9 13 -9 23c0 26 24 44 55 44c19 0 40 -11 40 -38c0 -7 0 -14 -4 -20v-434c0 -18 -17 -68 -43 -94c-54 -52 -117 -80 -189 -80z
M210 816l43 -70c9 -3 21 -15 21 -30c0 -26 -23 -35 -43 -35c-21 0 -33 19 -32 36l-43 69c-11 5 -20 16 -20 32c0 15 6 36 43 36c20 0 31 -17 31 -38z" />
    <glyph glyph-name="Yacute" unicode="&#xdd;" horiz-adv-x="467" 
d="M190 80v243c-38 94 -113 145 -162 242c-16 8 -28 25 -28 44c0 29 35 46 58 47s44 -19 41 -45c20 -60 104 -145 135 -211h2c34 61 88 108 129 177c6 11 14 22 18 34c7 25 16 45 46 45c23 0 45 -12 45 -39c0 -15 -11 -34 -24 -55c-13 -20 -25 -36 -35 -50
c-46 -67 -110 -119 -139 -190v-253c4 -4 12 -14 12 -27c0 -23 -17 -47 -59 -47c-36 0 -50 8 -50 46c0 12 3 32 11 39zM329 796l-57 -77c-2 -17 -17 -33 -39 -33c-23 0 -37 14 -38 34c1 13 10 28 22 30l59 79c-9 25 15 33 35 33c22 0 38 -13 38 -34c0 -14 -7 -26 -20 -32z
" />
    <glyph glyph-name="Ydieresis" unicode="&#x178;" horiz-adv-x="467" 
d="M190 80v243c-38 94 -113 145 -162 242c-16 8 -28 25 -28 44c0 29 35 46 58 47s44 -19 41 -45c20 -60 104 -145 135 -211h2c34 61 88 108 129 177c6 11 14 22 18 34c7 25 16 45 46 45c23 0 45 -12 45 -39c0 -15 -11 -34 -24 -55c-13 -20 -25 -36 -35 -50
c-46 -67 -110 -119 -139 -190v-253c4 -4 12 -14 12 -27c0 -23 -17 -47 -59 -47c-36 0 -50 8 -50 46c0 12 3 32 11 39zM161 682c-26 0 -38 37 -38 56c0 26 9 56 49 56c17 0 45 -4 45 -41c0 -46 -6 -71 -56 -71zM309 684c-33 0 -42 24 -42 52c0 27 9 58 43 58
c17 0 51 -14 51 -48c0 -31 -11 -62 -52 -62z" />
    <glyph glyph-name="Zcaron" unicode="&#x17d;" horiz-adv-x="457" 
d="M332 577l-180 -13c-10 -31 -30 -45 -53 -45c-30 0 -40 23 -40 40c0 50 25 94 64 94c13 0 22 -4 28 -11l214 12c16 1 25 4 36 4c21 0 41 -12 41 -30s-7 -39 -29 -72l-298 -487l217 9c0 33 24 53 48 53c16 0 48 -9 48 -55c0 -54 -26 -77 -47 -77s-45 1 -125 1
c-38 0 -53 -2 -105 -4c-52 -3 -69 -5 -84 -5c-37 0 -53 19 -53 49c0 11 4 27 17 44zM334 756l-62 -63c-7 -9 -20 -13 -36 -13c-11 0 -24 8 -29 17l-36 61c-8 5 -18 15 -18 28c0 21 12 36 36 36c16 0 27 -16 32 -29l27 -44l42 46c2 14 16 27 31 27c19 0 36 -12 36 -32
c0 -16 -14 -28 -23 -34z" />
    <glyph glyph-name="aacute" unicode="&#xe1;" horiz-adv-x="386" 
d="M248 287v57c0 24 -5 37 -24 37c-32 0 -63 -18 -85 -38c2 -8 -11 -28 -38 -28c-26 0 -42 26 -42 46c0 18 23 43 44 39c38 29 91 50 161 50c33 0 65 -29 65 -83v-318c4 -3 7 -13 7 -21c0 -31 -34 -34 -58 -34c-32 0 -39 15 -39 28c0 7 3 15 7 21v44h-1
c-52 -74 -103 -106 -163 -106c-44 0 -72 33 -72 77c0 83 91 196 238 229zM246 194v32c-83 -20 -156 -98 -156 -144c0 -17 11 -22 23 -22c53 0 133 82 133 134zM299 604l-57 -76c-1 -18 -16 -33 -39 -33s-37 14 -37 34c0 13 9 27 22 30l59 79c-9 25 15 33 34 33
c23 0 38 -13 38 -34c0 -15 -7 -26 -20 -33z" />
    <glyph glyph-name="acircumflex" unicode="&#xe2;" horiz-adv-x="386" 
d="M248 287v57c0 24 -5 37 -24 37c-32 0 -63 -18 -85 -38c2 -8 -11 -28 -38 -28c-26 0 -42 26 -42 46c0 18 23 43 44 39c38 29 91 50 161 50c33 0 65 -29 65 -83v-318c4 -3 7 -13 7 -21c0 -31 -34 -34 -58 -34c-32 0 -39 15 -39 28c0 7 3 15 7 21v44h-1
c-52 -74 -103 -106 -163 -106c-44 0 -72 33 -72 77c0 83 91 196 238 229zM246 194v32c-83 -20 -156 -98 -156 -144c0 -17 11 -22 23 -22c53 0 133 82 133 134zM237 630l51 -91c7 -6 13 -15 13 -29c0 -18 -16 -34 -38 -34s-28 19 -26 33l-35 68l-44 -69
c2 -21 -15 -32 -28 -32c-25 0 -37 22 -37 34c0 16 8 22 17 33l64 95c7 10 16 21 30 21c19 0 29 -20 33 -29z" />
    <glyph glyph-name="adieresis" unicode="&#xe4;" horiz-adv-x="386" 
d="M248 287v57c0 24 -5 37 -24 37c-32 0 -63 -18 -85 -38c2 -8 -11 -28 -38 -28c-26 0 -42 26 -42 46c0 18 23 43 44 39c38 29 91 50 161 50c33 0 65 -29 65 -83v-318c4 -3 7 -13 7 -21c0 -31 -34 -34 -58 -34c-32 0 -39 15 -39 28c0 7 3 15 7 21v44h-1
c-52 -74 -103 -106 -163 -106c-44 0 -72 33 -72 77c0 83 91 196 238 229zM246 194v32c-83 -20 -156 -98 -156 -144c0 -17 11 -22 23 -22c53 0 133 82 133 134zM127 501c-26 0 -38 37 -38 56c0 26 9 56 49 56c17 0 45 -4 45 -41c0 -46 -6 -71 -56 -71zM276 503
c-33 0 -42 24 -42 52c0 27 9 58 43 58c17 0 51 -14 51 -48c0 -31 -11 -62 -52 -62z" />
    <glyph glyph-name="agrave" unicode="&#xe0;" horiz-adv-x="386" 
d="M248 287v57c0 24 -5 37 -24 37c-32 0 -63 -18 -85 -38c2 -8 -11 -28 -38 -28c-26 0 -42 26 -42 46c0 18 23 43 44 39c38 29 91 50 161 50c33 0 65 -29 65 -83v-318c4 -3 7 -13 7 -21c0 -31 -34 -34 -58 -34c-32 0 -39 15 -39 28c0 7 3 15 7 21v44h-1
c-52 -74 -103 -106 -163 -106c-44 0 -72 33 -72 77c0 83 91 196 238 229zM246 194v32c-83 -20 -156 -98 -156 -144c0 -17 11 -22 23 -22c53 0 133 82 133 134zM191 630l43 -70c9 -3 20 -15 20 -30c0 -26 -22 -35 -42 -35c-21 0 -33 19 -32 36l-43 69c-11 5 -19 16 -19 31
c0 16 6 37 42 37c20 0 31 -18 31 -38z" />
    <glyph glyph-name="aring" unicode="&#xe5;" horiz-adv-x="386" 
d="M248 287v57c0 24 -5 37 -24 37c-32 0 -63 -18 -86 -38c2 -8 -10 -28 -37 -28c-26 0 -42 26 -42 46c0 18 23 43 44 39c38 29 91 50 161 50c33 0 65 -29 65 -83v-318c4 -3 7 -13 7 -21c0 -31 -34 -34 -58 -34c-32 0 -39 15 -39 28c0 7 3 15 7 21v44h-1
c-52 -74 -103 -106 -163 -106c-44 0 -72 33 -72 77c0 83 91 196 238 229zM246 194v32c-83 -20 -156 -98 -156 -144c0 -17 11 -22 23 -22c53 0 133 82 133 134zM193 472c-35 0 -63 34 -63 83c0 46 63 79 87 79c38 0 72 -26 72 -81c0 -53 -58 -81 -96 -81zM201 519
c15 0 39 11 39 32s-6 36 -20 36c-18 0 -41 -13 -41 -37c0 -21 9 -31 22 -31z" />
    <glyph glyph-name="atilde" unicode="&#xe3;" horiz-adv-x="386" 
d="M248 287v57c0 24 -5 37 -24 37c-32 0 -63 -18 -85 -38c2 -8 -11 -28 -38 -28c-26 0 -42 26 -42 46c0 18 23 43 44 39c38 29 91 50 161 50c33 0 65 -29 65 -83v-318c4 -3 7 -13 7 -21c0 -31 -34 -34 -58 -34c-32 0 -39 15 -39 28c0 7 3 15 7 21v44h-1
c-52 -74 -103 -106 -163 -106c-44 0 -72 33 -72 77c0 83 91 196 238 229zM246 194v32c-83 -20 -156 -98 -156 -144c0 -17 11 -22 23 -22c53 0 133 82 133 134zM245 497c-30 0 -53 23 -62 34c-11 11 -19 21 -28 21c-13 0 -24 -9 -30 -28c-7 -14 -16 -21 -32 -21
c-27 0 -37 17 -37 33c0 8 10 15 14 22c24 41 48 56 89 56c22 0 37 -14 51 -29c14 -14 26 -28 41 -28c14 0 20 18 20 32c0 21 17 28 33 28c21 0 36 -14 36 -26c0 -6 -3 -12 -5 -17c-14 -45 -37 -77 -90 -77z" />
    <glyph glyph-name="ccedilla" unicode="&#xe7;" horiz-adv-x="372" 
d="M191 -14l-19 -38c39 1 64 -27 64 -74c0 -55 -36 -104 -106 -104c-13 0 -25 5 -34 13c-4 -3 -8 -6 -14 -6c-10 0 -22 16 -22 34c0 20 17 38 30 38c7 0 17 -7 17 -15c7 -4 15 -8 25 -8c28 0 51 17 51 46c0 20 -7 28 -21 28c-5 0 -7 -3 -12 -6c-3 -4 -12 -6 -23 -6
c-15 0 -24 12 -24 24c0 7 6 21 12 26l26 45c-73 4 -115 65 -115 156c0 111 24 157 68 222c24 35 86 82 135 82c61 0 114 -35 114 -72c0 -31 -15 -49 -53 -49c-21 0 -25 13 -29 24s-10 24 -30 24c-27 0 -53 -23 -79 -60c-28 -38 -43 -90 -43 -155c0 -68 20 -99 61 -99
c19 0 35 8 49 21c15 13 36 36 46 63c3 26 8 47 39 47s42 -24 42 -39c0 -10 -23 -69 -67 -113c-25 -27 -56 -44 -88 -49z" />
    <glyph glyph-name="eacute" unicode="&#xe9;" horiz-adv-x="371" 
d="M234 442c83 0 113 -77 113 -120c0 -48 -29 -84 -198 -122l-34 -8c-5 -19 -7 -39 -7 -61c0 -51 16 -71 48 -71c46 0 92 39 100 67c-3 24 15 42 44 42c35 0 41 -23 41 -40c0 -27 -78 -144 -197 -144c-64 0 -117 35 -117 139c0 184 103 318 207 318zM229 367
c-48 0 -84 -53 -100 -107c128 27 145 40 145 55c0 27 -15 52 -45 52zM313 604l-57 -77c-2 -17 -17 -33 -39 -33c-23 0 -37 14 -38 35c1 12 9 27 22 30l59 79c-9 25 15 33 35 33c22 0 38 -13 38 -34c0 -15 -7 -26 -20 -33z" />
    <glyph glyph-name="ecircumflex" unicode="&#xea;" horiz-adv-x="371" 
d="M234 442c83 0 113 -77 113 -120c0 -48 -29 -84 -198 -122l-34 -8c-5 -19 -7 -39 -7 -61c0 -51 16 -71 48 -71c46 0 92 39 100 67c-3 24 15 42 44 42c35 0 41 -23 41 -40c0 -27 -78 -144 -197 -144c-64 0 -117 35 -117 139c0 184 103 318 207 318zM229 367
c-48 0 -84 -53 -100 -107c128 27 145 40 145 55c0 27 -15 52 -45 52zM257 630l51 -91c7 -6 13 -16 13 -29c0 -18 -16 -35 -38 -35c-23 0 -28 20 -26 33l-35 69l-44 -70c2 -20 -15 -32 -28 -32c-25 0 -38 22 -38 35c0 15 9 22 17 32l64 95c8 11 16 22 31 22
c19 0 29 -20 33 -29z" />
    <glyph glyph-name="edieresis" unicode="&#xeb;" horiz-adv-x="371" 
d="M234 442c83 0 113 -77 113 -120c0 -48 -29 -84 -198 -122l-34 -8c-5 -19 -7 -39 -7 -61c0 -51 16 -71 48 -71c46 0 92 39 100 67c-3 24 15 42 44 42c35 0 41 -23 41 -40c0 -27 -78 -144 -197 -144c-64 0 -117 35 -117 139c0 184 103 318 207 318zM229 367
c-48 0 -84 -53 -100 -107c128 27 145 40 145 55c0 27 -15 52 -45 52zM135 497c-26 0 -38 37 -38 56c0 26 9 56 49 56c17 0 45 -4 45 -41c0 -46 -6 -71 -56 -71zM283 499c-33 0 -42 24 -42 52c0 27 9 58 43 58c17 0 51 -14 51 -48c0 -31 -11 -62 -52 -62z" />
    <glyph glyph-name="egrave" unicode="&#xe8;" horiz-adv-x="371" 
d="M234 442c83 0 113 -77 113 -120c0 -48 -29 -84 -198 -122l-34 -8c-5 -19 -7 -39 -7 -61c0 -51 16 -71 48 -71c46 0 92 39 100 67c-3 24 15 42 44 42c35 0 41 -23 41 -40c0 -27 -78 -144 -197 -144c-64 0 -117 35 -117 139c0 184 103 318 207 318zM229 367
c-48 0 -84 -53 -100 -107c128 27 145 40 145 55c0 27 -15 52 -45 52zM195 630l43 -70c8 -4 20 -16 20 -31c0 -26 -23 -35 -43 -35s-33 20 -32 36l-43 69c-11 6 -19 17 -19 32c0 16 6 37 42 37c20 0 31 -18 32 -38z" />
    <glyph glyph-name="iacute" unicode="&#xed;" horiz-adv-x="189" 
d="M146 391c0 -19 -7 -28 -10 -33v-291c4 -2 11 -14 11 -24c0 -31 -36 -48 -64 -48c-25 0 -41 20 -41 46c0 16 7 26 11 30v283c-6 6 -9 17 -9 26c0 27 2 57 57 57c22 0 45 -27 45 -46zM196 604l-57 -77c-2 -17 -17 -33 -40 -33c-22 0 -37 14 -37 35c0 12 9 27 22 30l59 79
c-9 25 15 33 34 33c23 0 38 -13 38 -34c0 -15 -6 -26 -19 -33z" />
    <glyph glyph-name="icircumflex" unicode="&#xee;" horiz-adv-x="189" 
d="M146 391c0 -19 -7 -28 -10 -33v-291c4 -2 11 -14 11 -24c0 -31 -36 -48 -64 -48c-25 0 -41 20 -41 46c0 16 7 26 11 30v283c-6 6 -9 17 -9 26c0 27 2 57 57 57c22 0 45 -27 45 -46zM135 630l51 -91c7 -6 13 -16 13 -29c0 -18 -16 -35 -38 -35s-28 20 -26 33l-35 69
l-44 -70c2 -20 -15 -32 -28 -32c-25 0 -37 22 -37 35c0 15 8 22 17 32l64 95c7 11 16 22 30 22c19 0 29 -20 33 -29z" />
    <glyph glyph-name="idieresis" unicode="&#xef;" horiz-adv-x="189" 
d="M146 391c0 -19 -7 -28 -10 -33v-291c4 -2 11 -14 11 -24c0 -31 -36 -48 -64 -48c-25 0 -41 20 -41 46c0 16 7 26 11 30v283c-6 6 -9 17 -9 26c0 27 2 57 57 57c22 0 45 -27 45 -46zM14 501c-26 0 -38 37 -38 56c0 26 9 56 49 56c17 0 45 -4 45 -41c0 -46 -6 -71 -56 -71z
M162 503c-33 0 -42 24 -42 52c0 27 9 58 43 58c17 0 51 -14 51 -48c0 -31 -11 -62 -52 -62z" />
    <glyph glyph-name="igrave" unicode="&#xec;" horiz-adv-x="189" 
d="M146 391c0 -19 -7 -28 -10 -33v-291c4 -2 11 -14 11 -24c0 -31 -36 -48 -64 -48c-25 0 -41 20 -41 46c0 16 7 26 11 30v283c-6 6 -9 17 -9 26c0 27 2 57 57 57c22 0 45 -27 45 -46zM75 630l43 -70c8 -4 19 -16 19 -31c0 -26 -22 -35 -42 -35s-33 20 -32 36l-43 69
c-11 6 -19 17 -19 32c0 16 6 37 42 37c20 0 31 -18 32 -38z" />
    <glyph glyph-name="ntilde" unicode="&#xf1;" horiz-adv-x="380" 
d="M140 279v-227c5 -6 7 -12 7 -23c0 -25 -33 -34 -56 -34c-22 0 -45 9 -45 32c0 13 3 18 11 27v167c-7 4 -14 18 -14 32c0 17 5 35 14 56v77c-5 10 -7 19 -7 31c0 18 27 38 53 38c34 0 47 -10 47 -30c0 -14 -6 -26 -10 -31v-34c85 83 108 95 135 95c25 0 56 -28 56 -57
v-340c2 -5 6 -10 6 -23c0 -29 -17 -40 -52 -40c-33 0 -45 13 -45 36c0 11 3 16 8 24v288c0 6 -10 15 -16 15c-7 0 -24 -9 -92 -79zM238 499c-31 0 -54 23 -63 32c-10 12 -19 22 -28 22c-12 0 -23 -10 -30 -28c-6 -14 -15 -22 -32 -22c-27 0 -36 18 -36 34c0 8 10 15 14 22
c23 41 48 56 88 56c22 0 37 -14 51 -28s27 -28 41 -28c15 0 21 18 20 32c1 21 18 28 33 28c21 0 36 -14 36 -26c0 -6 -3 -12 -4 -17c-14 -45 -38 -77 -90 -77z" />
    <glyph glyph-name="oacute" unicode="&#xf3;" horiz-adv-x="389" 
d="M243 447c95 0 118 -117 118 -189c0 -84 -41 -158 -60 -182c-60 -76 -99 -95 -167 -95c-41 0 -107 45 -107 159c0 177 98 307 216 307zM223 372c-55 0 -112 -105 -112 -217c0 -58 17 -99 44 -99c30 0 55 18 80 52c26 37 42 88 42 146c0 67 -13 118 -54 118zM316 604
l-57 -77c-2 -17 -17 -33 -39 -33c-23 0 -37 14 -38 35c1 12 9 27 22 30l59 79c-9 25 15 33 35 33c22 0 37 -13 37 -34c0 -15 -7 -26 -19 -33z" />
    <glyph glyph-name="ocircumflex" unicode="&#xf4;" horiz-adv-x="389" 
d="M243 447c95 0 118 -117 118 -189c0 -84 -41 -158 -60 -182c-60 -76 -99 -95 -167 -95c-41 0 -107 45 -107 159c0 177 98 307 216 307zM223 372c-55 0 -112 -105 -112 -217c0 -58 17 -99 44 -99c30 0 55 18 80 52c26 37 42 88 42 146c0 67 -13 118 -54 118zM263 630
l51 -91c6 -6 12 -16 12 -29c0 -18 -15 -35 -38 -35c-22 0 -27 20 -25 33l-35 69l-44 -70c2 -20 -15 -32 -29 -32c-24 0 -37 22 -37 35c0 15 8 22 17 32l64 95c7 11 16 22 31 22c19 0 28 -20 33 -29z" />
    <glyph glyph-name="odieresis" unicode="&#xf6;" horiz-adv-x="389" 
d="M243 447c95 0 118 -117 118 -189c0 -84 -41 -158 -60 -182c-60 -76 -99 -95 -167 -95c-41 0 -107 45 -107 159c0 177 98 307 216 307zM223 372c-55 0 -112 -105 -112 -217c0 -58 17 -99 44 -99c30 0 55 18 80 52c26 37 42 88 42 146c0 67 -13 118 -54 118zM142 497
c-26 0 -38 37 -38 56c0 26 9 56 49 56c17 0 45 -4 45 -41c0 -46 -6 -71 -56 -71zM290 499c-33 0 -42 24 -42 52c0 27 9 58 43 58c17 0 51 -14 51 -48c0 -31 -11 -62 -52 -62z" />
    <glyph glyph-name="ograve" unicode="&#xf2;" horiz-adv-x="389" 
d="M243 447c95 0 118 -117 118 -189c0 -84 -41 -158 -60 -182c-60 -76 -99 -95 -167 -95c-41 0 -107 45 -107 159c0 177 98 307 216 307zM223 372c-55 0 -112 -105 -112 -217c0 -58 17 -99 44 -99c30 0 55 18 80 52c26 37 42 88 42 146c0 67 -13 118 -54 118zM193 630
l43 -70c8 -4 20 -16 20 -31c0 -26 -23 -35 -43 -35c-21 0 -33 20 -32 36l-43 69c-11 6 -20 17 -20 32c0 16 7 37 43 37c20 0 31 -18 32 -38z" />
    <glyph glyph-name="otilde" unicode="&#xf5;" horiz-adv-x="389" 
d="M243 447c95 0 118 -117 118 -189c0 -84 -41 -158 -60 -182c-60 -76 -99 -95 -167 -95c-41 0 -107 45 -107 159c0 177 98 307 216 307zM223 372c-55 0 -112 -105 -112 -217c0 -58 17 -99 44 -99c30 0 55 18 80 52c26 37 42 88 42 146c0 67 -13 118 -54 118zM269 490
c-30 0 -53 23 -63 32c-10 12 -18 22 -28 22c-12 0 -23 -10 -29 -28c-7 -14 -16 -22 -32 -22c-27 0 -37 18 -37 34c0 8 10 15 14 22c24 41 48 56 88 56c23 0 38 -14 52 -28c13 -14 26 -28 40 -28c15 0 21 18 21 32c0 21 17 28 32 28c21 0 36 -14 36 -26c0 -6 -3 -12 -4 -17
c-14 -45 -37 -77 -90 -77z" />
    <glyph glyph-name="scaron" unicode="&#x161;" horiz-adv-x="399" 
d="M255 455c39 0 83 -17 83 -53c0 -26 -16 -37 -35 -37c-14 0 -15 4 -19 10c-3 5 -9 9 -28 9c-85 0 -136 -56 -136 -98c0 -18 9 -28 21 -28c19 0 43 14 66 22c25 9 52 22 79 22c52 0 90 -39 90 -102c0 -157 -166 -211 -220 -211c-52 0 -111 33 -111 78c0 29 15 56 47 56
c24 0 33 -17 33 -27c0 -7 -2 -12 -4 -16c6 -10 21 -19 40 -19c37 0 132 42 132 123c0 26 -10 43 -29 43c-23 0 -41 -13 -66 -22c-26 -10 -48 -22 -88 -22c-47 0 -73 46 -73 93c0 96 116 179 218 179zM298 558l-62 -63c-7 -9 -20 -13 -36 -13c-11 0 -24 8 -29 17l-36 61
c-9 6 -18 15 -18 28c0 21 12 36 36 36c16 0 27 -15 33 -29l26 -44l42 46c2 14 16 27 31 27c19 0 37 -11 37 -32c0 -15 -15 -27 -24 -34z" />
    <glyph glyph-name="uacute" unicode="&#xfa;" horiz-adv-x="380" 
d="M136 377v-280c0 -10 10 -25 20 -25c20 0 62 39 88 80v231c-3 6 -6 12 -6 20c0 23 12 32 42 32s53 -3 47 -52v-327c4 -6 8 -15 8 -25c0 -22 -15 -36 -60 -36c-23 0 -36 11 -36 28c0 8 4 16 7 22v19c-33 -42 -81 -82 -126 -81c-33 1 -67 34 -67 73v321c0 5 -5 12 -5 21
c0 31 23 40 53 40c20 0 42 -10 42 -38c0 -10 -3 -17 -7 -23zM290 604l-57 -77c-1 -17 -16 -33 -39 -33c-22 0 -37 14 -37 35c0 12 9 27 22 30l59 79c-9 25 15 33 34 33c23 0 38 -13 38 -34c0 -15 -7 -26 -20 -33z" />
    <glyph glyph-name="ucircumflex" unicode="&#xfb;" horiz-adv-x="380" 
d="M136 377v-280c0 -10 10 -25 20 -25c20 0 62 39 88 80v231c-3 6 -6 12 -6 20c0 23 12 32 42 32s53 -3 47 -52v-327c4 -6 8 -15 8 -25c0 -22 -15 -36 -60 -36c-23 0 -36 11 -36 28c0 8 4 16 7 22v19c-33 -42 -81 -82 -126 -81c-33 1 -67 34 -67 73v321c0 5 -5 12 -5 21
c0 31 23 40 53 40c20 0 42 -10 42 -38c0 -10 -3 -17 -7 -23zM231 630l51 -91c7 -6 13 -16 13 -29c0 -18 -16 -35 -38 -35s-28 20 -26 33l-35 69l-44 -70c2 -20 -14 -32 -28 -32c-25 0 -37 22 -37 35c0 15 8 22 17 32l64 95c7 11 16 22 30 22c19 0 29 -20 33 -29z" />
    <glyph glyph-name="udieresis" unicode="&#xfc;" horiz-adv-x="380" 
d="M136 377v-280c0 -10 10 -25 20 -25c20 0 62 39 88 80v231c-3 6 -6 12 -6 20c0 23 12 32 42 32s53 -3 47 -52v-327c4 -6 8 -15 8 -25c0 -22 -15 -36 -60 -36c-23 0 -36 11 -36 28c0 8 4 16 7 22v19c-33 -42 -81 -82 -126 -81c-33 1 -67 34 -67 73v321c0 5 -5 12 -5 21
c0 31 23 40 53 40c20 0 42 -10 42 -38c0 -10 -3 -17 -7 -23zM110 501c-26 0 -38 37 -38 56c0 26 9 56 49 56c17 0 45 -4 45 -41c0 -46 -6 -71 -56 -71zM258 503c-33 0 -42 24 -42 52c0 27 9 58 43 58c17 0 51 -14 51 -48c0 -31 -11 -62 -52 -62z" />
    <glyph glyph-name="ugrave" unicode="&#xf9;" horiz-adv-x="380" 
d="M136 377v-280c0 -10 10 -25 20 -25c20 0 62 39 88 80v231c-3 6 -6 12 -6 20c0 23 12 32 42 32s53 -3 47 -52v-327c4 -6 8 -15 8 -25c0 -22 -15 -36 -60 -36c-23 0 -36 11 -36 28c0 8 4 16 7 22v19c-33 -42 -81 -82 -126 -81c-33 1 -67 34 -67 73v321c0 5 -5 12 -5 21
c0 31 23 40 53 40c20 0 42 -10 42 -38c0 -10 -3 -17 -7 -23zM167 630l43 -70c8 -4 20 -16 20 -31c0 -26 -23 -35 -43 -35s-33 20 -32 36l-43 69c-10 6 -19 17 -19 32c0 16 6 37 42 37c20 0 31 -18 32 -38z" />
    <glyph glyph-name="yacute" unicode="&#xfd;" horiz-adv-x="369" 
d="M163 28l-141 331c-12 10 -18 18 -18 36c0 25 33 40 50 40c34 0 46 -27 44 -49l101 -251l78 260c0 18 10 43 41 43c28 0 51 -15 51 -39c0 -13 -6 -24 -19 -31l-144 -438c-36 -114 -74 -131 -120 -131c-43 0 -84 29 -97 91c-3 16 -12 12 -12 32c0 22 16 38 41 38
c30 0 47 -8 47 -35c0 -9 -4 -15 -5 -22c0 -14 10 -31 26 -31c20 0 39 35 77 156zM280 604l-57 -77c-1 -17 -16 -33 -39 -33c-22 0 -37 14 -37 35c0 12 9 27 22 30l59 79c-9 25 15 33 34 33c23 0 38 -13 38 -34c0 -15 -7 -26 -20 -33z" />
    <glyph glyph-name="ydieresis" unicode="&#xff;" horiz-adv-x="369" 
d="M163 28l-141 331c-12 10 -18 18 -18 36c0 25 33 40 50 40c34 0 46 -27 44 -49l101 -251l78 260c0 18 10 43 41 43c28 0 51 -15 51 -39c0 -13 -6 -24 -19 -31l-144 -438c-36 -114 -74 -131 -120 -131c-43 0 -84 29 -97 91c-3 16 -12 12 -12 32c0 22 16 38 41 38
c30 0 47 -8 47 -35c0 -9 -4 -15 -5 -22c0 -14 10 -31 26 -31c20 0 39 35 77 156zM107 497c-26 0 -38 37 -38 56c0 26 9 56 49 56c17 0 45 -4 45 -41c0 -46 -6 -71 -56 -71zM255 499c-33 0 -42 24 -42 52c0 27 9 58 43 58c17 0 51 -14 51 -48c0 -31 -11 -62 -52 -62z" />
    <glyph glyph-name="zcaron" unicode="&#x17e;" horiz-adv-x="358" 
d="M32 62l197 291h-126c-1 -39 -18 -54 -36 -54c-15 0 -37 5 -37 41c0 64 20 85 55 85h175c12 10 22 14 42 14s39 -15 39 -34c0 -14 -3 -29 -13 -44l-200 -289h132c5 25 18 47 42 47c17 0 34 -8 34 -56c0 -53 -25 -71 -47 -71c-11 0 -23 4 -29 8h-173c-10 -6 -21 -8 -33 -8
c-27 0 -44 9 -44 31c0 15 7 35 22 39zM275 553l-62 -63c-7 -9 -20 -13 -36 -13c-11 0 -24 8 -29 17l-36 61c-8 5 -18 15 -18 28c0 21 13 36 36 36c16 0 27 -15 33 -29l26 -44l42 46c2 14 16 27 31 27c19 0 36 -11 36 -32c0 -16 -14 -28 -23 -34z" />
    <glyph glyph-name="zero.slash" horiz-adv-x="518" 
d="M473 569l-11 -19c17 -33 28 -75 28 -129c0 -342 -207 -436 -287 -436c-43 0 -84 17 -115 51l-5 -9c0 -19 -11 -42 -33 -42s-45 18 -45 43c0 20 17 32 39 37l11 18c-16 34 -26 78 -26 132c0 332 172 438 277 438c45 0 92 -25 122 -57l5 10c2 22 13 47 36 47s45 -20 45 -47
c0 -18 -21 -33 -41 -37zM123 172l254 359c-16 26 -41 40 -72 40c-86 0 -186 -88 -186 -351c0 -18 1 -34 4 -48zM396 465l-254 -359c15 -27 37 -39 60 -39c71 0 200 84 200 347c0 20 -2 37 -6 51z" />
    <glyph glyph-name="i.dot" horiz-adv-x="189" 
d="M111 626c23 0 39 -16 39 -45c0 -56 -27 -91 -57 -91s-40 19 -40 49c0 47 20 87 58 87zM146 391c0 -19 -7 -28 -10 -33v-291c4 -2 11 -14 11 -24c0 -31 -36 -48 -64 -48c-25 0 -41 20 -41 46c0 16 7 26 11 30v283c-6 6 -9 17 -9 26c0 27 2 57 57 57c22 0 45 -27 45 -46z
" />
    <glyph glyph-name="a.sc" unicode="&#xf761;" horiz-adv-x="431" 
d="M291 152l-156 -13c-19 -36 -26 -48 -29 -63c-4 -13 -4 -30 -4 -43c0 -20 -11 -37 -52 -37c-27 0 -42 19 -42 38s14 44 37 95l113 244c8 17 15 32 19 54c-1 29 15 62 47 62c36 0 47 -23 47 -34c0 -17 -6 -22 -6 -35c0 -26 46 -119 66 -163c49 -110 77 -174 77 -207
c0 -35 -22 -54 -52 -54c-24 0 -44 15 -44 33c0 16 6 25 6 32c0 12 -3 26 -27 91zM160 208l105 9l-48 125z" />
    <glyph glyph-name="b.sc" unicode="&#xf762;" horiz-adv-x="437" 
d="M57 67v337c-4 7 -5 16 -5 23c0 31 29 43 55 43c18 0 32 -8 33 -20c45 17 93 27 131 28c42 0 84 -24 84 -65c0 -40 -19 -72 -63 -100v-1c4 1 7 1 12 1c69 0 104 -53 104 -97c0 -157 -238 -223 -316 -223c-35 0 -50 15 -50 40c0 17 8 31 15 34zM140 379v-78
c58 3 131 47 131 86c0 10 -7 19 -36 19c-28 0 -70 -13 -95 -27zM140 212v-136c66 9 181 58 181 127c0 19 -21 51 -68 51c-30 0 -62 -9 -85 -18c-19 -8 -28 -15 -28 -24z" />
    <glyph glyph-name="c.sc" unicode="&#xf763;" horiz-adv-x="383" 
d="M237 482c64 0 119 -27 119 -71c0 -33 -18 -49 -42 -49c-23 0 -37 8 -40 30c-2 7 -15 17 -38 17c-62 0 -119 -139 -119 -227c0 -58 15 -122 69 -122c36 0 62 20 76 37c4 21 6 53 45 53c30 0 41 -24 41 -38c0 -24 -7 -39 -17 -51c-21 -26 -83 -74 -166 -74
c-75 0 -134 57 -134 200c0 113 80 295 206 295z" />
    <glyph glyph-name="d.sc" unicode="&#xf764;" horiz-adv-x="426" 
d="M50 64v355c-1 4 -4 11 -4 24c0 14 11 39 48 39c32 0 42 -19 39 -35c41 24 74 32 124 32c63 0 140 -67 140 -168c0 -76 -20 -154 -67 -210c-58 -68 -160 -111 -237 -111c-37 0 -52 14 -52 37c0 15 4 29 9 37zM133 370v-298c50 6 104 34 136 79c29 41 42 97 42 143
c0 64 -37 110 -77 110c-30 0 -68 -11 -101 -34z" />
    <glyph glyph-name="e.sc" unicode="&#xf765;" horiz-adv-x="386" 
d="M139 198v-125l151 12c5 6 16 11 26 11c30 0 46 -17 46 -37c0 -38 -24 -42 -70 -46l-154 -11c-7 -8 -23 -14 -49 -14c-25 0 -44 17 -44 43c0 14 5 29 11 38v117c-9 10 -15 21 -15 34c0 17 9 32 15 40v100c-10 9 -17 21 -17 34c0 17 6 27 13 32c-4 4 -6 10 -6 14
c0 19 23 33 50 33c24 0 41 -10 42 -30l120 14c7 6 20 13 30 13c35 0 51 -18 51 -39c0 -30 -18 -47 -49 -47c-11 0 -17 2 -28 4l-123 -15v-105l90 13c9 6 19 13 30 13c30 0 48 -20 48 -42c0 -32 -18 -45 -52 -45c-5 0 -12 2 -16 5z" />
    <glyph glyph-name="f.sc" unicode="&#xf766;" horiz-adv-x="353" 
d="M140 200v-129c4 -6 11 -19 11 -35c0 -28 -25 -42 -58 -42s-50 12 -50 40c0 20 5 33 14 45v105c-9 10 -13 24 -13 37s5 33 13 41v97c-6 4 -16 25 -16 40c0 17 4 28 17 30c-2 32 28 44 53 44c18 0 35 -10 28 -26l118 22c10 2 22 10 33 10c25 0 46 -15 46 -39
c0 -35 -14 -49 -46 -49c-11 0 -20 2 -31 7l-119 -23v-102l107 19c9 7 23 12 37 12c20 0 33 -25 33 -43c0 -37 -15 -48 -42 -48c-11 0 -21 1 -30 5z" />
    <glyph glyph-name="g.sc" unicode="&#xf767;" horiz-adv-x="455" 
d="M289 489c30 0 63 -8 84 -32c18 -20 27 -45 27 -56c0 -19 -14 -39 -42 -39s-37 13 -46 39c-1 6 -11 18 -28 18c-20 0 -42 -10 -75 -39c-51 -42 -94 -110 -94 -200c0 -88 33 -122 75 -122c40 0 79 18 108 53c26 33 38 65 45 98c-16 -6 -67 -17 -86 -17c-14 0 -29 10 -29 36
c0 19 12 43 37 43c58 0 103 19 122 19c26 0 38 -21 38 -42c0 -61 -55 -261 -250 -261c-93 0 -144 70 -144 194c0 114 62 201 130 252c48 37 93 56 128 56z" />
    <glyph glyph-name="h.sc" unicode="&#xf768;" horiz-adv-x="437" 
d="M139 211v-148c4 -10 7 -19 7 -28c0 -23 -22 -39 -43 -39c-42 0 -54 15 -54 35c0 8 2 27 7 28v146c-8 7 -14 19 -14 28c0 21 1 37 14 44v134c-3 9 -6 18 -6 26c0 22 26 37 57 37c13 0 38 -16 38 -38c0 -15 -3 -21 -6 -27v-122l159 11v108c-6 10 -6 23 -6 32
c0 24 26 36 48 36c17 0 47 -19 47 -35c0 -8 -1 -17 -6 -25v-356c3 -7 6 -19 6 -27c0 -20 -27 -35 -49 -35c-26 0 -47 19 -47 43c0 10 4 24 7 29v153z" />
    <glyph glyph-name="i.sc" unicode="&#xf769;" horiz-adv-x="196" 
d="M140 391v-322c6 -8 12 -18 12 -28c0 -21 -21 -45 -53 -45s-53 18 -53 44c0 12 4 23 11 33v323c-5 3 -10 11 -10 26c0 30 30 52 58 52c38 0 48 -28 48 -50c0 -10 -4 -23 -13 -33z" />
    <glyph glyph-name="j.sc" unicode="&#xf76a;" horiz-adv-x="372" 
d="M314 390v-285c0 -43 -19 -79 -50 -104c-32 -26 -73 -41 -122 -41c-76 0 -125 46 -125 116c0 29 13 67 44 67s54 -26 54 -46c0 -16 -6 -26 -13 -32c0 -16 16 -27 39 -27c18 0 45 11 58 22c20 17 32 41 32 59v267c-9 6 -13 20 -13 32c0 43 29 52 56 52c24 0 47 -21 47 -53
c0 -13 -3 -23 -7 -27z" />
    <glyph glyph-name="k.sc" unicode="&#xf76b;" horiz-adv-x="407" 
d="M141 237v-174c6 -4 9 -12 10 -22c1 -36 -29 -45 -51 -45c-28 0 -54 14 -52 46c0 12 4 19 10 24v342c-5 6 -5 14 -5 21c0 34 23 45 44 45c22 0 49 -9 49 -38c0 -11 -3 -23 -5 -24v-96h1c7 11 16 26 38 44l87 78c10 23 22 35 43 35c11 0 48 -11 48 -41
c0 -15 -16 -41 -36 -43l-123 -109l169 -210c15 -3 27 -18 27 -29c0 -19 -24 -48 -55 -48c-32 0 -43 16 -43 31l-118 152c-20 26 -31 42 -37 61h-1z" />
    <glyph glyph-name="l.sc" unicode="&#xf76c;" horiz-adv-x="322" 
d="M141 403v-332l93 12c6 6 22 12 29 12c16 0 39 -11 39 -42c0 -33 -17 -47 -36 -47c-7 0 -16 2 -24 4l-110 -17c-9 -2 -26 -4 -37 -4c-27 0 -48 11 -48 40c0 15 5 26 11 32v344c-3 6 -5 13 -5 21c0 38 24 48 51 48c20 0 44 -6 44 -46c0 -9 -4 -18 -7 -25z" />
    <glyph glyph-name="m.sc" unicode="&#xf76d;" horiz-adv-x="531" 
d="M51 63v362c0 38 15 48 48 48c30 0 39 -14 39 -30c0 -61 103 -191 119 -290h2c18 102 110 201 114 251c0 12 -2 32 -2 42c0 18 16 30 43 30c41 0 59 -17 59 -44c0 -8 -3 -20 -5 -25v-345c5 -7 6 -17 6 -24c0 -27 -25 -42 -49 -42c-33 0 -46 14 -46 36c0 11 3 21 9 28
c0 63 -1 162 0 226h-1c-34 -60 -92 -214 -92 -254c0 -21 -13 -32 -38 -32c-41 0 -48 28 -48 49c0 47 -36 159 -81 242h-2c4 -63 2 -159 2 -225c4 -5 9 -12 9 -29c0 -24 -17 -41 -48 -41c-27 0 -44 14 -44 40c0 11 1 23 6 27z" />
    <glyph glyph-name="n.sc" unicode="&#xf76e;" horiz-adv-x="430" 
d="M58 61v344c-4 7 -6 17 -6 26c0 21 15 43 46 43c39 0 48 -11 48 -34c0 -15 10 -44 20 -66c14 -28 47 -77 71 -106c18 -23 50 -68 59 -92h1c-3 77 -2 163 -2 244c-2 6 -8 14 -8 22c0 30 20 40 40 40c24 0 50 -11 50 -32c0 -15 -3 -20 -5 -26v-375c4 -7 9 -13 9 -22
c0 -21 -10 -31 -48 -31c-28 0 -37 25 -46 49c-13 41 -57 113 -87 151c-21 29 -59 80 -68 106h-1c2 -75 4 -165 4 -241c3 -5 7 -15 7 -23c0 -29 -11 -42 -42 -42c-29 0 -52 11 -52 42c0 7 6 18 10 23z" />
    <glyph glyph-name="o.sc" unicode="&#xf76f;" horiz-adv-x="430" 
d="M248 495c76 0 148 -61 148 -227c0 -162 -102 -282 -226 -282c-108 0 -142 111 -142 193c0 148 104 316 220 316zM235 423c-52 0 -120 -123 -120 -232c0 -65 18 -133 74 -133c57 0 121 88 121 206c0 96 -21 159 -75 159z" />
    <glyph glyph-name="p.sc" unicode="&#xf770;" horiz-adv-x="395" 
d="M61 60v240c-14 3 -23 15 -23 36c0 22 11 42 23 49v26c-3 6 -4 15 -4 24c0 20 26 35 43 35c32 0 45 -15 43 -34v-8c46 27 82 45 136 45c63 0 95 -39 95 -90c0 -71 -55 -159 -230 -200v-126c3 -5 10 -14 10 -22c0 -30 -12 -39 -58 -39c-29 0 -44 16 -44 35c0 13 1 19 9 29z
M144 355v-104c101 26 147 68 147 117c0 20 -11 31 -40 31c-26 0 -71 -16 -107 -44z" />
    <glyph glyph-name="q.sc" unicode="&#xf771;" horiz-adv-x="450" 
d="M271 491c90 0 132 -84 132 -195c0 -67 -21 -155 -45 -199c21 -25 43 -45 64 -58c13 -3 30 -12 30 -32c0 -30 -26 -46 -47 -46s-31 5 -37 20c-18 12 -43 35 -62 56c-33 -32 -76 -48 -124 -48c-82 0 -151 44 -151 180c0 182 107 322 240 322zM257 419
c-68 0 -138 -109 -138 -251c0 -76 33 -107 68 -107c31 0 55 12 69 31c-26 26 -45 43 -72 57c-19 16 -1 66 37 66c20 0 27 -8 34 -14c11 -10 26 -24 40 -41c16 40 23 92 23 146c0 73 -27 113 -61 113z" />
    <glyph glyph-name="r.sc" unicode="&#xf772;" horiz-adv-x="437" 
d="M50 46c0 11 7 20 11 26v256c-2 -1 -5 -1 -7 -1c-5 0 -17 7 -17 32c0 31 11 43 24 48v10c-2 5 -5 15 -5 24c0 23 24 41 49 41c20 0 40 -15 38 -38c0 -2 0 -5 -1 -9c46 22 99 38 148 38c54 0 96 -34 96 -82c0 -66 -52 -124 -188 -153l183 -157c33 12 55 -20 55 -35
c0 -34 -27 -55 -54 -55c-15 0 -34 9 -42 25l-198 180v-127c2 -7 8 -18 8 -29c0 -36 -35 -44 -65 -44c-20 0 -35 23 -35 50zM142 369v-84c104 22 160 53 160 96c0 14 -13 24 -35 24c-38 0 -86 -16 -125 -36z" />
    <glyph glyph-name="s.sc" unicode="&#xf773;" horiz-adv-x="423" 
d="M240 476c58 0 111 -30 111 -69c0 -21 -19 -40 -44 -40s-40 9 -43 25c-5 7 -20 13 -37 13c-54 0 -110 -47 -110 -96c0 -23 8 -31 24 -31c18 0 40 5 74 14c35 9 53 15 87 15c54 0 93 -39 93 -103c0 -40 -17 -84 -36 -111c-46 -67 -143 -104 -215 -104
c-83 0 -111 62 -111 88c0 23 18 50 46 50c27 0 32 -29 38 -43c6 -16 17 -23 35 -23c48 0 103 25 133 63c16 20 26 45 26 73c0 24 -13 35 -32 35c-23 0 -45 -6 -75 -15c-34 -9 -57 -14 -86 -14c-48 0 -87 28 -87 95c0 84 92 178 209 178z" />
    <glyph glyph-name="t.sc" unicode="&#xf774;" horiz-adv-x="345" 
d="M216 394v-333c2 -5 8 -12 8 -21c0 -24 -16 -44 -57 -44c-27 0 -39 14 -39 37c0 13 2 22 5 30v318l-58 -14c-7 -5 -17 -10 -29 -10c-23 0 -37 17 -37 38c0 27 18 45 33 45s19 -3 24 -4l74 18c10 12 45 19 62 12l78 18c11 4 17 6 26 6c20 0 36 -13 36 -43
c0 -22 -14 -42 -34 -42c-12 0 -19 3 -26 6z" />
    <glyph glyph-name="u.sc" unicode="&#xf775;" horiz-adv-x="429" 
d="M173 -12c-70 0 -122 36 -122 106v321c-15 30 8 55 39 55c36 0 40 -35 40 -48v-333c5 -11 23 -24 44 -24c82 0 114 55 114 69v282c-5 5 -7 11 -7 20c0 25 21 41 51 41c16 0 38 -9 38 -34c0 -7 0 -12 -3 -18v-300c0 -13 -11 -50 -33 -72c-44 -43 -98 -65 -161 -65z" />
    <glyph glyph-name="v.sc" unicode="&#xf776;" horiz-adv-x="383" 
d="M166 151c21 82 79 195 110 262c6 38 23 51 48 51c23 0 42 -11 42 -45c0 -16 -6 -30 -17 -44c-18 -27 -51 -89 -77 -141c-38 -78 -63 -161 -63 -179c0 -44 -19 -62 -62 -60c-21 -2 -49 17 -46 35c0 18 3 29 3 44c0 41 -20 106 -44 187c-24 79 -38 120 -38 167
c0 26 15 42 45 42c36 0 39 -31 40 -62c0 -19 5 -37 34 -147c15 -58 21 -80 25 -110z" />
    <glyph glyph-name="w.sc" unicode="&#xf777;" horiz-adv-x="550" 
d="M136 -6c-31 0 -35 39 -35 74c0 55 -15 115 -29 172c-17 61 -34 120 -34 187c0 33 23 47 45 47c25 0 40 -15 40 -37c0 -11 -4 -21 -4 -33c0 -53 9 -94 19 -134c7 -32 16 -69 20 -112c10 38 26 87 42 129c22 57 26 106 25 129c0 35 13 49 36 49c39 2 47 -17 47 -60
c0 -28 17 -81 37 -136c13 -37 26 -76 35 -108c5 34 20 86 31 122c13 39 22 106 26 138c-4 6 -6 11 -6 22c0 18 9 41 44 41c30 0 49 -18 49 -33c0 -13 0 -24 -2 -36c-8 -46 -24 -93 -39 -144c-21 -65 -45 -138 -52 -212c-4 -49 -14 -70 -48 -70c-36 0 -40 21 -46 71
c-3 19 -18 73 -42 138c-9 27 -20 55 -29 83c-11 -35 -26 -68 -37 -99c-16 -44 -37 -115 -37 -151c0 -22 -20 -37 -56 -37z" />
    <glyph glyph-name="x.sc" unicode="&#xf778;" horiz-adv-x="370" 
d="M62 -4c-20 0 -38 15 -38 37c0 17 8 27 20 36c24 44 70 122 106 180c-33 62 -67 114 -91 144c-13 17 -20 31 -20 39c0 26 17 42 37 42c14 0 26 -3 36 -11c19 -16 41 -80 78 -142c27 44 53 95 66 119c9 25 27 30 45 30c24 0 44 -14 44 -40c0 -22 -17 -37 -25 -47
c-21 -21 -62 -81 -92 -132c28 -51 64 -124 96 -184c6 -5 13 -16 13 -26c0 -29 -28 -45 -51 -45c-31 0 -39 25 -35 44c-21 44 -43 94 -66 140c-34 -60 -60 -133 -70 -154c-10 -18 -30 -30 -53 -30z" />
    <glyph glyph-name="y.sc" unicode="&#xf779;" horiz-adv-x="412" 
d="M164 74v158c-31 69 -86 99 -126 168c-14 7 -26 23 -26 40c0 27 34 43 55 44c20 1 40 -16 38 -39c14 -37 79 -97 102 -141h1c27 39 72 75 102 118c5 8 13 19 15 25c7 20 13 37 43 37c22 0 41 -12 41 -36c0 -15 -9 -29 -21 -47c-11 -16 -23 -28 -30 -38
c-37 -47 -89 -86 -110 -132v-168c3 -4 10 -13 10 -24c0 -21 -17 -43 -56 -43c-33 0 -47 7 -47 43c0 10 2 29 9 35z" />
    <glyph glyph-name="z.sc" unicode="&#xf77a;" horiz-adv-x="407" 
d="M275 407l-139 -11c-10 -28 -29 -39 -50 -39c-28 0 -37 21 -37 37c0 44 21 86 59 86c11 0 21 -4 26 -10l175 11c13 1 25 3 35 3c21 0 39 -14 39 -28c0 -18 -7 -35 -26 -61l-234 -328l163 6c1 30 23 47 45 47c14 0 46 -4 46 -49c0 -50 -24 -72 -43 -72c-22 0 -43 1 -108 1
c-34 0 -47 -1 -84 -3c-39 -2 -57 -4 -69 -4c-33 0 -50 17 -50 45c0 10 4 24 17 38z" />
    <glyph glyph-name="germandbls.sc" horiz-adv-x="845" 
d="M240 476c58 0 111 -30 111 -69c0 -21 -19 -40 -44 -40s-40 9 -43 25c-5 7 -20 13 -37 13c-54 0 -110 -47 -110 -96c0 -23 8 -31 24 -31c18 0 40 5 74 14c35 9 53 14 87 14c54 0 93 -38 93 -102c0 -41 -17 -84 -36 -111c-46 -67 -143 -104 -215 -104
c-83 0 -111 62 -111 88c0 23 18 50 46 50c27 0 32 -29 38 -43c6 -16 17 -23 35 -23c48 0 103 25 133 63c16 20 26 45 26 72c0 25 -13 36 -32 36c-23 0 -45 -7 -75 -14c-34 -9 -57 -14 -86 -14c-48 0 -87 28 -87 94c0 84 92 178 209 178zM663 476c57 0 110 -30 111 -69
c0 -21 -19 -40 -45 -40c-25 0 -39 9 -42 25c-5 7 -20 13 -36 13c-55 0 -110 -47 -110 -96c0 -23 7 -31 24 -31s39 5 74 14c34 9 52 14 85 14c55 0 94 -38 94 -102c0 -41 -17 -84 -36 -111c-46 -67 -143 -104 -215 -104c-83 0 -111 62 -111 88c0 23 18 50 47 50
c27 0 31 -29 37 -43c7 -16 18 -23 36 -23c48 0 102 25 132 63c16 20 26 45 26 72c0 25 -13 36 -32 36c-23 0 -45 -7 -74 -14c-34 -9 -57 -14 -86 -14c-48 0 -88 28 -88 94c0 84 93 178 209 178z" />
    <glyph glyph-name="ae.sc" unicode="&#xf7e6;" horiz-adv-x="549" 
d="M342 192v-125c35 0 114 5 140 14c4 2 17 5 25 5c12 0 25 -11 25 -37c0 -31 -16 -45 -40 -46l-194 -9c-8 0 -17 -3 -26 -3c-14 0 -30 11 -30 41c0 18 9 35 20 36v120l-107 -7c-18 -39 -48 -100 -54 -119c-2 -7 -2 -12 -2 -20c0 -29 -27 -46 -56 -46c-20 0 -48 16 -48 45
c0 21 13 40 30 46c12 24 28 60 90 163c42 70 97 143 136 194c2 15 12 40 44 40c30 0 51 -8 51 -23c0 -5 -2 -11 -4 -13l95 5c17 2 29 13 44 14c20 0 38 -17 38 -44c0 -32 -18 -49 -39 -49c-13 0 -27 6 -35 10l-103 -6v-122l77 8c15 3 37 11 50 11c21 0 34 -12 34 -30
c0 -37 -21 -44 -51 -46zM262 251v108c-24 -32 -50 -78 -72 -115z" />
    <glyph glyph-name="oe.sc" unicode="&#xf6fa;" horiz-adv-x="671" 
d="M417 371v-97l138 16c9 1 14 10 23 10c27 0 37 -21 37 -38c0 -20 0 -36 -48 -42l-150 -17v-130l192 24c25 3 50 -9 50 -41c0 -28 -23 -39 -41 -39c-6 0 -12 4 -19 6l-179 -23c-8 -1 -15 -16 -52 -16c-24 0 -42 15 -42 34c0 14 1 26 8 32v21c-50 -60 -97 -85 -184 -85
c-79 0 -133 81 -133 199c0 176 121 308 237 308c31 0 59 -11 82 -37l1 2c3 17 21 28 40 28c35 0 50 -24 42 -43l182 26c24 4 44 -8 44 -35c0 -21 -16 -43 -37 -43c-9 0 -24 5 -32 4zM187 58c60 0 127 57 147 139v151c-12 44 -53 74 -90 74c-77 0 -141 -106 -141 -231
c0 -91 23 -133 84 -133z" />
    <glyph glyph-name="eth.sc" unicode="&#xf7f0;" horiz-adv-x="421" 
d="M54 196l-11 -2c-5 -1 -11 -4 -15 -4c-17 0 -30 12 -30 29c0 28 17 46 35 47l21 2v151c-1 4 -4 12 -4 24c0 14 11 39 48 39c32 0 42 -19 39 -35c41 24 74 32 124 32c62 0 139 -67 139 -168c0 -75 -20 -153 -67 -209c-58 -68 -159 -112 -236 -112c-36 0 -52 14 -52 38
c0 14 4 28 9 36v132zM137 274l59 6c4 1 18 8 32 8c22 0 31 -16 31 -37c0 -24 -9 -46 -36 -46c-9 0 -20 3 -31 5l-55 -6v-132c49 6 103 34 135 79c29 41 42 97 42 143c0 64 -37 110 -77 110c-30 0 -67 -11 -100 -34v-96z" />
    <glyph glyph-name="oslash.sc" unicode="&#xf7f8;" horiz-adv-x="424" 
d="M72 36l-16 -18c5 -12 -14 -34 -34 -34c-23 0 -39 20 -39 42c0 18 11 41 26 41c4 0 8 -2 11 -3l23 26c-9 29 -14 62 -14 89c0 148 103 316 219 316c35 0 68 -14 97 -45l21 26c3 12 14 26 29 26c19 0 45 -11 45 -37c0 -29 -15 -35 -34 -34l-29 -35c12 -33 19 -76 19 -128
c0 -162 -100 -282 -224 -282c-44 0 -77 19 -100 50zM117 177l173 209c-12 24 -29 37 -53 37c-53 0 -121 -122 -121 -229c0 -5 0 -11 1 -17zM306 316l-176 -212c12 -29 30 -46 59 -46c57 0 121 88 121 206c0 17 -1 37 -4 52z" />
    <glyph glyph-name="thorn.sc" unicode="&#xf7fe;" horiz-adv-x="367" 
d="M127 425v-51c33 19 81 34 136 34c56 0 98 -38 98 -98c0 -110 -147 -182 -234 -188v-65c3 -8 10 -17 10 -31c0 -28 -29 -30 -56 -30c-20 0 -50 12 -50 31c0 11 7 21 12 31v363c-1 5 -6 16 -6 26c0 16 24 34 57 34c23 0 43 -17 43 -29c0 -9 -5 -21 -10 -27zM127 292v-95
c67 5 148 54 148 99c0 21 -14 35 -38 35c-34 0 -86 -20 -110 -39z" />
    <glyph glyph-name="ampersand.sc" unicode="&#xf726;" horiz-adv-x="411" 
d="M215 287l76 -103c12 24 15 37 15 48c0 10 8 21 21 21c31 0 52 -20 52 -37c0 -7 -4 -20 -13 -21c-6 -19 -17 -50 -35 -74c2 -3 30 -46 36 -46c8 0 20 19 36 19c17 0 20 -12 20 -23c0 -27 -51 -74 -84 -74c-11 0 -18 6 -21 19l-33 49c-55 -63 -101 -79 -159 -79
c-52 0 -115 35 -115 140c0 75 44 144 108 178c-23 34 -45 66 -46 115c0 20 21 65 99 65c72 0 117 -26 117 -72c0 -51 -27 -90 -74 -125zM177 430c-18 0 -30 -9 -30 -28c0 -14 8 -35 29 -61c27 17 42 50 42 62c0 19 -15 27 -41 27zM246 126l-90 123c-36 -25 -70 -56 -70 -115
c0 -47 24 -75 56 -75c34 0 67 20 104 67z" />
    <glyph glyph-name="exclam.sc" unicode="&#xf721;" horiz-adv-x="173" 
d="M128 423v-224c6 -6 8 -21 8 -38c0 -21 -33 -41 -64 -41c-27 0 -38 26 -38 43c0 14 6 26 11 32v224c-6 10 -11 17 -11 32c0 30 11 44 67 44c26 0 37 -9 37 -39c0 -18 -6 -27 -10 -33zM76 -5c-19 0 -36 20 -36 39c0 32 28 60 57 60c22 0 35 -13 35 -48
c0 -31 -12 -51 -56 -51z" />
    <glyph glyph-name="exclamdown.sc" unicode="&#xf7a1;" horiz-adv-x="173" 
d="M98 474c18 0 36 -19 36 -39c0 -32 -28 -60 -57 -60c-22 0 -35 13 -35 48c0 30 11 51 56 51zM46 45v224c-6 6 -8 22 -8 39c0 21 32 40 64 40c27 0 38 -26 38 -43c0 -14 -6 -27 -11 -32v-225c6 -9 11 -16 11 -31c0 -30 -11 -44 -67 -44c-27 0 -38 9 -38 38c0 18 6 28 11 34
z" />
    <glyph glyph-name="question.sc" unicode="&#xf73f;" horiz-adv-x="326" 
d="M140 100c-51 0 -73 29 -73 75c0 39 18 70 87 128c62 52 71 70 71 92c0 18 -15 31 -35 31c-41 0 -58 -25 -73 -46c3 -24 -17 -43 -32 -43c-24 0 -48 15 -48 42c0 15 5 30 14 32c13 22 56 84 159 84c64 0 101 -47 101 -81c0 -39 -10 -72 -96 -148c-72 -62 -81 -73 -81 -90
c0 -11 5 -16 12 -16c13 0 20 10 20 21c0 7 12 17 27 17c18 0 40 -3 40 -30c0 -30 -27 -68 -93 -68zM128 -12c-20 0 -38 13 -38 38c0 37 19 52 51 52c23 0 35 -18 35 -42c0 -20 -12 -48 -48 -48z" />
    <glyph glyph-name="questiondown.sc" unicode="&#xf7bf;" horiz-adv-x="326" 
d="M184 474c20 0 38 -13 38 -38c0 -37 -19 -52 -51 -52c-23 0 -35 18 -35 42c0 20 12 48 48 48zM172 362c51 0 73 -29 73 -75c0 -39 -18 -71 -87 -129c-62 -52 -71 -70 -71 -92c0 -18 15 -31 35 -31c41 0 58 25 73 47c-3 24 17 42 32 42c24 0 47 -15 47 -41
c0 -16 -5 -31 -13 -33c-13 -22 -56 -84 -159 -84c-64 0 -101 47 -101 81c0 39 9 72 96 148c72 63 81 75 81 91c0 11 -5 16 -13 16c-13 0 -20 -10 -20 -21c0 -7 -12 -17 -27 -17c-18 0 -40 4 -40 30c0 33 30 68 94 68z" />
    <glyph glyph-name="aacute.sc" unicode="&#xf7e1;" horiz-adv-x="431" 
d="M291 152l-156 -13c-19 -36 -26 -48 -29 -63c-4 -13 -4 -30 -4 -43c0 -20 -11 -37 -52 -37c-27 0 -42 19 -42 38s14 44 37 95l113 244c8 17 15 32 19 54c-1 29 15 62 47 62c36 0 47 -23 47 -34c0 -17 -6 -22 -6 -35c0 -26 46 -119 66 -163c49 -110 77 -174 77 -207
c0 -35 -22 -54 -52 -54c-24 0 -44 15 -44 33c0 16 6 25 6 32c0 12 -3 26 -27 91zM160 208l105 9l-48 125zM317 650l-57 -77c-2 -17 -17 -33 -39 -33c-23 0 -37 14 -38 35c1 12 9 27 22 29l59 79c-9 25 15 33 35 33c23 0 38 -13 38 -34c0 -14 -7 -26 -20 -32z" />
    <glyph glyph-name="abreve.sc" horiz-adv-x="431" 
d="M291 152l-156 -13c-19 -36 -26 -48 -29 -63c-4 -13 -4 -30 -4 -43c0 -20 -11 -37 -52 -37c-27 0 -42 19 -42 38s14 44 37 95l113 244c8 17 15 32 19 54c-1 29 15 62 47 62c36 0 47 -23 47 -34c0 -17 -6 -22 -6 -35c0 -26 46 -119 66 -163c49 -110 77 -174 77 -207
c0 -35 -22 -54 -52 -54c-24 0 -44 15 -44 33c0 16 6 25 6 32c0 12 -3 26 -27 91zM160 208l105 9l-48 125zM208 518c-58 0 -97 63 -97 103c0 25 14 32 35 32c16 0 33 -7 33 -29c0 -21 13 -43 31 -43c21 0 38 11 46 36c-3 5 -4 10 -4 17c0 15 22 23 39 23c19 0 33 -11 33 -28
c0 -9 -2 -18 -7 -24c-20 -53 -49 -87 -109 -87z" />
    <glyph glyph-name="acircumflex.sc" unicode="&#xf7e2;" horiz-adv-x="431" 
d="M291 152l-156 -13c-19 -36 -26 -48 -29 -63c-4 -13 -4 -30 -4 -43c0 -20 -11 -37 -52 -37c-27 0 -42 19 -42 38s14 44 37 95l113 244c8 17 15 32 19 54c-1 29 15 62 47 62c36 0 47 -23 47 -34c0 -17 -6 -22 -6 -35c0 -26 46 -119 66 -163c49 -110 77 -174 77 -207
c0 -35 -22 -54 -52 -54c-24 0 -44 15 -44 33c0 16 6 25 6 32c0 12 -3 26 -27 91zM160 208l105 9l-48 125zM257 677l52 -91c6 -6 12 -16 12 -30c0 -18 -15 -34 -38 -34s-28 20 -26 33l-35 68l-44 -69c2 -20 -15 -32 -28 -32c-25 0 -37 22 -37 35c0 15 8 22 17 32l63 95
c8 10 16 21 31 21c19 0 28 -20 33 -28z" />
    <glyph glyph-name="adieresis.sc" unicode="&#xf7e4;" horiz-adv-x="431" 
d="M291 152l-156 -13c-19 -36 -26 -48 -29 -63c-4 -13 -4 -30 -4 -43c0 -20 -11 -37 -52 -37c-27 0 -42 19 -42 38s14 44 37 95l113 244c8 17 15 32 19 54c-1 29 15 62 47 62c36 0 47 -23 47 -34c0 -17 -6 -22 -6 -35c0 -26 46 -119 66 -163c49 -110 77 -174 77 -207
c0 -35 -22 -54 -52 -54c-24 0 -44 15 -44 33c0 16 6 25 6 32c0 12 -3 26 -27 91zM160 208l105 9l-48 125zM147 533c-26 0 -38 36 -38 55c0 26 9 57 49 57c17 0 45 -4 45 -42c0 -45 -6 -70 -56 -70zM295 535c-33 0 -42 24 -42 52c0 27 9 58 43 58c17 0 51 -14 51 -48
c0 -31 -11 -62 -52 -62z" />
    <glyph glyph-name="agrave.sc" unicode="&#xf7e0;" horiz-adv-x="431" 
d="M291 152l-156 -13c-19 -36 -26 -48 -29 -63c-4 -13 -4 -30 -4 -43c0 -20 -11 -37 -52 -37c-27 0 -42 19 -42 38s14 44 37 95l113 244c8 17 15 32 19 54c-1 29 15 62 47 62c36 0 47 -23 47 -34c0 -17 -6 -22 -6 -35c0 -26 46 -119 66 -163c49 -110 77 -174 77 -207
c0 -35 -22 -54 -52 -54c-24 0 -44 15 -44 33c0 16 6 25 6 32c0 12 -3 26 -27 91zM160 208l105 9l-48 125zM199 676l43 -70c8 -3 20 -15 20 -30c0 -26 -22 -35 -42 -35c-21 0 -34 19 -33 36l-42 69c-11 5 -20 16 -20 32c0 15 6 36 42 36c20 0 31 -17 32 -38z" />
    <glyph glyph-name="amacron.sc" horiz-adv-x="431" 
d="M291 152l-156 -13c-19 -36 -26 -48 -29 -63c-4 -13 -4 -30 -4 -43c0 -20 -11 -37 -52 -37c-27 0 -42 19 -42 38s14 44 37 95l113 244c8 17 15 32 19 54c-1 29 15 62 47 62c36 0 47 -23 47 -34c0 -17 -6 -22 -6 -35c0 -26 46 -119 66 -163c49 -110 77 -174 77 -207
c0 -35 -22 -54 -52 -54c-24 0 -44 15 -44 33c0 16 6 25 6 32c0 12 -3 26 -27 91zM160 208l105 9l-48 125zM285 556l-109 -16c-6 -3 -18 -4 -23 -4c-17 0 -31 18 -31 37c0 29 18 40 31 40c7 0 15 -3 20 -5l100 15c8 4 18 7 24 7c18 0 34 -14 34 -38c0 -32 -31 -40 -46 -36z
" />
    <glyph glyph-name="aogonek.sc" horiz-adv-x="432" 
d="M161 208l104 9l-48 125zM306 -185c-50 0 -90 25 -90 84c0 78 59 133 97 139c1 11 5 17 5 23c0 12 -3 26 -27 91l-156 -13c-19 -36 -26 -48 -29 -63c-4 -13 -4 -30 -4 -43c0 -20 -11 -37 -52 -37c-27 0 -42 19 -42 38s14 44 37 95l113 244c8 17 15 32 19 54
c-1 29 15 62 47 62c36 0 47 -23 47 -34c0 -17 -6 -22 -6 -35c0 -26 46 -119 66 -163c49 -110 77 -174 77 -207c0 -35 -22 -54 -52 -54c-23 0 -48 -15 -64 -37c-13 -18 -17 -37 -17 -57c0 -21 17 -33 35 -33c22 0 34 9 37 20c-2 2 -3 5 -3 10c0 10 10 18 30 18
c19 0 32 -14 32 -34c0 -29 -34 -68 -100 -68z" />
    <glyph glyph-name="aring.sc" unicode="&#xf7e5;" horiz-adv-x="431" 
d="M291 152l-156 -13c-19 -36 -26 -48 -29 -63c-4 -13 -4 -30 -4 -43c0 -20 -11 -37 -52 -37c-27 0 -42 19 -42 38s14 44 37 95l113 244c8 17 15 32 19 54c-1 29 15 62 47 62c36 0 47 -23 47 -34c0 -17 -6 -22 -6 -35c0 -26 46 -119 66 -163c49 -110 77 -174 77 -207
c0 -35 -22 -54 -52 -54c-24 0 -44 15 -44 33c0 16 6 25 6 32c0 12 -3 26 -27 91zM160 208l105 9l-48 125zM210 507h-2c-35 0 -63 34 -63 83c0 45 63 79 87 79c38 0 72 -26 72 -81c0 -53 -58 -81 -94 -81zM216 554c15 0 39 11 39 32s-6 36 -20 36c-18 0 -41 -13 -41 -37
c0 -21 9 -31 22 -31z" />
    <glyph glyph-name="atilde.sc" unicode="&#xf7e3;" horiz-adv-x="431" 
d="M291 152l-156 -13c-19 -36 -26 -48 -29 -63c-4 -13 -4 -30 -4 -43c0 -20 -11 -37 -52 -37c-27 0 -42 19 -42 38s14 44 37 95l113 244c8 17 15 32 19 54c-1 29 15 62 47 62c36 0 47 -23 47 -34c0 -17 -6 -22 -6 -35c0 -26 46 -119 66 -163c49 -110 77 -174 77 -207
c0 -35 -22 -54 -52 -54c-24 0 -44 15 -44 33c0 16 6 25 6 32c0 12 -3 26 -27 91zM160 208l105 9l-48 125zM269 529c-30 0 -54 23 -63 33c-10 11 -18 21 -28 21c-12 0 -23 -9 -29 -27c-7 -14 -16 -22 -32 -22c-27 0 -36 17 -36 33c0 8 10 15 14 22c23 41 47 56 87 56
c23 0 38 -14 52 -28c13 -14 26 -28 40 -28c15 0 21 19 21 32c0 21 18 28 33 28c21 0 36 -14 36 -26c0 -6 -3 -12 -5 -17c-13 -45 -37 -77 -90 -77z" />
    <glyph glyph-name="cacute.sc" horiz-adv-x="383" 
d="M237 482c64 0 119 -27 119 -71c0 -33 -18 -49 -42 -49c-23 0 -37 8 -40 30c-2 7 -15 17 -38 17c-62 0 -119 -139 -119 -227c0 -58 15 -122 69 -122c36 0 62 20 76 37c4 21 6 53 45 53c30 0 41 -24 41 -38c0 -24 -7 -39 -17 -51c-21 -26 -83 -74 -166 -74
c-75 0 -134 57 -134 200c0 113 80 295 206 295zM304 641l-57 -77c-2 -17 -17 -33 -40 -33c-22 0 -36 14 -37 34c1 13 9 28 22 30l59 79c-9 25 15 33 35 33c22 0 38 -13 38 -34c0 -14 -7 -26 -20 -32z" />
    <glyph glyph-name="ccaron.sc" horiz-adv-x="383" 
d="M237 482c64 0 119 -27 119 -71c0 -33 -18 -49 -42 -49c-23 0 -37 8 -40 30c-2 7 -15 17 -38 17c-62 0 -119 -139 -119 -227c0 -58 15 -122 69 -122c36 0 62 20 76 37c4 21 6 53 45 53c30 0 41 -24 41 -38c0 -24 -7 -39 -17 -51c-21 -26 -83 -74 -166 -74
c-75 0 -134 57 -134 200c0 113 80 295 206 295zM303 600l-61 -63c-8 -9 -21 -13 -37 -13c-11 0 -24 8 -29 17l-36 61c-8 5 -18 15 -18 28c0 21 13 36 36 36c16 0 27 -15 33 -29l26 -44l42 46c2 14 16 27 31 27c19 0 37 -11 37 -32c0 -16 -15 -28 -24 -34z" />
    <glyph glyph-name="ccedilla.sc" unicode="&#xf7e7;" horiz-adv-x="383" 
d="M229 -3l-20 -39c39 1 64 -27 64 -74c0 -55 -36 -104 -106 -104c-13 0 -26 5 -34 13c-4 -3 -8 -6 -14 -6c-10 0 -23 16 -23 34c0 20 18 38 30 38c8 0 17 -7 17 -15c8 -4 15 -8 26 -8c28 0 51 17 51 46c0 20 -7 28 -21 28c-5 0 -7 -3 -12 -6c-3 -4 -12 -6 -23 -6
c-15 0 -24 12 -24 24c0 7 5 21 12 26l22 39h-8c-76 0 -135 57 -135 200c0 113 80 295 205 295c65 0 120 -27 120 -71c0 -33 -18 -49 -42 -49c-23 0 -37 8 -40 30c-2 7 -15 17 -38 17c-61 0 -119 -139 -119 -227c0 -58 15 -122 69 -122c37 0 62 20 77 37c4 21 5 53 44 53
c31 0 42 -24 42 -38c0 -24 -7 -39 -18 -51c-15 -19 -53 -50 -102 -64z" />
    <glyph glyph-name="dcaron.sc" horiz-adv-x="426" 
d="M50 64v355c-1 4 -4 11 -4 24c0 14 11 39 48 39c32 0 42 -19 39 -35c41 24 74 32 124 32c63 0 140 -67 140 -168c0 -76 -20 -154 -67 -210c-58 -68 -160 -111 -237 -111c-37 0 -52 14 -52 37c0 15 4 29 9 37zM133 370v-298c50 6 104 34 136 79c29 41 42 97 42 143
c0 64 -37 110 -77 110c-30 0 -68 -11 -101 -34zM310 600l-62 -63c-8 -8 -20 -13 -36 -13c-12 0 -24 8 -30 18l-36 60c-8 5 -18 15 -18 28c0 21 13 36 36 36c16 0 27 -15 33 -29l26 -44l42 46c3 14 17 27 32 27c19 0 36 -11 36 -32c0 -16 -14 -27 -23 -34z" />
    <glyph glyph-name="dcroat.sc" horiz-adv-x="421" 
d="M54 196l-11 -2c-5 -1 -11 -4 -15 -4c-17 0 -30 12 -30 29c0 28 17 46 35 47l21 2v151c-1 4 -4 12 -4 24c0 14 11 39 48 39c32 0 42 -19 39 -35c41 24 74 32 124 32c62 0 139 -67 139 -168c0 -75 -20 -153 -67 -209c-58 -68 -159 -112 -236 -112c-36 0 -52 14 -52 38
c0 14 4 28 9 36v132zM137 274l59 6c4 1 18 8 32 8c22 0 31 -16 31 -37c0 -24 -9 -46 -36 -46c-9 0 -20 3 -31 5l-55 -6v-132c49 6 103 34 135 79c29 41 42 97 42 143c0 64 -37 110 -77 110c-30 0 -67 -11 -100 -34v-96z" />
    <glyph glyph-name="eacute.sc" unicode="&#xf7e9;" horiz-adv-x="386" 
d="M139 198v-125l151 12c5 6 16 11 26 11c30 0 46 -17 46 -37c0 -38 -24 -42 -70 -46l-154 -11c-7 -8 -23 -14 -49 -14c-25 0 -44 17 -44 43c0 14 5 29 11 38v117c-9 10 -15 21 -15 34c0 17 9 32 15 40v100c-10 9 -17 21 -17 34c0 17 6 27 13 32c-4 4 -6 10 -6 14
c0 19 23 33 50 33c24 0 41 -10 42 -30l120 14c7 6 20 13 30 13c35 0 51 -18 51 -40c0 -29 -18 -46 -49 -46c-11 0 -17 2 -28 4l-123 -15v-105l90 13c9 6 19 13 30 13c30 0 48 -20 48 -42c0 -32 -18 -45 -52 -45c-5 0 -12 2 -16 5zM291 633l-57 -77c-2 -17 -17 -32 -40 -32
c-22 0 -36 13 -37 34c1 12 9 27 22 29l59 79c-9 25 15 33 35 33c22 0 38 -13 38 -34c0 -14 -7 -26 -20 -32z" />
    <glyph glyph-name="ecaron.sc" horiz-adv-x="386" 
d="M139 198v-125l151 12c5 6 16 11 26 11c30 0 46 -17 46 -37c0 -38 -24 -42 -70 -46l-154 -11c-7 -8 -23 -14 -49 -14c-25 0 -44 17 -44 43c0 14 5 29 11 38v117c-9 10 -15 21 -15 34c0 17 9 32 15 40v100c-10 9 -17 21 -17 34c0 17 6 27 13 32c-4 4 -6 10 -6 14
c0 19 23 33 50 33c24 0 41 -10 42 -30l120 14c7 6 20 13 30 13c35 0 51 -18 51 -40c0 -29 -18 -46 -49 -46c-11 0 -17 2 -28 4l-123 -15v-105l90 13c9 6 19 13 30 13c30 0 48 -20 48 -42c0 -32 -18 -45 -52 -45c-5 0 -12 2 -16 5zM287 593l-61 -63c-8 -8 -21 -13 -37 -13
c-11 0 -24 8 -29 17l-36 61c-8 5 -18 15 -18 28c0 21 13 36 36 36c16 0 27 -15 33 -29l26 -44l42 46c2 14 16 27 31 27c19 0 37 -11 37 -32c0 -16 -15 -28 -24 -34z" />
    <glyph glyph-name="ecircumflex.sc" unicode="&#xf7ea;" horiz-adv-x="386" 
d="M139 198v-125l151 12c5 6 16 11 26 11c30 0 46 -17 46 -37c0 -38 -24 -42 -70 -46l-154 -11c-7 -8 -23 -14 -49 -14c-25 0 -44 17 -44 43c0 14 5 29 11 38v117c-9 10 -15 21 -15 34c0 17 9 32 15 40v100c-10 9 -17 21 -17 34c0 17 6 27 13 32c-4 4 -6 10 -6 14
c0 19 23 33 50 33c24 0 41 -10 42 -30l120 14c7 6 20 13 30 13c35 0 51 -18 51 -39c0 -30 -18 -47 -49 -47c-11 0 -17 2 -28 4l-123 -15v-105l90 13c9 6 19 13 30 13c30 0 48 -20 48 -42c0 -32 -18 -45 -52 -45c-5 0 -12 2 -16 5zM235 681l51 -91c6 -6 12 -16 12 -29
c0 -18 -15 -35 -38 -35c-22 0 -27 20 -25 33l-35 68l-44 -69c2 -20 -15 -32 -29 -32c-24 0 -37 22 -37 35c0 15 8 22 17 32l64 95c7 11 16 22 31 22c19 0 28 -20 33 -29z" />
    <glyph glyph-name="edieresis.sc" unicode="&#xf7eb;" horiz-adv-x="386" 
d="M139 198v-125l152 12c5 6 16 11 26 11c29 0 46 -17 46 -37c0 -38 -24 -42 -70 -46l-155 -11c-7 -8 -23 -14 -49 -14c-25 0 -44 17 -44 43c0 14 5 29 11 38v117c-9 10 -15 21 -15 34c0 17 9 32 15 40v100c-10 9 -17 21 -17 34c0 17 6 27 13 32c-4 4 -6 10 -6 14
c0 19 23 33 50 33c24 0 41 -10 42 -30l121 14c7 6 20 13 30 13c35 0 51 -18 51 -40c0 -29 -18 -46 -49 -46c-11 0 -18 2 -28 4l-124 -15v-105l91 13c9 6 19 13 30 13c30 0 48 -20 48 -42c0 -32 -18 -45 -52 -45c-6 0 -12 2 -16 5zM114 536c-26 0 -38 36 -38 55
c0 26 9 57 49 57c17 0 45 -4 45 -42c0 -45 -6 -70 -56 -70zM263 538c-33 0 -42 24 -42 52c0 27 9 58 43 58c17 0 51 -14 51 -48c0 -31 -11 -62 -52 -62z" />
    <glyph glyph-name="edotaccent.sc" horiz-adv-x="386" 
d="M139 198v-125l151 12c5 6 16 11 26 11c30 0 46 -17 46 -37c0 -38 -24 -42 -70 -46l-154 -11c-7 -8 -23 -14 -49 -14c-25 0 -44 17 -44 43c0 14 5 29 11 38v117c-9 10 -15 21 -15 34c0 17 9 32 15 40v100c-10 9 -17 21 -17 34c0 17 6 27 13 32c-4 4 -6 10 -6 14
c0 19 23 33 50 33c24 0 41 -10 42 -30l120 14c7 6 20 13 30 13c35 0 51 -18 51 -40c0 -29 -18 -46 -49 -46c-11 0 -17 2 -28 4l-123 -15v-105l90 13c9 6 19 13 30 13c30 0 48 -20 48 -42c0 -32 -18 -45 -52 -45c-5 0 -12 2 -16 5zM188 511c-30 0 -40 19 -40 49
c0 47 20 87 57 87c24 0 40 -16 40 -45c0 -56 -27 -91 -57 -91z" />
    <glyph glyph-name="egrave.sc" unicode="&#xf7e8;" horiz-adv-x="386" 
d="M139 198v-125l151 12c5 6 16 11 26 11c30 0 46 -17 46 -37c0 -38 -24 -42 -70 -46l-154 -11c-7 -8 -23 -14 -49 -14c-25 0 -44 17 -44 43c0 14 5 29 11 38v117c-9 10 -15 21 -15 34c0 17 9 32 15 40v100c-10 9 -17 21 -17 34c0 17 6 27 13 32c-4 4 -6 10 -6 14
c0 19 23 33 50 33c24 0 41 -10 42 -30l120 14c7 6 20 13 30 13c35 0 51 -18 51 -39c0 -30 -18 -47 -49 -47c-11 0 -17 2 -28 4l-123 -15v-105l90 13c9 6 19 13 30 13c30 0 48 -20 48 -42c0 -32 -18 -45 -52 -45c-5 0 -12 2 -16 5zM175 659l43 -70c8 -3 20 -15 20 -30
c0 -26 -22 -35 -42 -35c-21 0 -34 19 -33 36l-42 69c-11 5 -20 16 -20 32c0 15 6 36 42 36c21 0 31 -17 32 -38z" />
    <glyph glyph-name="emacron.sc" horiz-adv-x="386" 
d="M139 198v-125l151 12c5 6 16 11 26 11c30 0 46 -17 46 -37c0 -38 -24 -42 -70 -46l-154 -11c-7 -8 -23 -14 -49 -14c-25 0 -44 17 -44 43c0 14 5 29 11 38v117c-9 10 -15 21 -15 34c0 17 9 32 15 40v100c-10 9 -17 21 -17 34c0 17 6 27 13 32c-4 4 -6 10 -6 14
c0 19 23 33 50 33c24 0 41 -10 42 -30l120 14c7 6 20 13 30 13c35 0 51 -18 51 -39c0 -30 -18 -47 -49 -47c-11 0 -17 2 -28 4l-123 -15v-105l90 13c9 6 19 13 30 13c30 0 48 -20 48 -42c0 -32 -18 -45 -52 -45c-5 0 -12 2 -16 5zM252 552l-108 -16c-7 -3 -19 -4 -23 -4
c-17 0 -32 18 -32 37c0 29 19 40 31 40c8 0 16 -3 20 -5l101 15c8 4 17 7 24 7c17 0 33 -14 33 -38c0 -32 -31 -40 -46 -36z" />
    <glyph glyph-name="eogonek.sc" horiz-adv-x="386" 
d="M267 -168c-49 0 -89 25 -89 84c0 37 13 72 34 92l-74 -6c-7 -8 -23 -14 -49 -14c-25 0 -44 17 -44 42c0 14 5 29 11 38v118c-9 10 -15 21 -15 34c0 17 9 32 15 40v100c-10 9 -17 21 -17 34c0 17 6 27 13 32c-4 4 -6 10 -6 14c0 19 23 33 50 33c24 0 41 -10 42 -30l120 14
c7 6 20 13 30 13c35 0 51 -18 51 -39c0 -30 -18 -47 -49 -47c-11 0 -17 2 -28 4l-123 -15v-105l90 13c9 6 19 13 30 13c30 0 49 -20 49 -42c0 -32 -19 -45 -53 -45c-5 0 -12 2 -16 5l-100 -14v-126l151 12c5 6 16 11 26 11c30 0 47 -17 47 -36c0 -39 -29 -43 -60 -45
c-16 -4 -36 -19 -49 -38c-13 -18 -17 -37 -17 -56c0 -22 17 -34 35 -34c22 0 34 9 37 20c-2 2 -3 5 -3 10c0 10 10 18 30 18c19 0 32 -14 32 -34c0 -29 -34 -68 -101 -68z" />
    <glyph glyph-name="gbreve.sc" horiz-adv-x="455" 
d="M289 489c30 0 63 -8 84 -32c18 -20 27 -45 27 -56c0 -19 -14 -39 -42 -39s-37 13 -46 39c-1 6 -11 18 -28 18c-20 0 -42 -10 -75 -39c-51 -42 -94 -110 -94 -200c0 -88 33 -122 75 -122c40 0 79 18 108 53c26 33 38 65 45 98c-16 -6 -67 -17 -86 -17c-14 0 -29 10 -29 36
c0 19 12 43 37 43c58 0 103 19 122 19c26 0 38 -21 38 -42c0 -61 -55 -261 -250 -261c-93 0 -144 70 -144 194c0 114 62 201 130 252c48 37 93 56 128 56zM229 520c-59 0 -98 63 -98 103c0 25 14 32 35 32c16 0 33 -7 33 -29c0 -21 14 -43 32 -43c21 0 38 11 46 36
c-3 5 -4 10 -4 17c0 15 22 23 39 23c19 0 33 -11 33 -28c0 -9 -2 -18 -7 -24c-20 -53 -49 -87 -109 -87z" />
    <glyph glyph-name="gcommaaccent.sc" horiz-adv-x="455" 
d="M289 489c30 0 63 -8 84 -32c18 -20 27 -45 27 -56c0 -19 -14 -39 -42 -39s-37 13 -46 39c-1 6 -11 18 -28 18c-20 0 -42 -10 -74 -39c-51 -42 -95 -110 -95 -200c0 -88 33 -122 76 -122c40 0 79 18 107 53c26 33 38 65 45 98c-16 -6 -67 -17 -86 -17c-14 0 -29 10 -29 36
c0 19 13 43 37 43c58 0 103 19 122 19c26 0 38 -21 38 -42c0 -61 -55 -261 -250 -261c-93 0 -144 70 -144 194c0 114 62 201 130 252c48 37 93 56 128 56zM185 -240c-19 0 -24 8 -24 22c0 19 12 29 34 31c25 3 42 24 42 55c0 12 -5 22 -13 26c-32 -4 -40 13 -40 29
c0 15 9 28 30 28c41 0 77 -30 77 -83c0 -73 -63 -108 -106 -108z" />
    <glyph glyph-name="iacute.sc" unicode="&#xf7ed;" horiz-adv-x="196" 
d="M140 391v-322c6 -8 12 -18 12 -28c0 -21 -21 -45 -53 -45s-53 18 -53 44c0 12 4 23 11 33v323c-5 3 -10 11 -10 26c0 30 30 52 58 52c38 0 48 -28 48 -50c0 -10 -4 -23 -13 -33zM184 635l-57 -77c-2 -17 -17 -33 -40 -33c-22 0 -36 14 -37 34c1 13 9 28 22 30l59 79
c-9 25 15 33 34 33c23 0 39 -13 39 -34c0 -14 -7 -26 -20 -32z" />
    <glyph glyph-name="icircumflex.sc" unicode="&#xf7ee;" horiz-adv-x="196" 
d="M140 391v-322c6 -8 12 -18 12 -28c0 -21 -21 -45 -53 -45s-53 18 -53 44c0 12 4 23 11 33v323c-5 3 -10 11 -10 26c0 30 30 52 58 52c38 0 48 -28 48 -50c0 -10 -4 -23 -13 -33zM139 678l51 -91c7 -6 13 -16 13 -29c0 -18 -16 -35 -38 -35s-28 20 -26 33l-35 69l-44 -70
c2 -20 -15 -32 -28 -32c-25 0 -37 22 -37 35c0 16 8 22 17 32l64 95c7 11 16 22 30 22c19 0 29 -20 33 -29z" />
    <glyph glyph-name="idieresis.sc" unicode="&#xf7ef;" horiz-adv-x="196" 
d="M140 391v-322c6 -8 12 -18 12 -28c0 -21 -21 -45 -53 -45s-53 18 -53 44c0 12 4 23 11 33v323c-5 3 -10 11 -10 26c0 30 30 52 58 52c38 0 48 -28 48 -50c0 -10 -4 -23 -13 -33zM18 538c-26 0 -38 36 -38 55c0 26 9 57 49 57c17 0 45 -4 45 -42c0 -45 -6 -70 -56 -70z
M166 540c-33 0 -42 24 -42 52c0 27 9 58 43 58c17 0 51 -14 51 -48c0 -31 -11 -62 -52 -62z" />
    <glyph glyph-name="igrave.sc" unicode="&#xf7ec;" horiz-adv-x="196" 
d="M140 391v-322c6 -8 12 -18 12 -28c0 -21 -21 -45 -53 -45s-53 18 -53 44c0 12 4 23 11 33v323c-5 3 -10 11 -10 26c0 30 30 52 58 52c38 0 48 -28 48 -50c0 -10 -4 -23 -13 -33zM81 660l43 -70c8 -3 20 -15 20 -30c0 -26 -22 -35 -43 -35c-20 0 -33 19 -32 36l-43 69
c-10 5 -19 16 -19 32c0 15 6 36 42 36c20 0 31 -17 32 -38z" />
    <glyph glyph-name="imacron.sc" horiz-adv-x="196" 
d="M140 391v-322c6 -8 12 -18 12 -28c0 -21 -21 -45 -53 -45s-53 18 -53 44c0 12 4 23 11 33v323c-5 3 -10 11 -10 26c0 30 30 52 58 52c38 0 48 -28 48 -50c0 -10 -4 -23 -13 -33zM158 554l-109 -16c-6 -3 -18 -4 -23 -4c-16 0 -31 18 -31 37c0 29 18 40 31 40
c7 0 15 -3 20 -5l101 15c7 4 17 7 23 7c18 0 33 -14 33 -38c0 -32 -30 -40 -45 -36z" />
    <glyph glyph-name="iogonek.sc" horiz-adv-x="196" 
d="M115 -179c-55 0 -92 29 -92 91c0 35 15 73 33 101c-15 18 -11 42 1 60v323c-5 3 -10 11 -10 26c0 30 30 52 58 52c38 0 48 -28 48 -50c0 -11 -4 -23 -13 -33v-322c6 -9 12 -18 12 -29c0 -14 -9 -27 -19 -33c-37 -26 -51 -59 -51 -92c0 -26 19 -40 38 -40
c22 0 38 15 40 29c-2 2 -3 5 -3 10c0 10 10 18 31 18c18 0 31 -13 31 -34c0 -31 -36 -77 -104 -77z" />
    <glyph glyph-name="dotlessi.sc" horiz-adv-x="196" 
d="M140 391v-322c6 -8 12 -18 12 -28c0 -21 -21 -45 -53 -45s-53 18 -53 44c0 12 4 23 11 33v323c-5 3 -10 11 -10 26c0 30 30 52 58 52c38 0 48 -28 48 -50c0 -10 -4 -23 -13 -33z" />
    <glyph glyph-name="kcommaaccent.sc" horiz-adv-x="407" 
d="M141 237v-174c6 -4 9 -12 10 -22c1 -36 -29 -45 -51 -45c-28 0 -54 14 -52 46c0 12 4 19 10 24v342c-5 6 -5 14 -5 21c0 34 23 45 44 45c22 0 50 -9 50 -38c0 -11 -4 -23 -6 -24v-96h1c7 11 17 26 38 44l87 78c11 23 22 35 44 35c10 0 47 -11 47 -41
c0 -15 -16 -41 -35 -43l-124 -109l169 -210c16 -3 28 -18 28 -29c0 -19 -25 -48 -56 -48c-32 0 -42 16 -42 31l-119 152c-20 26 -31 42 -37 61h-1zM160 -239c-18 0 -23 8 -23 22c0 19 12 29 34 31c25 3 42 24 42 56c0 12 -5 21 -13 25c-33 -3 -41 14 -41 30
c0 14 10 28 30 28c42 0 78 -31 78 -84c0 -73 -63 -108 -107 -108z" />
    <glyph glyph-name="lacute.sc" horiz-adv-x="322" 
d="M141 403v-332l93 12c6 6 22 12 29 12c16 0 39 -11 39 -42c0 -33 -17 -47 -36 -47c-7 0 -16 2 -24 4l-110 -17c-9 -2 -26 -4 -37 -4c-27 0 -48 11 -48 40c0 15 5 26 11 32v344c-3 6 -5 13 -5 21c0 38 24 48 51 48c20 0 44 -6 44 -46c0 -9 -4 -18 -7 -25zM240 633l-57 -77
c-1 -17 -16 -32 -39 -32s-37 13 -37 34c0 12 9 27 22 29l59 79c-9 25 15 33 34 33c22 0 38 -13 38 -34c0 -14 -7 -26 -20 -32z" />
    <glyph glyph-name="lcaron.sc" horiz-adv-x="322" 
d="M141 403v-332l92 12c7 6 23 12 29 12c16 0 39 -11 39 -42c0 -33 -17 -47 -35 -47c-7 0 -17 2 -25 4l-109 -17c-9 -2 -26 -4 -37 -4c-27 0 -48 11 -48 40c0 15 5 26 11 32v344c-3 6 -5 13 -5 21c0 38 24 48 51 48c20 0 44 -6 44 -46c0 -9 -4 -18 -7 -25zM204 294
c-18 0 -23 8 -23 22c0 19 12 29 34 31c24 3 41 24 41 55c0 12 -5 22 -13 26c-32 -4 -40 13 -40 29c0 15 10 28 30 28c41 0 77 -30 77 -83c0 -73 -63 -108 -106 -108z" />
    <glyph glyph-name="lcommaaccent.sc" horiz-adv-x="322" 
d="M141 403v-332l93 12c6 6 22 12 29 12c16 0 39 -11 39 -42c0 -33 -17 -47 -36 -47c-7 0 -16 2 -24 4l-110 -17c-9 -2 -26 -4 -37 -4c-27 0 -48 11 -48 40c0 15 5 26 11 32v344c-3 6 -5 13 -5 21c0 38 24 48 51 48c20 0 44 -6 44 -46c0 -9 -4 -18 -7 -25zM119 -239
c-19 0 -24 8 -24 22c0 19 12 29 34 31c25 3 41 24 41 56c0 11 -5 21 -13 25c-31 -3 -40 14 -40 30c0 14 10 28 30 28c41 0 77 -31 77 -84c0 -73 -63 -108 -105 -108z" />
    <glyph glyph-name="lslash.sc" unicode="&#xf6f9;" horiz-adv-x="302" 
d="M154 290l32 22c1 8 15 18 31 18c20 0 39 -17 39 -40c0 -22 -25 -48 -46 -37l-56 -34v-148l93 12c6 6 22 12 29 12c16 0 39 -11 39 -42c0 -33 -17 -47 -36 -47c-7 0 -16 2 -24 4l-110 -17c-9 -2 -26 -4 -37 -4c-27 0 -48 11 -48 40c0 15 5 26 11 32v116l-15 -10
c-1 -7 -13 -14 -29 -14c-19 0 -32 15 -32 33c0 30 15 47 26 47c10 0 13 1 18 -1l32 18v155c-3 6 -5 13 -5 21c0 38 24 48 51 48c20 0 44 -6 44 -46c0 -9 -4 -18 -7 -24v-114z" />
    <glyph glyph-name="nacute.sc" horiz-adv-x="430" 
d="M58 61v344c-4 7 -6 17 -6 26c0 21 15 43 46 43c39 0 48 -11 48 -34c0 -15 10 -44 20 -66c14 -28 47 -77 71 -106c18 -23 50 -68 59 -92h1c-3 77 -2 163 -2 244c-2 6 -8 14 -8 22c0 30 20 40 40 40c24 0 50 -11 50 -32c0 -15 -3 -20 -5 -26v-375c4 -7 9 -13 9 -22
c0 -21 -10 -31 -48 -31c-28 0 -37 25 -46 49c-13 41 -57 113 -87 151c-21 29 -59 80 -68 106h-1c2 -75 4 -165 4 -241c3 -5 7 -15 7 -23c0 -29 -11 -42 -42 -42c-29 0 -52 11 -52 42c0 7 6 18 10 23zM312 631l-57 -77c-1 -17 -16 -32 -39 -32c-22 0 -36 14 -37 34
c1 12 9 27 22 30l59 78c-9 25 15 33 34 33c23 0 38 -13 38 -34c0 -14 -7 -26 -20 -32z" />
    <glyph glyph-name="ncaron.sc" horiz-adv-x="430" 
d="M58 61v344c-4 7 -6 17 -6 26c0 21 15 43 46 43c39 0 48 -11 48 -34c0 -15 10 -44 20 -66c14 -28 47 -77 71 -106c18 -23 50 -68 59 -92h1c-3 77 -2 163 -2 244c-2 6 -8 14 -8 22c0 30 20 40 40 40c24 0 50 -11 50 -32c0 -15 -3 -20 -5 -26v-375c4 -7 9 -13 9 -22
c0 -21 -10 -31 -48 -31c-28 0 -37 25 -46 49c-13 41 -57 113 -87 151c-21 29 -59 80 -68 106h-1c2 -75 4 -165 4 -241c3 -5 7 -15 7 -23c0 -29 -11 -42 -42 -42c-29 0 -52 11 -52 42c0 7 6 18 10 23zM307 598l-61 -63c-8 -8 -20 -13 -36 -13c-12 0 -24 9 -29 18l-36 60
c-9 6 -18 15 -18 28c0 21 12 36 35 36c17 0 27 -15 33 -29l26 -44l42 46c2 14 16 27 31 27c19 0 36 -11 36 -32c0 -16 -14 -27 -23 -34z" />
    <glyph glyph-name="ncommaaccent.sc" horiz-adv-x="430" 
d="M58 61v344c-4 7 -6 17 -6 26c0 21 15 43 46 43c39 0 48 -11 48 -34c0 -15 11 -44 20 -66c14 -28 47 -77 71 -106c18 -23 50 -68 59 -92h1c-3 77 -2 163 -2 244c-2 6 -8 14 -8 22c0 30 20 40 40 40c24 0 50 -11 50 -32c0 -15 -3 -20 -5 -26v-375c4 -7 9 -13 9 -22
c0 -21 -10 -31 -48 -31c-28 0 -37 25 -46 49c-13 41 -57 113 -87 151c-21 29 -59 80 -68 106h-1c2 -75 4 -165 4 -241c3 -5 7 -15 7 -23c0 -29 -11 -42 -42 -42c-29 0 -52 11 -52 42c0 7 6 18 10 23zM175 -220c-19 0 -24 8 -24 22c0 19 12 29 34 31c25 3 42 24 42 55
c0 12 -5 22 -13 26c-32 -3 -40 14 -40 30c0 14 9 27 30 27c41 0 77 -30 77 -83c0 -73 -63 -108 -106 -108z" />
    <glyph glyph-name="ntilde.sc" unicode="&#xf7f1;" horiz-adv-x="430" 
d="M58 61v344c-4 7 -6 17 -6 26c0 21 15 43 46 43c39 0 48 -11 48 -34c0 -15 10 -44 20 -66c14 -28 47 -77 71 -106c18 -23 50 -68 59 -92h1c-3 77 -2 163 -2 244c-2 6 -8 14 -8 22c0 30 20 40 40 40c24 0 50 -11 50 -32c0 -15 -3 -20 -5 -26v-375c4 -7 9 -13 9 -22
c0 -21 -10 -31 -48 -31c-28 0 -37 25 -46 49c-13 41 -57 113 -87 151c-21 29 -59 80 -68 106h-1c2 -75 4 -165 4 -241c3 -5 7 -15 7 -23c0 -29 -11 -42 -42 -42c-29 0 -52 11 -52 42c0 7 6 18 10 23zM263 534c-30 0 -53 23 -62 33c-10 11 -19 21 -28 21
c-12 0 -23 -9 -30 -27c-6 -14 -15 -22 -32 -22c-26 0 -36 17 -36 33c0 8 10 15 14 22c24 41 48 56 88 56c22 0 37 -14 51 -28s26 -28 40 -28c15 0 21 19 21 32c0 21 17 28 33 28c21 0 36 -14 36 -26c0 -6 -3 -12 -5 -17c-14 -45 -37 -77 -90 -77z" />
    <glyph glyph-name="oacute.sc" unicode="&#xf7f3;" horiz-adv-x="430" 
d="M248 495c76 0 148 -61 148 -227c0 -162 -102 -282 -226 -282c-108 0 -142 111 -142 193c0 148 104 316 220 316zM235 423c-52 0 -120 -123 -120 -232c0 -65 18 -133 74 -133c57 0 121 88 121 206c0 96 -21 159 -75 159zM320 654l-57 -77c-1 -17 -16 -33 -39 -33
s-37 14 -38 34c1 13 10 28 22 30l60 79c-9 25 15 33 34 33c22 0 38 -13 38 -34c0 -14 -7 -26 -20 -32z" />
    <glyph glyph-name="ocircumflex.sc" unicode="&#xf7f4;" horiz-adv-x="430" 
d="M248 495c76 0 148 -61 148 -227c0 -162 -102 -282 -226 -282c-108 0 -142 111 -142 193c0 148 104 316 220 316zM235 423c-52 0 -120 -123 -120 -232c0 -65 18 -133 74 -133c57 0 121 88 121 206c0 96 -21 159 -75 159zM274 689l51 -91c7 -6 13 -16 13 -30
c0 -17 -16 -34 -38 -34c-23 0 -28 20 -26 33l-35 68l-44 -69c2 -20 -15 -32 -29 -32c-24 0 -37 22 -37 35c0 15 9 22 17 32l64 95c8 10 16 21 31 21c19 0 28 -20 33 -28z" />
    <glyph glyph-name="odieresis.sc" unicode="&#xf7f6;" horiz-adv-x="430" 
d="M248 495c76 0 148 -61 148 -227c0 -162 -102 -282 -226 -282c-108 0 -142 111 -142 193c0 148 104 316 220 316zM235 423c-52 0 -120 -123 -120 -232c0 -65 18 -133 74 -133c57 0 121 88 121 206c0 96 -21 159 -75 159zM151 552c-26 0 -38 36 -38 55c0 26 9 57 49 57
c17 0 45 -4 45 -42c0 -45 -6 -70 -56 -70zM299 554c-33 0 -42 24 -42 52c0 27 9 58 43 58c17 0 51 -14 51 -48c0 -31 -11 -62 -52 -62z" />
    <glyph glyph-name="ograve.sc" unicode="&#xf7f2;" horiz-adv-x="430" 
d="M248 495c76 0 148 -61 148 -227c0 -162 -102 -282 -226 -282c-108 0 -142 111 -142 193c0 148 104 316 220 316zM235 423c-52 0 -120 -123 -120 -232c0 -65 18 -133 74 -133c57 0 121 88 121 206c0 96 -21 159 -75 159zM198 677l43 -70c8 -3 20 -15 20 -30
c0 -26 -22 -35 -42 -35c-21 0 -33 19 -32 36l-43 69c-11 5 -20 16 -20 32c0 15 6 36 42 36c21 0 31 -17 32 -38z" />
    <glyph glyph-name="ohungarumlaut.sc" horiz-adv-x="430" 
d="M248 495c76 0 148 -61 148 -227c0 -162 -102 -282 -226 -282c-108 0 -142 111 -142 193c0 148 104 316 220 316zM235 423c-52 0 -120 -123 -120 -232c0 -65 18 -133 74 -133c57 0 121 88 121 206c0 96 -21 159 -75 159zM407 657l-69 -91c3 -16 -14 -44 -43 -44
c-17 0 -33 9 -33 38c0 12 4 19 13 23l70 94c-9 18 7 45 39 45c15 0 39 -12 39 -40c0 -10 -5 -17 -16 -25zM276 657l-69 -91c3 -16 -13 -44 -42 -44c-17 0 -33 9 -34 38c1 12 5 19 14 23l70 94c-9 18 7 45 39 45c15 0 39 -12 39 -40c0 -10 -5 -17 -17 -25z" />
    <glyph glyph-name="omacron.sc" horiz-adv-x="430" 
d="M248 495c76 0 148 -61 148 -227c0 -162 -102 -282 -226 -282c-108 0 -142 111 -142 193c0 148 104 316 220 316zM235 423c-52 0 -120 -123 -120 -232c0 -65 18 -133 74 -133c57 0 121 88 121 206c0 96 -21 159 -75 159zM300 573l-109 -16c-6 -3 -18 -4 -23 -4
c-16 0 -31 18 -31 37c0 29 19 40 31 40c8 0 16 -3 20 -5l101 15c7 4 17 7 24 7c17 0 32 -14 32 -38c0 -32 -30 -41 -45 -36z" />
    <glyph glyph-name="otilde.sc" unicode="&#xf7f5;" horiz-adv-x="430" 
d="M248 495c76 0 148 -61 148 -227c0 -162 -102 -282 -226 -282c-108 0 -142 111 -142 193c0 148 104 316 220 316zM235 423c-52 0 -120 -123 -120 -232c0 -65 18 -133 74 -133c57 0 121 88 121 206c0 96 -21 159 -75 159zM266 545c-30 0 -53 23 -62 32
c-10 11 -19 21 -28 21c-12 0 -23 -9 -30 -27c-6 -14 -15 -22 -32 -22c-27 0 -36 17 -36 33c0 8 10 15 14 22c23 41 48 56 88 56c22 0 37 -14 51 -27c14 -14 27 -28 41 -28c15 0 20 18 20 31c0 21 18 28 33 28c21 0 36 -14 36 -26c0 -5 -3 -12 -4 -17
c-14 -44 -38 -76 -91 -76z" />
    <glyph glyph-name="racute.sc" horiz-adv-x="437" 
d="M50 46c0 11 7 20 11 26v256c-2 -1 -5 -1 -7 -1c-5 0 -17 7 -17 32c0 31 11 43 24 48v10c-2 5 -5 15 -5 24c0 23 24 41 49 41c20 0 40 -15 38 -38c0 -2 0 -5 -1 -9c46 22 99 38 148 38c54 0 96 -34 96 -82c0 -66 -52 -124 -188 -153l183 -157c33 12 55 -20 55 -35
c0 -34 -27 -55 -54 -55c-15 0 -34 9 -42 25l-198 180v-127c2 -7 8 -18 8 -29c0 -36 -35 -44 -65 -44c-20 0 -35 23 -35 50zM142 369v-84c104 22 160 53 160 96c0 14 -13 24 -35 24c-38 0 -86 -16 -125 -36zM314 652l-58 -77c-1 -17 -16 -33 -39 -33c-22 0 -37 14 -37 34
c0 13 9 28 22 30l59 79c-9 25 15 33 34 33c23 0 38 -13 38 -34c0 -14 -6 -26 -19 -32z" />
    <glyph glyph-name="rcaron.sc" horiz-adv-x="437" 
d="M50 46c0 11 7 20 11 26v256c-2 -1 -5 -1 -7 -1c-5 0 -17 7 -17 32c0 31 11 43 24 48v10c-2 5 -5 15 -5 24c0 23 24 41 49 41c20 0 40 -15 38 -38c0 -2 0 -5 -1 -9c46 22 99 38 148 38c54 0 96 -34 96 -82c0 -66 -52 -124 -188 -153l183 -157c33 12 55 -20 55 -35
c0 -34 -27 -55 -54 -55c-15 0 -34 9 -42 25l-198 180v-127c2 -7 8 -18 8 -29c0 -36 -35 -44 -65 -44c-20 0 -35 23 -35 50zM142 369v-84c104 22 160 53 160 96c0 14 -13 24 -35 24c-38 0 -86 -16 -125 -36zM309 600l-61 -63c-8 -9 -20 -13 -36 -13c-12 0 -24 8 -30 17
l-36 61c-8 5 -17 15 -17 28c0 21 12 36 35 36c16 0 27 -15 33 -29l26 -44l42 46c2 14 16 27 31 27c19 0 37 -11 37 -32c0 -16 -14 -28 -24 -34z" />
    <glyph glyph-name="rcommaaccent.sc" horiz-adv-x="437" 
d="M50 46c0 11 7 20 11 26v256c-2 -1 -5 -1 -7 -1c-5 0 -17 7 -17 32c0 31 11 43 24 48v10c-2 5 -5 15 -5 24c0 23 24 41 49 41c20 0 40 -15 38 -38c0 -2 0 -5 -1 -9c46 22 99 38 148 38c54 0 96 -34 96 -82c0 -66 -52 -124 -188 -153l183 -157c33 12 55 -20 55 -35
c0 -34 -27 -55 -54 -55c-15 0 -34 9 -42 25l-198 180v-127c2 -7 8 -18 8 -29c0 -36 -35 -44 -65 -44c-20 0 -35 23 -35 50zM142 369v-84c104 22 160 53 160 96c0 14 -13 24 -35 24c-38 0 -86 -16 -125 -36zM175 -220c-19 0 -24 8 -24 22c0 19 12 29 34 31c25 3 42 24 42 56
c0 11 -5 21 -13 25c-32 -3 -40 14 -40 30c0 14 9 28 30 28c41 0 77 -31 77 -84c0 -73 -63 -108 -106 -108z" />
    <glyph glyph-name="sacute.sc" horiz-adv-x="423" 
d="M240 476c58 0 111 -30 111 -69c0 -21 -19 -40 -44 -40s-40 9 -43 25c-5 7 -20 13 -37 13c-54 0 -110 -47 -110 -96c0 -23 8 -31 24 -31c18 0 40 5 74 14c35 9 53 15 87 15c54 0 93 -39 93 -103c0 -40 -17 -84 -36 -111c-46 -67 -143 -104 -215 -104
c-83 0 -111 62 -111 88c0 23 18 50 46 50c27 0 32 -29 38 -43c6 -16 17 -23 35 -23c48 0 103 25 133 63c16 20 26 45 26 73c0 24 -13 35 -32 35c-23 0 -45 -6 -75 -15c-34 -9 -57 -14 -86 -14c-48 0 -87 28 -87 95c0 84 92 178 209 178zM304 638l-57 -77
c-2 -17 -17 -33 -40 -33c-22 0 -37 14 -37 35c0 12 9 27 22 29l59 79c-9 25 15 33 35 33c22 0 38 -13 38 -34c0 -14 -7 -26 -20 -32z" />
    <glyph glyph-name="scaron.sc" unicode="&#xf6fd;" horiz-adv-x="423" 
d="M240 476c58 0 111 -30 111 -69c0 -21 -19 -40 -44 -40s-40 9 -43 25c-5 7 -20 13 -37 13c-54 0 -110 -47 -110 -96c0 -23 8 -31 24 -31c18 0 40 5 74 14c35 9 53 15 87 15c54 0 93 -39 93 -103c0 -40 -17 -84 -36 -111c-46 -67 -143 -104 -215 -104
c-83 0 -111 62 -111 88c0 23 18 50 46 50c27 0 32 -29 38 -43c6 -16 17 -23 35 -23c48 0 103 25 133 63c16 20 26 45 26 73c0 24 -13 35 -32 35c-23 0 -45 -6 -75 -15c-34 -9 -57 -14 -86 -14c-48 0 -87 28 -87 95c0 84 92 178 209 178zM302 600l-62 -63
c-8 -8 -20 -13 -36 -13c-11 0 -24 8 -29 18l-37 60c-8 5 -18 15 -18 28c0 21 13 36 36 36c17 0 27 -15 33 -29l27 -44l42 46c2 14 16 27 31 27c19 0 37 -11 37 -32c0 -16 -15 -27 -24 -34z" />
    <glyph glyph-name="scedilla.sc" horiz-adv-x="423" 
d="M225 -4l-16 -33c39 1 64 -27 64 -74c0 -55 -36 -104 -106 -104c-13 0 -25 5 -34 13c-4 -3 -8 -6 -14 -6c-10 0 -22 16 -22 34c0 20 17 38 30 38c7 0 17 -7 17 -15c7 -4 15 -8 25 -8c28 0 51 17 51 46c0 20 -7 28 -21 28c-5 0 -7 -3 -12 -6c-3 -4 -12 -6 -23 -6
c-15 0 -24 12 -24 24c0 7 6 21 12 26l22 39c-10 -2 -21 -3 -30 -3c-83 0 -111 62 -111 88c0 23 18 50 46 50c27 0 32 -29 38 -43c6 -16 17 -23 35 -23c48 0 103 25 132 63c17 20 27 45 27 73c0 24 -13 35 -32 35c-24 0 -46 -6 -75 -15c-34 -9 -57 -14 -86 -14
c-48 0 -87 28 -87 95c0 85 92 178 208 178c59 0 112 -30 112 -69c0 -21 -19 -40 -45 -40c-25 0 -39 9 -42 25c-6 7 -20 13 -37 13c-54 0 -110 -47 -110 -96c0 -23 8 -31 24 -31c18 0 40 5 74 14s52 15 86 15c55 0 94 -39 94 -103c0 -40 -17 -84 -36 -111
c-27 -41 -74 -69 -117 -84c-6 -3 -13 -8 -17 -13z" />
    <glyph glyph-name="scommaaccent.sc" horiz-adv-x="423" 
d="M240 476c57 0 110 -30 110 -69c0 -21 -19 -40 -44 -40s-39 9 -42 25c-6 7 -20 13 -37 13c-54 0 -110 -47 -110 -96c0 -23 8 -31 24 -31c18 0 40 5 74 14s53 15 86 15c55 0 94 -39 94 -103c0 -40 -17 -84 -36 -111c-46 -67 -143 -104 -215 -104c-83 0 -111 62 -111 88
c0 23 18 50 46 50c27 0 32 -29 38 -43c6 -16 17 -23 35 -23c48 0 103 25 132 63c17 20 27 45 27 73c0 24 -13 35 -32 35c-24 0 -46 -6 -75 -15c-34 -9 -57 -14 -86 -14c-48 0 -87 28 -87 95c0 84 92 178 209 178zM168 -240c-19 0 -24 8 -24 22c0 19 12 29 34 31
c25 3 42 24 42 55c0 12 -5 22 -13 26c-32 -4 -41 13 -41 29c0 15 10 28 31 28c41 0 77 -30 77 -83c0 -73 -63 -108 -106 -108z" />
    <glyph glyph-name="tcaron.sc" horiz-adv-x="345" 
d="M216 394v-333c2 -5 8 -12 8 -21c0 -24 -16 -44 -57 -44c-27 0 -39 14 -39 37c0 13 2 22 5 30v318l-58 -14c-7 -5 -17 -10 -29 -10c-23 0 -37 17 -37 38c0 27 18 45 33 45s19 -3 24 -4l74 18c10 12 45 19 62 12l78 18c11 4 17 6 26 6c20 0 36 -13 36 -43
c0 -22 -14 -42 -34 -42c-12 0 -19 3 -26 6zM260 600l-62 -63c-7 -9 -20 -13 -36 -13c-11 0 -24 8 -29 17l-36 61c-8 5 -18 15 -18 28c0 21 13 36 36 36c16 0 27 -15 33 -29l26 -44l42 46c2 14 16 27 31 27c19 0 36 -11 36 -32c0 -16 -14 -28 -23 -34z" />
    <glyph glyph-name="tcommaaccent.sc" horiz-adv-x="345" 
d="M216 394v-333c2 -5 8 -12 8 -21c0 -24 -16 -44 -57 -44c-27 0 -39 14 -39 37c0 13 2 22 5 30v318l-58 -14c-7 -5 -17 -10 -29 -10c-23 0 -37 17 -37 38c0 27 18 45 33 45s19 -3 24 -4l74 18c10 12 45 19 62 12l78 18c11 4 17 6 26 6c20 0 36 -13 36 -43
c0 -22 -14 -42 -34 -42c-12 0 -19 3 -26 6zM129 -239c-19 0 -24 8 -24 22c0 19 12 29 34 31c25 3 42 24 42 56c0 12 -5 21 -13 25c-32 -3 -40 14 -40 30c0 14 9 28 30 28c41 0 77 -31 77 -84c0 -73 -63 -108 -106 -108z" />
    <glyph glyph-name="uacute.sc" unicode="&#xf7fa;" horiz-adv-x="429" 
d="M173 -12c-70 0 -122 36 -122 106v321c-15 30 8 55 39 55c36 0 40 -35 40 -48v-333c5 -11 23 -24 44 -24c82 0 114 55 114 69v282c-5 5 -7 11 -7 20c0 25 21 41 51 41c16 0 38 -9 38 -34c0 -7 0 -12 -3 -18v-300c0 -13 -11 -50 -33 -72c-44 -43 -98 -65 -161 -65zM309 624
l-57 -77c-1 -17 -16 -33 -39 -33s-37 14 -37 35c0 12 9 27 22 29l59 79c-9 25 15 33 34 33c23 0 38 -13 38 -34c0 -14 -7 -26 -20 -32z" />
    <glyph glyph-name="ucircumflex.sc" unicode="&#xf7fb;" horiz-adv-x="429" 
d="M173 -12c-70 0 -122 36 -122 106v321c-15 30 8 55 39 55c36 0 40 -35 40 -48v-333c5 -11 23 -24 44 -24c82 0 114 55 114 69v282c-5 5 -7 11 -7 20c0 25 21 41 51 41c16 0 38 -9 38 -34c0 -7 0 -12 -3 -18v-300c0 -13 -11 -50 -33 -72c-44 -43 -98 -65 -161 -65zM255 680
l52 -92c6 -6 12 -15 12 -29c0 -18 -15 -34 -38 -34c-22 0 -27 19 -25 33l-36 68l-44 -69c2 -21 -15 -32 -28 -32c-25 0 -37 22 -37 34c0 16 8 22 17 33l64 95c7 10 16 21 30 21c20 0 29 -20 33 -28z" />
    <glyph glyph-name="udieresis.sc" unicode="&#xf7fc;" horiz-adv-x="429" 
d="M173 -12c-70 0 -122 36 -122 106v321c-15 30 8 55 39 55c36 0 40 -35 40 -48v-333c5 -11 23 -24 44 -24c82 0 114 55 114 69v282c-5 5 -7 11 -7 20c0 25 21 41 51 41c16 0 38 -9 38 -34c0 -7 0 -12 -3 -18v-300c0 -13 -11 -50 -33 -72c-44 -43 -98 -65 -161 -65zM131 538
c-26 0 -38 36 -38 55c0 26 9 57 49 57c17 0 45 -4 45 -42c0 -45 -6 -70 -56 -70zM279 540c-33 0 -42 24 -42 52c0 27 9 58 43 58c17 0 51 -14 51 -48c0 -31 -11 -62 -52 -62z" />
    <glyph glyph-name="ugrave.sc" unicode="&#xf7f9;" horiz-adv-x="429" 
d="M173 -12c-70 0 -122 36 -122 106v321c-15 30 8 55 39 55c36 0 40 -35 40 -48v-333c5 -11 23 -24 44 -24c82 0 114 55 114 69v282c-5 5 -7 11 -7 20c0 25 21 41 51 41c16 0 38 -9 38 -34c0 -7 0 -12 -3 -18v-300c0 -13 -11 -50 -33 -72c-44 -43 -98 -65 -161 -65zM197 659
l43 -70c8 -4 20 -16 20 -30c0 -26 -22 -35 -42 -35c-21 0 -34 19 -33 36l-43 68c-10 6 -19 17 -19 32c0 16 6 37 42 37c21 0 31 -18 32 -38z" />
    <glyph glyph-name="uhungarumlaut.sc" horiz-adv-x="429" 
d="M173 -12c-70 0 -122 36 -122 106v321c-15 30 8 55 39 55c36 0 40 -35 40 -48v-333c5 -11 23 -24 44 -24c82 0 114 55 114 69v282c-5 5 -7 11 -7 20c0 25 21 41 51 41c16 0 38 -9 38 -34c0 -7 0 -12 -3 -18v-300c0 -13 -11 -50 -33 -72c-44 -43 -98 -65 -161 -65zM378 648
l-69 -91c3 -15 -13 -44 -42 -44c-17 0 -33 9 -34 38c1 12 4 19 13 23l71 94c-9 18 6 45 38 45c15 0 39 -12 39 -40c0 -10 -5 -17 -16 -25zM248 648l-70 -91c3 -15 -13 -44 -41 -44c-18 0 -34 9 -35 38c1 12 5 19 14 23l70 94c-8 18 7 45 39 45c15 0 40 -12 40 -40
c0 -10 -6 -17 -17 -25z" />
    <glyph glyph-name="umacron.sc" horiz-adv-x="429" 
d="M173 -12c-70 0 -122 36 -122 106v321c-15 30 8 55 39 55c36 0 40 -35 40 -48v-333c5 -11 23 -24 44 -24c82 0 114 55 114 69v282c-5 5 -7 11 -7 20c0 25 21 41 51 41c16 0 38 -9 38 -34c0 -7 0 -12 -3 -18v-300c0 -13 -11 -50 -33 -72c-44 -43 -98 -65 -161 -65zM273 549
l-109 -16c-7 -3 -19 -4 -24 -4c-16 0 -31 18 -31 37c0 29 19 40 31 40c8 0 16 -3 20 -5l101 15c8 4 17 7 24 7c17 0 33 -14 33 -38c0 -32 -31 -40 -45 -36z" />
    <glyph glyph-name="uogonek.sc" horiz-adv-x="429" 
d="M242 -169c-49 0 -89 25 -89 84c0 29 8 53 24 74c-4 -1 -7 -1 -12 -1c-67 2 -114 41 -114 106v321c-15 30 8 55 39 55c36 0 40 -35 40 -48v-333c5 -11 23 -24 44 -24c82 0 114 55 114 69v282c-5 5 -7 11 -7 20c0 25 21 41 51 41c16 0 38 -9 38 -34c0 -7 0 -12 -3 -18v-300
c0 -13 -11 -50 -33 -72c-18 -18 -39 -32 -60 -42c-24 -12 -37 -23 -45 -36c-13 -18 -17 -36 -17 -56c0 -22 17 -34 35 -34c22 0 34 9 37 20c-2 2 -3 5 -3 10c0 10 10 18 30 18c19 0 32 -13 32 -34c0 -29 -34 -68 -101 -68z" />
    <glyph glyph-name="uring.sc" horiz-adv-x="429" 
d="M173 -12c-70 0 -122 36 -122 106v321c-15 30 8 55 39 55c36 0 40 -35 40 -48v-333c5 -11 23 -24 44 -24c82 0 114 55 114 69v282c-5 5 -7 11 -7 20c0 25 21 41 51 41c16 0 38 -9 38 -34c0 -7 0 -12 -3 -18v-300c0 -13 -11 -50 -33 -72c-44 -43 -98 -65 -161 -65zM198 519
h-2c-35 0 -63 34 -63 83c0 46 63 80 87 80c38 0 72 -26 72 -82c0 -53 -58 -81 -94 -81zM204 566c15 0 39 11 39 32c0 22 -6 37 -20 37c-18 0 -41 -13 -41 -37c0 -22 9 -32 22 -32z" />
    <glyph glyph-name="yacute.sc" unicode="&#xf7fd;" horiz-adv-x="412" 
d="M164 74v158c-31 69 -86 99 -126 168c-14 7 -26 23 -26 40c0 27 34 43 55 44c20 1 40 -16 38 -39c14 -37 79 -97 102 -141h1c27 39 72 75 102 118c5 8 13 19 15 25c7 20 13 37 43 37c22 0 41 -12 41 -36c0 -15 -9 -29 -21 -47c-11 -16 -23 -28 -30 -38
c-37 -47 -89 -86 -110 -132v-168c3 -4 10 -13 10 -24c0 -21 -17 -43 -56 -43c-33 0 -47 7 -47 43c0 10 2 29 9 35zM315 625l-57 -77c-2 -17 -17 -33 -39 -33c-23 0 -37 14 -38 34c1 13 10 28 22 30l59 79c-9 25 15 33 35 33c22 0 38 -13 38 -34c0 -14 -7 -26 -20 -32z" />
    <glyph glyph-name="ydieresis.sc" unicode="&#xf7ff;" horiz-adv-x="412" 
d="M164 74v158c-31 69 -86 99 -126 168c-14 7 -26 23 -26 40c0 27 34 43 55 44c20 1 40 -16 38 -39c14 -37 79 -97 102 -141h1c27 39 72 75 102 118c5 8 13 19 15 25c7 20 13 37 43 37c22 0 41 -12 41 -36c0 -15 -9 -29 -21 -47c-11 -16 -23 -28 -30 -38
c-37 -47 -89 -86 -110 -132v-168c3 -4 10 -13 10 -24c0 -21 -17 -43 -56 -43c-33 0 -47 7 -47 43c0 10 2 29 9 35zM128 533c-26 0 -38 36 -38 55c0 26 9 57 49 57c17 0 45 -4 45 -42c0 -45 -6 -70 -56 -70zM276 535c-33 0 -42 24 -42 52c0 27 9 58 43 58c17 0 51 -14 51 -48
c0 -31 -11 -62 -52 -62z" />
    <glyph glyph-name="zacute.sc" horiz-adv-x="407" 
d="M275 407l-139 -11c-10 -28 -29 -39 -50 -39c-28 0 -37 21 -37 37c0 44 21 86 59 86c11 0 21 -4 26 -10l175 11c13 1 25 3 35 3c21 0 39 -14 39 -28c0 -18 -7 -35 -26 -61l-234 -328l163 6c1 30 23 47 45 47c14 0 46 -4 46 -49c0 -50 -24 -72 -43 -72c-22 0 -43 1 -108 1
c-34 0 -47 -1 -84 -3c-39 -2 -57 -4 -69 -4c-33 0 -50 17 -50 45c0 10 4 24 17 38zM307 651l-57 -76c-1 -18 -16 -33 -39 -33s-37 14 -37 34c0 13 9 28 22 30l59 79c-9 25 15 33 34 33c23 0 38 -13 38 -34c0 -14 -7 -26 -20 -33z" />
    <glyph glyph-name="zcaron.sc" unicode="&#xf6ff;" horiz-adv-x="407" 
d="M275 407l-139 -11c-10 -28 -29 -39 -50 -39c-28 0 -37 21 -37 37c0 44 21 86 59 86c11 0 21 -4 26 -10l175 11c13 1 25 3 35 3c21 0 39 -14 39 -28c0 -18 -7 -35 -26 -61l-234 -328l163 6c1 30 23 47 45 47c14 0 46 -4 46 -49c0 -50 -24 -72 -43 -72c-22 0 -43 1 -108 1
c-34 0 -47 -1 -84 -3c-39 -2 -57 -4 -69 -4c-33 0 -50 17 -50 45c0 10 4 24 17 38zM304 600l-61 -63c-8 -9 -20 -13 -36 -13c-11 0 -24 8 -29 17l-36 61c-9 5 -18 15 -18 28c0 21 12 36 36 36c16 0 26 -16 32 -29l27 -44l41 46c3 14 17 27 32 27c19 0 36 -11 36 -32
c0 -16 -14 -28 -24 -34z" />
    <glyph glyph-name="zdotaccent.sc" horiz-adv-x="407" 
d="M275 407l-139 -11c-10 -28 -29 -39 -49 -39c-29 0 -38 21 -38 37c0 44 21 86 59 86c11 0 21 -4 26 -10l174 11c14 1 26 3 36 3c21 0 39 -14 39 -28c0 -18 -7 -35 -26 -61l-234 -328l163 6c0 30 23 47 45 47c14 0 46 -4 46 -49c0 -50 -24 -72 -43 -72c-22 0 -43 1 -108 1
c-34 0 -47 -1 -84 -3c-39 -2 -57 -4 -69 -4c-33 0 -50 17 -50 45c0 10 4 24 17 38zM198 537c-30 0 -40 19 -40 49c0 47 20 87 57 87c24 0 40 -16 40 -45c0 -56 -27 -91 -57 -91z" />
    <glyph glyph-name="acute.sc" unicode="&#xf7b4;" 
d="M249 652l-57 -77c-1 -17 -16 -33 -39 -33c-22 0 -36 14 -37 34c1 13 9 28 22 30l59 79c-9 25 15 33 34 33c22 0 38 -13 38 -34c0 -14 -7 -26 -20 -32z" />
    <glyph glyph-name="breve.sc" unicode="&#xf6f4;" 
d="M138 519c-58 0 -97 63 -97 103c0 25 14 32 35 32c16 0 33 -7 33 -29c0 -21 13 -43 31 -43c21 0 38 11 46 36c-3 5 -4 10 -4 17c0 15 22 23 39 23c19 0 33 -11 33 -28c0 -9 -2 -18 -7 -24c-20 -53 -49 -87 -109 -87z" />
    <glyph glyph-name="caron.sc" unicode="&#xf6f5;" 
d="M245 600l-61 -63c-8 -9 -20 -13 -36 -13c-11 0 -24 8 -29 17l-36 61c-8 5 -18 15 -18 28c0 21 12 36 36 36c16 0 26 -15 32 -29l27 -44l41 46c3 14 17 27 32 27c19 0 36 -11 36 -32c0 -16 -14 -28 -24 -34z" />
    <glyph glyph-name="cedilla.sc" unicode="&#xf7b8;" 
d="M190 59c0 -7 -6 -20 -16 -22l-21 -42c39 1 64 -27 64 -74c0 -54 -36 -104 -105 -104c-14 0 -26 5 -34 13c-5 -3 -8 -6 -15 -6c-10 0 -22 16 -22 34c0 20 17 39 30 39c7 0 17 -8 17 -15c7 -5 15 -9 25 -9c28 0 51 17 51 46c0 20 -7 28 -21 28c-5 0 -7 -3 -12 -6
c-3 -4 -12 -6 -23 -6c-15 0 -24 12 -24 24c0 7 6 21 12 26l47 83c0 12 11 20 22 20c12 0 25 -14 25 -29z" />
    <glyph glyph-name="circumflex.sc" unicode="&#xf6f6;" 
d="M188 678l51 -90c7 -7 13 -16 13 -30c0 -17 -16 -34 -38 -34s-27 20 -26 33l-35 68l-43 -69c2 -20 -15 -32 -29 -32c-24 0 -37 22 -37 35c0 15 8 22 17 32l64 95c7 10 16 21 30 21c19 0 29 -20 33 -29z" />
    <glyph glyph-name="space_uni0326.sc" 
d="M104 -239c-19 0 -24 8 -24 22c0 19 12 29 34 31c25 3 42 24 42 55c0 12 -5 22 -13 26c-32 -3 -40 14 -40 30c0 14 9 27 30 27c41 0 77 -30 77 -83c0 -73 -63 -108 -106 -108z" />
    <glyph glyph-name="dieresis.sc" unicode="&#xf7a8;" 
d="M67 548c-26 0 -38 36 -38 55c0 26 9 57 49 57c17 0 45 -4 45 -42c0 -45 -6 -70 -56 -70zM215 550c-33 0 -42 24 -42 52c0 27 9 58 43 58c17 0 51 -14 51 -48c0 -31 -11 -62 -52 -62z" />
    <glyph glyph-name="dotaccent.sc" unicode="&#xf6f7;" 
d="M142 537c-30 0 -40 19 -40 49c0 47 20 87 57 87c24 0 40 -16 40 -45c0 -56 -27 -91 -57 -91z" />
    <glyph glyph-name="grave.sc" unicode="&#xf760;" 
d="M130 677l43 -70c8 -3 20 -15 20 -30c0 -26 -22 -35 -42 -35c-21 0 -34 19 -33 36l-42 69c-11 5 -20 16 -20 32c0 15 6 36 42 36c21 0 31 -18 32 -38z" />
    <glyph glyph-name="hungarumlaut.sc" unicode="&#xf6f8;" 
d="M295 641l-69 -91c3 -16 -14 -44 -43 -44c-17 0 -33 9 -33 38c0 12 4 19 12 23l71 94c-9 18 7 45 38 45c16 0 40 -12 40 -40c0 -10 -5 -17 -16 -25zM164 641l-69 -91c3 -16 -14 -44 -42 -44c-17 0 -33 9 -34 38c1 12 5 19 14 23l69 94c-8 18 8 45 39 45
c16 0 40 -12 40 -40c0 -10 -5 -17 -17 -25z" />
    <glyph glyph-name="macron.sc" unicode="&#xf7af;" 
d="M207 595l-109 -16c-6 -2 -18 -4 -23 -4c-16 0 -31 18 -31 37c0 29 18 40 31 40c7 0 15 -3 20 -4l100 13c8 4 18 7 24 7c17 0 33 -14 33 -38c0 -31 -31 -40 -45 -35z" />
    <glyph glyph-name="Abreve" unicode="&#x102;" horiz-adv-x="496" 
d="M338 231l-189 -16c-32 -92 -40 -111 -43 -130c-4 -16 -3 -35 -3 -49c0 -24 -13 -41 -55 -41c-29 0 -44 21 -44 43c0 24 16 58 45 133l134 342c12 34 20 60 24 83c-1 35 17 69 50 69c37 0 50 -24 50 -38c0 -20 -8 -25 -8 -41c0 -35 58 -182 83 -246
c58 -152 92 -246 92 -285s-25 -60 -56 -60c-24 0 -46 16 -46 36c0 18 7 29 7 39c0 16 -5 47 -41 161zM178 292l135 11l-63 184zM246 681c-58 0 -97 63 -97 103c0 26 14 32 35 32c16 0 33 -6 33 -29c0 -21 13 -43 31 -43c21 0 38 11 46 36c-3 5 -4 11 -4 17c0 15 22 23 39 23
c19 0 33 -11 33 -28c0 -9 -2 -18 -7 -24c-20 -53 -49 -87 -109 -87z" />
    <glyph glyph-name="Amacron" unicode="&#x100;" horiz-adv-x="496" 
d="M338 231l-189 -16c-32 -92 -40 -111 -43 -130c-4 -16 -3 -35 -3 -49c0 -24 -13 -41 -55 -41c-29 0 -44 21 -44 43c0 24 16 58 45 133l134 342c12 34 20 60 24 83c-1 35 17 69 50 69c37 0 50 -24 50 -38c0 -20 -8 -25 -8 -41c0 -35 58 -182 83 -246
c58 -152 92 -246 92 -285s-25 -60 -56 -60c-24 0 -46 16 -46 36c0 18 7 29 7 39c0 16 -5 47 -41 161zM178 292l135 11l-63 184zM313 740l-109 -16c-6 -3 -18 -4 -23 -4c-16 0 -31 18 -31 37c0 29 19 40 31 40c7 0 16 -3 20 -5l101 15c8 4 17 7 24 7c17 0 33 -14 33 -38
c0 -32 -31 -40 -46 -36z" />
    <glyph glyph-name="Aogonek" unicode="&#x104;" horiz-adv-x="496" 
d="M178 292l135 11l-63 184zM368 -184c-50 0 -90 25 -90 84c0 76 55 127 97 145c2 7 4 16 4 25c0 16 -5 47 -41 161l-189 -16c-32 -92 -40 -111 -43 -130c-4 -16 -3 -35 -3 -49c0 -24 -13 -41 -55 -41c-29 0 -44 21 -44 43c0 24 16 58 45 133l134 342c12 34 20 60 24 83
c-1 35 17 69 50 69c37 0 50 -24 50 -38c0 -20 -8 -25 -8 -41c0 -35 58 -182 83 -246c58 -152 92 -246 92 -285s-25 -60 -56 -60c-11 0 -26 -1 -34 -6c-9 -5 -18 -11 -30 -29c-13 -18 -17 -37 -17 -57c0 -21 17 -33 35 -33c22 0 34 8 37 19c-2 3 -3 6 -3 11c0 10 10 18 30 18
c19 0 32 -14 32 -34c0 -30 -34 -68 -100 -68z" />
    <glyph glyph-name="Cacute" unicode="&#x106;" horiz-adv-x="443" 
d="M276 656c102 0 146 -57 146 -93c0 -38 -21 -53 -46 -53c-28 0 -39 12 -43 38c-2 16 -26 29 -58 29c-93 0 -157 -224 -157 -328c0 -131 48 -188 86 -188c42 0 98 34 118 72c2 26 5 59 48 59c31 0 43 -25 43 -41s-2 -34 -24 -64c-26 -36 -101 -105 -196 -105
c-93 0 -164 86 -164 272c0 131 87 402 247 402zM354 806l-57 -76c-1 -18 -16 -33 -39 -33c-22 0 -37 14 -37 34c0 13 9 27 22 30l59 79c-9 25 15 33 34 33c23 0 38 -13 38 -34c0 -15 -7 -26 -20 -33z" />
    <glyph glyph-name="Ccaron" unicode="&#x10c;" horiz-adv-x="443" 
d="M276 656c102 0 146 -57 146 -93c0 -38 -21 -53 -46 -53c-28 0 -39 12 -43 38c-2 16 -26 29 -58 29c-93 0 -157 -224 -157 -328c0 -131 48 -188 86 -188c42 0 98 34 118 72c2 26 5 59 48 59c31 0 43 -25 43 -41s-2 -34 -24 -64c-26 -36 -101 -105 -196 -105
c-93 0 -164 86 -164 272c0 131 87 402 247 402zM350 763l-61 -63c-8 -9 -20 -13 -36 -13c-12 0 -24 8 -29 17l-36 61c-9 5 -18 15 -18 28c0 21 12 36 35 36c17 0 27 -16 33 -29l26 -44l42 46c3 14 17 27 32 27c19 0 36 -12 36 -32c0 -16 -14 -28 -24 -34z" />
    <glyph glyph-name="Dcaron" unicode="&#x10e;" horiz-adv-x="485" 
d="M40 26c0 21 4 31 12 39v519c-2 6 -5 14 -5 28c0 15 12 41 52 41c35 0 44 -23 39 -42c45 28 85 41 150 41c90 0 171 -114 171 -226c0 -104 -23 -214 -82 -292c-72 -95 -197 -148 -279 -148c-42 0 -58 14 -58 40zM138 530v-458c69 10 132 45 173 112c42 69 58 141 58 234
c0 77 -51 158 -107 158c-41 0 -84 -16 -124 -46zM326 761l-62 -63c-7 -9 -20 -13 -36 -13c-11 0 -24 8 -29 17l-36 61c-8 5 -18 15 -18 28c0 21 12 36 36 36c16 0 26 -15 32 -29l27 -44l42 46c2 14 16 27 31 27c19 0 36 -11 36 -32c0 -16 -14 -28 -23 -34z" />
    <glyph glyph-name="Dcroat" unicode="&#x110;" horiz-adv-x="501" 
d="M56 26c0 21 4 31 12 39v218l-19 -2c-6 -2 -13 -6 -19 -6c-18 0 -32 12 -32 30c0 31 19 48 39 50l31 3v226c-2 6 -5 14 -5 28c0 15 12 41 52 41c35 0 44 -23 39 -42c45 28 85 41 150 41c90 0 171 -106 171 -208c0 -114 -23 -232 -82 -310c-72 -95 -197 -148 -279 -148
c-42 0 -58 14 -58 40zM154 530v-164l84 10c5 1 19 8 35 8c24 0 34 -17 34 -39c0 -28 -11 -50 -39 -50c-11 0 -21 3 -33 6l-81 -9v-220c69 10 132 45 173 112c42 69 58 149 58 252c0 67 -51 140 -107 140c-41 0 -84 -16 -124 -46z" />
    <glyph glyph-name="Ecaron" unicode="&#x11a;" horiz-adv-x="442" 
d="M147 281v-201l190 15c8 9 19 14 30 14c32 0 53 -24 53 -45c0 -40 -28 -48 -78 -48l-196 -15c-7 -9 -25 -16 -53 -16c-24 0 -45 17 -45 48c0 16 6 32 13 42v193c-12 12 -18 28 -18 43c0 18 10 36 18 44v165c-14 7 -21 20 -21 35c0 19 6 29 15 35c-4 5 -6 12 -6 17
c0 20 24 35 53 35c28 0 44 -13 45 -34l157 17c9 6 23 15 33 15c38 0 55 -20 55 -44c0 -32 -20 -55 -54 -55c-12 0 -19 3 -31 6l-160 -18v-169l122 18c9 7 21 14 32 14c32 0 52 -25 52 -48c0 -34 -20 -49 -56 -49c-7 0 -13 3 -19 6zM312 752l-61 -63c-8 -9 -20 -13 -36 -13
c-12 0 -24 8 -29 17l-36 61c-9 5 -18 15 -18 28c0 21 12 36 35 36c17 0 27 -15 33 -29l26 -44l42 46c3 14 17 27 32 27c19 0 36 -11 36 -32c0 -16 -14 -28 -24 -34z" />
    <glyph glyph-name="Edotaccent" unicode="&#x116;" horiz-adv-x="442" 
d="M147 281v-201l190 15c8 9 19 14 30 14c32 0 53 -24 53 -45c0 -40 -28 -48 -78 -48l-196 -15c-7 -9 -25 -16 -53 -16c-24 0 -45 17 -45 48c0 16 6 32 13 42v193c-12 12 -18 28 -18 43c0 18 10 36 18 44v165c-14 7 -21 20 -21 35c0 19 6 29 15 35c-4 5 -6 12 -6 17
c0 20 24 35 53 35c28 0 44 -13 45 -34l157 17c9 6 23 15 33 15c38 0 55 -20 55 -44c0 -32 -20 -55 -54 -55c-12 0 -19 3 -31 6l-160 -18v-169l122 18c9 7 21 14 32 14c32 0 52 -25 52 -48c0 -34 -20 -49 -56 -49c-7 0 -13 3 -19 6zM216 662c-30 0 -40 19 -40 49
c0 47 20 87 57 87c24 0 40 -16 40 -45c0 -56 -27 -91 -57 -91z" />
    <glyph glyph-name="Emacron" unicode="&#x112;" horiz-adv-x="442" 
d="M147 281v-201l190 15c8 9 19 14 30 14c32 0 53 -24 53 -45c0 -40 -28 -48 -78 -48l-196 -15c-7 -9 -25 -16 -53 -16c-24 0 -45 17 -45 48c0 16 6 32 13 42v193c-12 12 -18 28 -18 43c0 18 10 36 18 44v165c-14 7 -21 20 -21 35c0 19 6 29 15 35c-4 5 -6 12 -6 17
c0 20 24 35 53 35c28 0 44 -13 45 -34l157 17c9 6 23 15 33 15c38 0 55 -20 55 -44c0 -32 -20 -55 -54 -55c-12 0 -19 3 -31 6l-160 -18v-169l122 18c9 7 21 14 32 14c32 0 52 -25 52 -48c0 -34 -20 -49 -56 -49c-7 0 -13 3 -19 6zM281 721l-108 -16c-7 -3 -19 -4 -23 -4
c-17 0 -32 18 -32 37c0 29 19 40 31 40c8 0 16 -3 20 -5l101 15c7 4 17 7 24 7c17 0 32 -14 32 -38c0 -32 -30 -40 -45 -36z" />
    <glyph glyph-name="Eogonek" unicode="&#x118;" horiz-adv-x="442" 
d="M312 -165c-49 0 -89 25 -89 84c0 36 12 68 32 90l-109 -8c-7 -9 -25 -16 -53 -16c-24 0 -45 17 -45 47c0 17 6 33 13 43v193c-12 12 -18 28 -18 43c0 18 10 36 18 44v165c-14 7 -21 20 -21 35c0 19 6 29 15 35c-4 5 -6 12 -6 17c0 20 24 35 53 35c28 0 44 -13 45 -34
l157 17c8 6 22 15 32 15c38 0 55 -20 55 -44c0 -32 -20 -55 -54 -55c-11 0 -19 3 -30 6l-160 -18v-169l122 18c9 7 21 14 32 14c31 0 51 -25 51 -48c0 -34 -19 -49 -55 -49c-7 0 -13 3 -19 6l-131 -20v-201l189 15c8 9 19 14 30 14c32 0 53 -25 53 -45
c0 -40 -28 -44 -75 -48c-15 -5 -33 -20 -45 -37c-13 -18 -17 -37 -17 -57c0 -21 16 -33 35 -33c22 0 33 9 36 20c-2 2 -3 5 -3 10c0 10 10 18 30 18c19 0 32 -14 32 -34c0 -29 -34 -68 -100 -68z" />
    <glyph glyph-name="Gbreve" unicode="&#x11e;" horiz-adv-x="536" 
d="M342 665c48 0 82 -16 103 -42c20 -24 32 -55 32 -69c0 -21 -14 -43 -45 -43c-29 0 -41 16 -47 46c-1 13 -19 32 -50 32c-30 0 -56 -15 -102 -58c-56 -53 -117 -134 -117 -285c0 -129 43 -189 96 -189c45 0 109 28 143 76c43 62 64 123 64 165c-21 -8 -93 -26 -118 -26
c-17 0 -33 11 -33 38c0 22 15 45 41 45c64 0 135 27 158 27c27 0 40 -21 40 -45c0 -81 -68 -353 -304 -355c-109 0 -174 102 -174 264c0 152 73 269 153 340c59 52 115 79 160 79zM296 689c-58 0 -97 63 -97 103c0 26 14 32 35 32c16 0 33 -6 33 -29c0 -21 13 -43 31 -43
c21 0 38 11 46 36c-3 5 -4 11 -4 17c0 15 22 23 39 23c19 0 33 -11 33 -28c0 -9 -2 -18 -7 -24c-20 -53 -49 -87 -109 -87z" />
    <glyph glyph-name="Gcommaaccent" unicode="&#x122;" horiz-adv-x="536" 
d="M342 665c48 0 82 -16 103 -42c20 -24 32 -55 32 -69c0 -21 -14 -43 -45 -43c-29 0 -41 16 -47 46c-1 13 -19 32 -51 32c-29 0 -55 -15 -101 -58c-56 -53 -117 -134 -117 -285c0 -129 43 -189 96 -189c45 0 109 28 143 76c43 62 64 123 64 165c-21 -8 -93 -26 -118 -26
c-16 0 -33 11 -33 38c0 22 15 45 41 45c64 0 135 27 158 27c27 0 40 -21 40 -45c0 -81 -68 -353 -304 -355c-109 0 -174 102 -174 264c0 152 73 269 153 340c60 52 115 79 160 79zM223 -240c-19 0 -24 8 -24 22c0 19 12 29 34 31c25 3 42 24 42 55c0 12 -5 22 -13 26
c-32 -3 -40 13 -40 30c0 14 9 27 30 27c41 0 77 -30 77 -83c0 -73 -63 -108 -106 -108z" />
    <glyph glyph-name="Imacron" unicode="&#x12a;" horiz-adv-x="205" 
d="M145 554v-479c7 -9 13 -20 13 -33c0 -22 -22 -47 -55 -47c-35 0 -58 18 -58 48c0 13 6 25 14 36v481c-9 5 -11 17 -11 28c0 34 32 57 62 57c39 0 50 -30 50 -53c0 -13 -4 -26 -15 -38zM161 715l-109 -16c-6 -3 -18 -4 -23 -4c-17 0 -31 18 -31 37c0 29 18 40 31 40
c7 0 15 -3 20 -5l100 15c8 4 18 7 24 7c17 0 33 -14 33 -38c0 -32 -31 -40 -45 -36z" />
    <glyph glyph-name="Iogonek" unicode="&#x12e;" horiz-adv-x="205" 
d="M126 -175c-55 0 -92 29 -92 91c0 32 12 66 27 92c-22 20 -17 49 -2 71v481c-9 5 -11 17 -11 28c0 34 32 57 62 57c39 0 50 -30 50 -53c0 -13 -4 -26 -15 -38v-479c7 -9 13 -20 13 -33c0 -16 -10 -29 -24 -40c-27 -20 -41 -50 -41 -83c0 -26 19 -40 38 -40
c22 0 38 15 40 29c-2 2 -3 5 -3 10c0 10 10 18 31 18c18 0 31 -13 31 -34c0 -31 -36 -77 -104 -77z" />
    <glyph glyph-name="Kcommaaccent" unicode="&#x136;" horiz-adv-x="464" 
d="M146 348v-279c7 -5 11 -14 11 -26c2 -39 -30 -48 -54 -48c-28 0 -57 15 -55 50c1 13 5 21 12 27v501c-6 6 -7 16 -7 24c0 36 26 48 48 48c24 0 52 -12 52 -41c0 -14 -4 -24 -7 -27v-153h2c8 14 22 33 46 58l113 120c12 28 25 41 48 41c12 0 50 -12 50 -43
c-1 -17 -17 -43 -38 -47l-156 -161l218 -318c18 -3 33 -19 33 -32c0 -21 -29 -51 -59 -51c-36 0 -46 18 -46 34l-165 246c-21 31 -36 55 -44 77h-2zM189 -218c-18 0 -23 8 -23 22c0 19 12 29 34 31c25 3 42 24 42 55c0 12 -5 22 -13 26c-32 -4 -41 13 -41 29
c0 15 10 28 30 28c42 0 78 -30 78 -83c0 -73 -63 -108 -107 -108z" />
    <glyph glyph-name="Lacute" unicode="&#x139;" horiz-adv-x="365" 
d="M146 566v-496l124 19c8 7 25 14 33 14c18 0 43 -11 43 -44c0 -34 -17 -51 -39 -51c-7 0 -19 2 -28 5l-142 -23c-10 -2 -28 -5 -40 -5c-29 0 -51 13 -51 42c0 18 6 29 14 35v505c-3 7 -7 17 -7 25c0 40 25 53 53 53c24 0 49 -9 49 -52c0 -9 -6 -19 -9 -27zM251 806
l-57 -77c-2 -17 -17 -32 -40 -32c-22 0 -36 14 -37 34c1 13 9 27 22 30l59 79c-9 25 15 33 35 33c22 0 38 -13 38 -34c0 -15 -7 -26 -20 -33z" />
    <glyph glyph-name="Lcaron" unicode="&#x13d;" horiz-adv-x="365" 
d="M146 566v-496l125 19c7 7 24 14 32 14c18 0 43 -11 43 -44c0 -34 -17 -51 -38 -51c-8 0 -19 2 -28 5l-143 -23c-10 -2 -28 -5 -40 -5c-29 0 -51 13 -51 42c0 18 6 29 14 35v505c-3 7 -7 17 -7 25c0 40 25 53 53 53c24 0 50 -9 50 -51c0 -10 -7 -20 -10 -28zM216 464
c-19 0 -24 8 -24 22c0 19 12 29 34 31c25 3 42 24 42 55c0 12 -5 22 -13 26c-32 -4 -41 13 -41 29c0 15 10 28 31 28c41 0 77 -30 77 -83c0 -73 -63 -108 -106 -108z" />
    <glyph glyph-name="Lcommaaccent" unicode="&#x13b;" horiz-adv-x="365" 
d="M146 566v-496l125 19c7 7 25 14 32 14c18 0 43 -11 43 -44c0 -34 -17 -51 -38 -51c-8 0 -19 2 -28 5l-143 -23c-10 -2 -28 -5 -40 -5c-29 0 -51 13 -51 42c0 18 6 29 14 35v505c-3 7 -7 17 -7 25c0 40 25 53 53 53c24 0 50 -9 50 -52c0 -9 -7 -19 -10 -27zM140 -240
c-19 0 -23 8 -23 22c0 19 11 29 34 31c25 3 42 24 42 55c0 12 -5 22 -13 26c-33 -3 -41 13 -41 30c0 14 9 27 30 27c42 0 78 -30 78 -83c0 -73 -63 -108 -107 -108z" />
    <glyph glyph-name="Nacute" unicode="&#x143;" horiz-adv-x="489" 
d="M60 67v501c-5 8 -8 20 -8 29c0 25 16 48 49 48c41 0 52 -11 52 -36c0 -22 12 -63 29 -102c21 -50 67 -126 98 -175c28 -45 58 -99 71 -130h1c-3 127 -3 254 -3 385c-2 6 -10 15 -10 25c0 33 22 44 43 44c25 0 54 -12 54 -36c0 -16 -4 -23 -7 -31v-536c5 -7 10 -15 10 -24
c0 -23 -10 -34 -51 -34c-29 0 -39 25 -49 57c-16 55 -70 155 -98 200c-36 57 -85 136 -102 185l-2 1c1 -122 3 -247 3 -371c4 -6 9 -17 9 -27c0 -31 -11 -45 -44 -45c-32 0 -58 11 -58 45c0 9 8 22 13 27zM339 789l-57 -77c-1 -17 -16 -33 -39 -33s-37 14 -38 35
c1 12 10 27 23 30l59 78c-9 25 15 33 34 33c23 0 38 -13 38 -34c0 -14 -7 -26 -20 -32z" />
    <glyph glyph-name="Ncaron" unicode="&#x147;" horiz-adv-x="489" 
d="M60 67v501c-5 8 -8 20 -8 29c0 25 16 48 49 48c41 0 52 -11 52 -36c0 -22 12 -63 29 -102c21 -50 67 -126 98 -175c28 -45 58 -99 71 -130h1c-3 127 -3 254 -3 385c-2 6 -10 15 -10 25c0 33 22 44 43 44c25 0 54 -12 54 -36c0 -16 -4 -23 -7 -31v-536c5 -7 10 -15 10 -24
c0 -23 -10 -34 -51 -34c-29 0 -39 25 -49 57c-16 55 -70 155 -98 200c-36 57 -85 136 -102 185l-2 1c1 -122 3 -247 3 -371c4 -6 9 -17 9 -27c0 -31 -11 -45 -44 -45c-32 0 -58 11 -58 45c0 9 8 22 13 27zM343 751l-62 -63c-7 -9 -20 -13 -36 -13c-11 0 -24 8 -29 17l-36 61
c-8 6 -18 15 -18 28c0 21 12 36 36 36c16 0 27 -15 33 -29l26 -44l42 46c2 14 16 27 31 27c19 0 37 -11 37 -32c0 -15 -15 -27 -24 -34z" />
    <glyph glyph-name="Ncommaaccent" unicode="&#x145;" horiz-adv-x="489" 
d="M60 67v501c-5 8 -8 20 -8 29c0 25 16 48 49 48c41 0 52 -11 52 -36c0 -22 12 -63 29 -102c21 -50 67 -126 98 -175c28 -45 58 -99 71 -130h1c-3 127 -3 254 -3 385c-2 6 -10 15 -10 25c0 33 22 44 43 44c25 0 54 -12 54 -36c0 -16 -4 -23 -7 -31v-536c5 -7 10 -15 10 -24
c0 -23 -10 -34 -51 -34c-29 0 -39 25 -49 57c-16 55 -70 155 -98 200c-36 57 -85 136 -102 185l-2 1c1 -122 3 -247 3 -371c4 -6 9 -17 9 -27c0 -31 -11 -45 -44 -45c-32 0 -58 11 -58 45c0 9 8 22 13 27zM201 -217c-19 0 -24 8 -24 22c0 19 12 29 34 31c25 3 42 24 42 56
c0 12 -5 21 -13 25c-32 -3 -41 14 -41 30c0 14 10 28 31 28c41 0 77 -31 77 -84c0 -73 -63 -108 -106 -108z" />
    <glyph glyph-name="Ohungarumlaut" unicode="&#x150;" horiz-adv-x="489" 
d="M282 674c90 0 174 -84 174 -310c0 -220 -119 -383 -265 -383c-126 0 -166 151 -166 262c0 201 121 431 257 431zM270 598c-68 0 -156 -182 -156 -343c0 -91 25 -198 95 -198c75 0 158 130 158 304c0 157 -36 237 -97 237zM446 831l-69 -91c3 -15 -14 -44 -43 -44
c-17 0 -33 9 -33 38c0 12 4 19 13 23l70 94c-9 18 7 45 38 45c16 0 40 -11 40 -40c0 -10 -5 -17 -16 -25zM315 831l-69 -91c3 -15 -14 -44 -42 -44c-17 0 -34 9 -34 38c0 12 5 19 13 23l70 94c-8 18 8 45 39 45c16 0 40 -11 40 -40c0 -10 -5 -17 -17 -25z" />
    <glyph glyph-name="Omacron" unicode="&#x14c;" horiz-adv-x="489" 
d="M282 674c90 0 174 -84 174 -310c0 -220 -119 -383 -265 -383c-126 0 -166 151 -166 262c0 201 121 431 257 431zM270 598c-68 0 -156 -182 -156 -343c0 -91 25 -198 95 -198c75 0 158 130 158 304c0 157 -36 237 -97 237zM330 735l-109 -16c-6 -3 -18 -4 -23 -4
c-17 0 -31 18 -31 37c0 29 18 40 31 40c7 0 15 -3 20 -5l101 15c7 4 17 7 23 7c18 0 33 -14 33 -38c0 -32 -30 -40 -45 -36z" />
    <glyph glyph-name="Racute" unicode="&#x154;" horiz-adv-x="507" 
d="M51 47c0 8 9 23 13 31v400c-3 -2 -5 -2 -8 -2c-8 0 -20 10 -20 36c0 33 12 47 28 52v18c-3 7 -6 18 -6 28c0 25 26 43 53 43c23 0 47 -20 37 -50v-10c65 33 127 50 194 50c69 0 115 -39 115 -104c0 -81 -74 -176 -253 -213l255 -243c35 13 60 -20 60 -38
c0 -37 -31 -57 -59 -57c-16 0 -36 10 -44 28l-268 264v-206c3 -7 10 -20 10 -33c0 -37 -36 -46 -68 -46c-29 0 -39 28 -39 52zM148 521v-147c124 35 220 81 220 155c0 25 -20 39 -47 39c-46 0 -109 -12 -173 -47zM355 806l-58 -77c-1 -17 -16 -32 -39 -32s-37 14 -37 34
c0 13 9 27 22 30l59 79c-9 25 15 33 34 33c23 0 38 -13 38 -34c0 -15 -6 -26 -19 -33z" />
    <glyph glyph-name="Rcaron" unicode="&#x158;" horiz-adv-x="507" 
d="M51 47c0 8 9 23 13 31v400c-3 -2 -5 -2 -8 -2c-8 0 -20 10 -20 36c0 33 12 47 28 52v18c-3 7 -6 18 -6 28c0 25 26 43 53 43c23 0 47 -20 37 -50v-10c65 33 127 50 194 50c69 0 115 -39 115 -104c0 -81 -74 -176 -253 -213l255 -243c35 13 60 -20 60 -38
c0 -37 -31 -57 -59 -57c-16 0 -36 10 -44 28l-268 264v-206c3 -7 10 -20 10 -33c0 -37 -36 -46 -68 -46c-29 0 -39 28 -39 52zM148 521v-147c124 35 220 81 220 155c0 25 -20 39 -47 39c-46 0 -109 -12 -173 -47zM350 755l-62 -63c-7 -9 -20 -13 -36 -13c-11 0 -24 8 -29 17
l-36 61c-9 5 -18 15 -18 28c0 21 12 36 36 36c16 0 26 -16 32 -29l27 -44l42 46c2 14 16 27 31 27c19 0 36 -11 36 -32c0 -16 -14 -28 -23 -34z" />
    <glyph glyph-name="Rcommaaccent" unicode="&#x156;" horiz-adv-x="507" 
d="M51 47c0 8 9 23 13 31v400c-3 -2 -5 -2 -8 -2c-8 0 -20 10 -20 36c0 33 12 47 28 52v18c-3 7 -6 18 -6 28c0 25 26 43 53 43c23 0 47 -20 37 -50v-10c65 33 127 50 194 50c69 0 115 -39 115 -104c0 -81 -74 -176 -252 -213l254 -243c35 13 60 -20 60 -38
c0 -37 -31 -57 -59 -57c-16 0 -36 10 -44 28l-268 264v-206c3 -7 10 -20 10 -33c0 -37 -36 -46 -68 -46c-29 0 -39 28 -39 52zM148 521v-147c124 35 220 81 220 155c0 25 -20 39 -47 39c-46 0 -109 -12 -173 -47zM210 -217c-19 0 -24 8 -24 22c0 19 12 29 34 31
c25 3 42 24 42 56c0 12 -5 21 -13 25c-32 -3 -41 14 -41 30c0 14 10 28 30 28c42 0 78 -31 78 -84c0 -73 -63 -108 -106 -108z" />
    <glyph glyph-name="Sacute" unicode="&#x15a;" horiz-adv-x="498" 
d="M285 648c66 0 128 -61 128 -99c0 -23 -7 -41 -39 -41c-37 0 -52 16 -51 36c-8 17 -29 29 -58 29c-71 0 -144 -81 -144 -156c0 -38 13 -52 35 -52s50 8 92 21c41 14 69 22 109 22c66 0 114 -44 114 -131c0 -57 -11 -105 -35 -143c-57 -92 -175 -149 -264 -149
c-103 0 -139 96 -139 127c0 27 20 55 49 55c31 0 34 -39 43 -63c10 -27 28 -44 55 -44c61 0 142 47 180 109c18 28 22 66 22 104c0 44 -17 58 -45 58c-31 0 -55 -8 -96 -22s-72 -21 -106 -21c-57 0 -103 31 -103 118c0 110 111 242 253 242zM350 806l-56 -77
c-2 -17 -17 -32 -40 -32c-22 0 -36 14 -37 34c1 13 9 27 22 30l59 79c-9 25 15 33 34 33c23 0 38 -13 38 -34c0 -15 -7 -26 -20 -33z" />
    <glyph glyph-name="Scedilla" unicode="&#x15e;" horiz-adv-x="498" 
d="M258 -12l-12 -25c39 1 64 -27 64 -74c0 -55 -36 -104 -105 -104c-14 0 -26 5 -35 13c-4 -3 -8 -6 -14 -6c-10 0 -22 16 -22 34c0 20 17 38 30 38c7 0 17 -7 17 -15c7 -4 15 -8 25 -8c28 0 51 17 51 46c0 20 -7 28 -21 28c-5 0 -7 -3 -12 -6c-3 -4 -12 -6 -23 -6
c-15 0 -24 12 -24 24c0 7 6 21 12 26l20 35c-12 -3 -25 -3 -36 -3c-104 0 -140 96 -140 127c0 27 20 55 49 55c31 0 34 -39 43 -63c10 -27 28 -44 55 -44c61 0 142 47 180 109c18 28 22 66 22 104c0 44 -17 58 -46 58c-30 0 -54 -8 -95 -22s-72 -21 -106 -21
c-57 0 -103 31 -103 118c0 110 111 242 252 242h1c66 0 128 -61 128 -99c0 -23 -7 -41 -39 -41c-37 0 -52 16 -51 36c-8 17 -29 29 -58 29c-71 0 -144 -81 -144 -156c0 -38 13 -52 35 -52s50 8 93 21c40 14 68 22 108 22c66 0 114 -44 114 -131c0 -56 -11 -104 -35 -143
c-35 -57 -91 -98 -148 -122c-17 -8 -26 -17 -30 -24z" />
    <glyph glyph-name="Scommaaccent" unicode="&#x218;" horiz-adv-x="498" 
d="M285 648c66 0 128 -61 128 -99c0 -23 -7 -41 -39 -41c-37 0 -52 16 -51 36c-8 17 -29 29 -58 29c-71 0 -144 -81 -144 -156c0 -38 13 -52 35 -52s50 8 92 21c41 14 69 22 109 22c66 0 114 -44 114 -131c0 -57 -11 -105 -35 -143c-57 -92 -174 -149 -264 -149
c-103 0 -139 96 -139 127c0 27 20 55 49 55c31 0 34 -39 43 -63c10 -27 28 -44 55 -44c61 0 142 47 180 109c18 28 22 66 22 104c0 44 -17 58 -46 58c-30 0 -54 -8 -95 -22s-72 -21 -106 -21c-57 0 -103 31 -103 118c0 110 111 242 253 242zM206 -240c-19 0 -24 8 -24 22
c0 19 12 29 34 31c25 3 42 24 42 55c0 12 -5 22 -13 26c-32 -4 -40 13 -40 29c0 15 9 28 30 28c41 0 77 -30 77 -83c0 -73 -63 -108 -106 -108z" />
    <glyph glyph-name="Tcaron" unicode="&#x164;" horiz-adv-x="382" 
d="M236 555v-489c3 -5 9 -15 9 -25c0 -26 -16 -46 -60 -46c-28 0 -41 14 -41 40c0 14 2 26 6 34v473l-80 -20c-8 -6 -18 -11 -31 -11c-25 0 -42 17 -42 41c0 28 18 48 37 48c16 0 21 -3 26 -5l96 23c11 14 48 21 66 13l103 22c12 5 19 7 30 7c20 0 38 -13 38 -45
c0 -24 -16 -46 -38 -46c-13 0 -21 3 -29 7zM289 751l-62 -63c-7 -9 -20 -13 -36 -13c-11 0 -24 8 -29 17l-36 61c-8 5 -18 15 -18 28c0 21 13 36 36 36c16 0 27 -16 33 -29l26 -44l42 46c2 14 16 27 31 27c19 0 36 -11 36 -32c0 -16 -14 -28 -23 -34z" />
    <glyph glyph-name="Tcommaaccent" unicode="&#x162;" horiz-adv-x="382" 
d="M236 555v-489c3 -5 9 -15 9 -25c0 -26 -16 -46 -60 -46c-28 0 -41 14 -41 40c0 14 2 26 6 34v473l-80 -20c-8 -6 -18 -11 -31 -11c-25 0 -42 17 -42 41c0 28 18 48 37 48c16 0 21 -3 26 -5l96 23c11 14 48 21 66 13l103 22c12 5 19 7 30 7c20 0 38 -13 38 -45
c0 -24 -16 -46 -38 -46c-13 0 -21 3 -29 7zM148 -239c-18 0 -23 8 -24 22c0 19 12 29 34 31c25 3 42 24 42 56c0 12 -5 21 -13 25c-32 -3 -40 14 -40 30c0 14 9 28 30 28c41 0 77 -31 77 -84c0 -73 -63 -108 -106 -108z" />
    <glyph glyph-name="Uhungarumlaut" unicode="&#x170;" horiz-adv-x="500" 
d="M200 -17c-114 0 -143 79 -144 137v458c-17 32 6 62 40 62c38 0 42 -37 42 -54v-474c7 -24 29 -48 62 -48c103 0 150 77 150 104v414c-6 6 -9 13 -9 23c0 26 24 44 55 44c19 0 40 -11 40 -38c0 -7 0 -14 -4 -20v-434c0 -18 -17 -68 -43 -94c-54 -52 -117 -80 -189 -80z
M399 796l-70 -90c4 -16 -13 -44 -42 -44c-17 0 -33 9 -34 38c1 11 4 18 13 23l71 94c-9 18 6 45 38 45c16 0 40 -12 40 -40c0 -10 -6 -17 -16 -26zM268 796l-70 -90c3 -16 -13 -44 -42 -44c-17 0 -34 9 -34 38c0 11 5 18 13 23l71 94c-9 18 7 45 39 45c15 0 39 -12 39 -40
c0 -10 -5 -17 -16 -26z" />
    <glyph glyph-name="Umacron" unicode="&#x16a;" horiz-adv-x="500" 
d="M200 -17c-114 0 -143 79 -144 137v458c-17 32 6 62 40 62c38 0 42 -37 42 -54v-474c7 -24 29 -48 62 -48c103 0 150 77 150 104v414c-6 6 -9 13 -9 23c0 26 24 44 55 44c19 0 40 -11 40 -38c0 -7 0 -14 -4 -20v-434c0 -18 -17 -68 -43 -94c-54 -52 -117 -80 -189 -80z
M309 711l-109 -16c-7 -3 -19 -4 -23 -4c-17 0 -32 18 -32 37c0 29 19 40 31 40c8 0 16 -3 20 -5l101 15c8 4 18 7 24 7c18 0 33 -14 33 -38c0 -32 -30 -40 -45 -36z" />
    <glyph glyph-name="Uogonek" unicode="&#x172;" horiz-adv-x="500" 
d="M284 -170c-49 0 -89 25 -89 84c0 26 7 50 17 70c-3 0 -8 -1 -11 -1c-115 0 -145 79 -145 137v458c-17 32 6 62 40 62c38 0 42 -37 42 -54v-474c7 -24 29 -48 62 -48c103 0 150 77 150 104v414c-6 6 -9 13 -9 23c0 26 24 44 55 44c19 0 40 -11 40 -38c0 -7 0 -14 -4 -20
v-434c0 -18 -17 -68 -43 -94c-23 -22 -47 -40 -72 -52c-20 -10 -36 -22 -46 -36c-13 -19 -17 -37 -17 -57c0 -22 17 -34 35 -34c22 0 34 9 37 20c-2 2 -3 5 -3 10c0 10 10 18 30 18c19 0 32 -14 32 -34c0 -30 -34 -68 -101 -68z" />
    <glyph glyph-name="Uring" unicode="&#x16e;" horiz-adv-x="500" 
d="M200 -17c-114 0 -143 79 -144 137v458c-17 32 6 62 40 62c38 0 42 -37 42 -54v-474c7 -24 29 -48 62 -48c103 0 150 77 150 104v414c-6 6 -9 13 -9 23c0 26 24 44 55 44c19 0 40 -11 40 -38c0 -7 0 -14 -4 -20v-434c0 -18 -17 -68 -43 -94c-54 -52 -117 -80 -189 -80z
M232 659h-2c-35 0 -63 34 -63 83c0 46 63 79 87 79c38 0 72 -26 72 -81c0 -53 -58 -81 -94 -81zM238 706c15 0 39 11 39 32s-6 36 -20 36c-18 0 -41 -13 -41 -37c0 -21 9 -31 22 -31z" />
    <glyph glyph-name="Zacute" unicode="&#x179;" horiz-adv-x="457" 
d="M332 577l-180 -13c-10 -31 -30 -45 -53 -45c-30 0 -40 23 -40 40c0 50 25 94 64 94c13 0 22 -4 28 -11l214 12c16 1 25 4 36 4c21 0 41 -12 41 -30s-7 -39 -29 -72l-298 -487l217 9c0 33 24 53 48 53c16 0 48 -9 48 -55c0 -54 -26 -77 -47 -77s-45 1 -125 1
c-38 0 -53 -2 -105 -4c-52 -3 -69 -5 -84 -5c-37 0 -53 19 -53 49c0 11 4 27 17 44zM333 793l-57 -76c-1 -18 -16 -33 -39 -33c-22 0 -37 14 -37 34c0 13 9 28 22 30l59 79c-9 25 15 33 34 33c23 0 38 -13 38 -34c0 -14 -7 -26 -20 -33z" />
    <glyph glyph-name="Zdotaccent" unicode="&#x17b;" horiz-adv-x="457" 
d="M332 577l-180 -13c-10 -31 -30 -45 -53 -45c-30 0 -40 23 -40 40c0 50 25 94 64 94c13 0 22 -4 28 -11l214 12c16 1 25 4 36 4c21 0 41 -12 41 -30s-7 -39 -29 -72l-298 -487l217 9c0 33 24 53 48 53c16 0 48 -9 48 -55c0 -54 -26 -77 -47 -77s-45 1 -125 1
c-38 0 -53 -2 -105 -4c-52 -3 -69 -5 -84 -5c-37 0 -53 19 -53 49c0 11 4 27 17 44zM239 675c-30 0 -40 19 -40 49c0 47 20 87 57 87c24 0 40 -16 40 -45c0 -56 -27 -91 -57 -91z" />
    <glyph glyph-name="Idotaccent" unicode="&#x130;" horiz-adv-x="205" 
d="M145 554v-479c7 -9 13 -20 13 -33c0 -22 -22 -47 -55 -47c-35 0 -58 18 -58 48c0 13 6 25 14 36v481c-9 5 -11 17 -11 28c0 34 32 57 62 57c39 0 50 -30 50 -53c0 -13 -4 -26 -15 -38zM97 670c-30 0 -40 19 -40 49c0 47 20 87 57 87c24 0 40 -16 40 -45
c0 -56 -27 -91 -57 -91z" />
    <glyph glyph-name="abreve" unicode="&#x103;" horiz-adv-x="386" 
d="M248 287v57c0 24 -5 37 -24 37c-32 0 -63 -18 -85 -38c2 -8 -11 -28 -38 -28c-26 0 -42 26 -42 46c0 18 23 43 44 39c38 29 91 50 161 50c33 0 65 -29 65 -83v-318c4 -3 7 -13 7 -21c0 -31 -34 -34 -58 -34c-32 0 -39 15 -39 28c0 7 3 15 7 21v44h-1
c-52 -74 -103 -106 -163 -106c-44 0 -72 33 -72 77c0 83 91 196 238 229zM246 194v32c-83 -20 -156 -98 -156 -144c0 -17 11 -22 23 -22c53 0 133 82 133 134zM189 479c-58 0 -97 63 -97 103c0 26 14 32 35 32c16 0 33 -6 33 -29c0 -21 13 -43 31 -43c21 0 38 11 46 36
c-3 5 -4 11 -4 17c0 15 22 23 39 23c19 0 33 -11 33 -28c0 -9 -2 -18 -7 -24c-20 -53 -49 -87 -109 -87z" />
    <glyph glyph-name="amacron" unicode="&#x101;" horiz-adv-x="386" 
d="M248 287v57c0 24 -5 37 -24 37c-32 0 -63 -18 -85 -38c2 -8 -11 -28 -38 -28c-26 0 -42 26 -42 46c0 18 23 43 44 39c38 29 91 50 161 50c33 0 65 -29 65 -83v-318c4 -3 7 -13 7 -21c0 -31 -34 -34 -58 -34c-32 0 -39 15 -39 28c0 7 3 15 7 21v44h-1
c-52 -74 -103 -106 -163 -106c-44 0 -72 33 -72 77c0 83 91 196 238 229zM246 194v32c-83 -20 -156 -98 -156 -144c0 -17 11 -22 23 -22c53 0 133 82 133 134zM260 543l-109 -16c-6 -3 -19 -4 -23 -4c-17 0 -31 18 -31 37c0 29 18 40 31 40c7 0 15 -3 20 -5l100 15
c8 4 18 7 24 7c17 0 33 -14 33 -38c0 -32 -31 -40 -45 -36z" />
    <glyph glyph-name="aogonek" unicode="&#x105;" horiz-adv-x="386" 
d="M308 -181c-56 0 -93 29 -93 91c0 33 13 68 30 95c-10 12 -6 26 1 38v44h-1c-52 -74 -103 -106 -163 -106c-44 0 -72 33 -72 77c0 83 91 196 238 229v57c0 24 -5 37 -24 37c-32 0 -63 -18 -85 -38c2 -8 -11 -28 -38 -28c-26 0 -42 26 -42 46c0 18 23 43 44 39
c38 29 91 50 161 50c33 0 65 -29 65 -83v-318c4 -3 7 -13 7 -21c0 -12 -5 -19 -12 -24c-33 -22 -50 -58 -50 -91c0 -25 19 -40 39 -40c22 0 38 15 40 29c-2 3 -3 5 -3 10c0 10 10 18 31 18c18 0 31 -13 31 -34c0 -31 -36 -77 -104 -77zM246 194v32
c-83 -20 -156 -98 -156 -144c0 -17 11 -22 23 -22c53 0 133 82 133 134z" />
    <glyph glyph-name="cacute" unicode="&#x107;" horiz-adv-x="372" 
d="M230 443c61 0 113 -35 113 -72c0 -31 -15 -49 -53 -49c-20 0 -25 13 -29 24s-10 24 -30 24c-27 0 -53 -23 -79 -60c-28 -38 -43 -91 -43 -156c0 -68 20 -98 61 -98c19 0 35 8 49 21c15 13 36 36 46 63c3 26 9 47 39 47c32 0 42 -25 42 -40c0 -9 -23 -68 -66 -113
c-35 -36 -81 -53 -126 -53c-84 0 -128 67 -128 158c0 111 24 157 68 222c24 35 86 82 136 82zM286 606l-57 -77c-1 -17 -16 -33 -39 -33s-37 14 -37 35c0 12 9 27 22 30l59 79c-9 25 15 33 34 33c23 0 38 -13 38 -34c0 -15 -7 -26 -20 -33z" />
    <glyph glyph-name="ccaron" unicode="&#x10d;" horiz-adv-x="372" 
d="M230 443c61 0 113 -35 113 -72c0 -31 -15 -49 -53 -49c-20 0 -25 13 -29 24s-10 24 -30 24c-27 0 -53 -23 -79 -60c-28 -38 -43 -91 -43 -156c0 -68 20 -98 61 -98c19 0 35 8 49 21c15 13 36 36 46 63c3 26 9 47 39 47c32 0 42 -25 42 -40c0 -9 -23 -68 -66 -113
c-35 -36 -81 -53 -126 -53c-84 0 -128 67 -128 158c0 111 24 157 68 222c24 35 86 82 136 82zM294 560l-61 -63c-8 -9 -20 -13 -36 -13c-11 0 -24 8 -29 17l-36 61c-9 5 -18 15 -18 28c0 21 12 36 36 36c16 0 26 -15 32 -29l27 -44l41 46c3 14 17 27 32 27
c19 0 36 -11 36 -32c0 -16 -14 -28 -24 -34z" />
    <glyph glyph-name="dcaron" unicode="&#x10f;" horiz-adv-x="420" 
d="M284 398v184c-10 5 -14 18 -14 35c0 22 22 39 55 39c30 0 45 -20 45 -43l-3 -33v-525c5 -2 13 -11 13 -22c0 -29 -15 -39 -56 -39c-33 0 -45 13 -45 36c0 10 0 19 5 22v71c-39 -71 -118 -142 -183 -142c-55 0 -93 45 -93 121c0 156 125 312 230 312c19 0 33 -5 46 -16z
M233 341c-61 0 -140 -142 -140 -223c0 -30 7 -55 39 -55c31 0 69 39 100 86c28 42 48 69 48 124c0 36 -9 68 -47 68zM421 465c-19 0 -24 8 -24 22c0 19 12 29 34 31c25 3 42 24 42 55c0 12 -5 21 -13 25c-32 -3 -40 14 -40 31c0 14 9 27 30 27c41 0 77 -30 77 -83
c0 -73 -63 -108 -106 -108z" />
    <glyph glyph-name="dcroat" unicode="&#x111;" horiz-adv-x="420" 
d="M233 341c-61 0 -140 -142 -140 -223c0 -30 7 -55 39 -55c31 0 69 39 100 86c28 42 48 69 48 124c0 36 -9 68 -47 68zM397 491l-30 -4v-432c5 -2 13 -11 13 -22c0 -29 -15 -39 -56 -39c-33 0 -45 13 -45 36c0 10 0 19 5 22v71c-39 -71 -118 -142 -183 -142
c-55 0 -93 45 -93 121c0 155 125 312 230 312c19 0 33 -5 46 -16v77l-79 -12c-5 -3 -17 -4 -22 -4c-12 0 -24 13 -24 30c0 25 15 33 24 33c7 0 15 -3 19 -5l82 13v52c-10 5 -14 18 -14 35c0 22 22 39 55 39c30 0 47 -20 45 -43l-3 -34v-38l20 3c6 3 16 6 22 6
c12 0 26 -10 26 -30c0 -27 -28 -33 -38 -29z" />
    <glyph glyph-name="ecaron" unicode="&#x11b;" horiz-adv-x="371" 
d="M234 442c83 0 113 -77 113 -120c0 -48 -29 -84 -198 -122l-34 -8c-5 -19 -7 -39 -7 -61c0 -51 16 -71 48 -71c46 0 92 39 100 67c-3 24 15 42 44 42c35 0 41 -23 41 -40c0 -27 -78 -144 -197 -144c-64 0 -117 35 -117 139c0 184 103 318 207 318zM229 367
c-48 0 -84 -53 -100 -107c128 27 145 40 145 55c0 27 -15 52 -45 52zM294 553l-61 -63c-8 -8 -20 -13 -36 -13c-12 0 -24 8 -29 18l-37 60c-8 6 -18 15 -18 28c0 21 13 36 36 36c16 0 27 -15 33 -29l26 -44l42 47c2 13 16 26 32 26c19 0 36 -11 36 -32
c0 -15 -14 -27 -24 -34z" />
    <glyph glyph-name="edotaccent" unicode="&#x117;" horiz-adv-x="371" 
d="M234 442c83 0 113 -77 113 -120c0 -48 -29 -84 -198 -122l-34 -8c-5 -19 -7 -39 -7 -61c0 -51 16 -71 48 -71c46 0 92 39 100 67c-3 24 15 42 44 42c35 0 41 -23 41 -40c0 -27 -78 -144 -197 -144c-64 0 -117 35 -117 139c0 184 103 318 207 318zM229 367
c-48 0 -84 -53 -100 -107c128 27 145 40 145 55c0 27 -15 52 -45 52zM189 482c-30 0 -40 19 -40 49c0 47 20 87 57 87c24 0 40 -16 40 -45c0 -56 -27 -91 -57 -91z" />
    <glyph glyph-name="emacron" unicode="&#x113;" horiz-adv-x="371" 
d="M234 442c83 0 113 -77 113 -120c0 -48 -29 -84 -198 -122l-34 -8c-5 -19 -7 -39 -7 -61c0 -51 16 -71 48 -71c46 0 92 39 100 67c-3 24 15 42 44 42c35 0 41 -23 41 -40c0 -27 -78 -144 -197 -144c-64 0 -117 35 -117 139c0 184 103 318 207 318zM229 367
c-48 0 -84 -53 -100 -107c128 27 145 40 145 55c0 27 -15 52 -45 52zM272 524l-109 -16c-7 -3 -19 -4 -23 -4c-17 0 -32 18 -32 37c0 29 19 40 31 40c8 0 16 -3 20 -5l101 15c8 4 17 7 24 7c17 0 33 -14 33 -38c0 -32 -31 -40 -45 -36z" />
    <glyph glyph-name="eogonek" unicode="&#x119;" horiz-adv-x="371" 
d="M230 367c-48 0 -84 -53 -100 -107c128 27 145 40 145 55c0 27 -15 52 -45 52zM207 -168c-49 0 -89 25 -89 84c0 27 7 50 17 71c-3 0 -6 -1 -9 -1c-55 6 -99 43 -99 138c0 184 103 318 206 318h1c83 0 113 -77 113 -120c0 -48 -29 -83 -198 -122l-34 -8
c-5 -19 -7 -39 -7 -61c0 -51 16 -71 48 -71c46 0 92 40 100 67c-3 24 15 42 44 42c35 0 41 -23 41 -40c0 -20 -41 -85 -108 -120c-17 -9 -26 -15 -39 -33s-17 -37 -17 -56c0 -22 17 -34 35 -34c22 0 34 9 37 20c-2 2 -3 5 -3 10c0 10 10 18 30 18c19 0 32 -14 32 -34
c0 -29 -34 -68 -101 -68z" />
    <glyph glyph-name="gbreve" unicode="&#x11f;" horiz-adv-x="384" 
d="M332 383v-397c0 -133 -85 -199 -162 -199c-61 0 -115 31 -115 64c0 31 16 51 38 51c18 0 30 -12 33 -28c13 -11 31 -15 48 -15c43 0 75 34 75 134c0 45 2 91 2 137c-34 -90 -85 -149 -141 -149c-61 0 -91 55 -91 116c0 155 90 338 260 338c32 0 53 -14 53 -52zM121 59
c30 0 86 63 112 181c8 36 14 78 16 123v1c-88 0 -149 -135 -149 -256c0 -28 7 -49 21 -49zM185 472c-58 0 -97 63 -97 103c0 26 14 32 35 32c16 0 33 -6 33 -29c0 -21 13 -43 31 -43c21 0 38 11 46 36c-3 5 -4 11 -4 17c0 15 22 23 39 23c19 0 33 -11 33 -28
c0 -9 -2 -18 -7 -24c-20 -53 -49 -87 -109 -87z" />
    <glyph glyph-name="gcommaaccent" unicode="&#x123;" horiz-adv-x="384" 
d="M332 383v-397c0 -133 -85 -199 -162 -199c-61 0 -115 31 -115 64c0 31 16 51 38 51c18 0 30 -12 33 -28c13 -11 31 -15 48 -15c43 0 75 34 75 134c0 45 2 91 2 137c-34 -90 -85 -149 -141 -149c-61 0 -91 55 -91 116c0 155 90 338 260 338c32 0 53 -14 53 -52zM121 59
c30 0 86 63 112 181c8 36 16 78 16 123v1c-88 0 -149 -135 -149 -256c0 -28 7 -49 21 -49zM239 658c18 0 23 -8 23 -22c0 -19 -11 -28 -34 -31c-24 -3 -41 -24 -41 -55c0 -12 5 -22 13 -26c32 3 40 -14 40 -30c0 -14 -9 -28 -30 -28c-41 0 -77 31 -77 84
c0 73 63 108 106 108z" />
    <glyph glyph-name="imacron" unicode="&#x12b;" horiz-adv-x="189" 
d="M146 391c0 -19 -7 -28 -10 -33v-291c4 -2 11 -14 11 -24c0 -31 -36 -48 -64 -48c-25 0 -41 20 -41 46c0 16 7 26 11 30v283c-6 6 -9 17 -9 26c0 27 2 57 57 57c22 0 45 -27 45 -46zM154 526l-109 -16c-6 -3 -18 -4 -22 -4c-17 0 -32 18 -32 37c0 29 19 40 31 40
c8 0 16 -3 20 -5l101 15c7 4 17 7 24 7c17 0 32 -14 32 -38c0 -32 -30 -40 -45 -36z" />
    <glyph glyph-name="iogonek" unicode="&#x12f;" horiz-adv-x="189" 
d="M111 626c23 0 39 -16 39 -45c0 -56 -27 -91 -57 -91s-40 19 -40 49c0 47 20 87 58 87zM118 -172c-55 0 -92 29 -92 91c0 31 12 64 27 90c-13 17 -14 47 1 62v283c-6 6 -9 17 -9 26c0 27 2 57 57 57c22 0 45 -27 45 -45v-1c0 -19 -7 -28 -10 -33v-292c4 -2 11 -13 11 -24
c0 -17 -8 -26 -21 -35c-28 -21 -42 -54 -42 -85c0 -26 19 -40 38 -40c22 0 38 15 40 29c-2 2 -3 5 -3 10c0 10 10 18 31 18c18 0 31 -14 31 -34c0 -31 -36 -77 -104 -77z" />
    </font>
</defs>
</svg>
